<?xml version="1.0" encoding="utf-8"?>
<!-- Generator: Adobe Illustrator 16.0.0, SVG Export Plug-In . SVG Version: 6.00 Build 0)  -->
<!DOCTYPE svg PUBLIC "-//W3C//DTD SVG 1.1//EN" "http://www.w3.org/Graphics/SVG/1.1/DTD/svg11.dtd">
<svg version="1.1" id="Capa_1" xmlns="http://www.w3.org/2000/svg" xmlns:xlink="http://www.w3.org/1999/xlink" x="0px" y="0px"
	 width="600px" height="800px" viewBox="0 0 600 800" enable-background="new 0 0 600 800" xml:space="preserve">
<g>
	<path fill="#2C292A" d="M37.313,148.169h28.588V61.182H37.313V37.289h83.724v23.894H92.445v86.987h28.591v23.894H37.313V148.169z"
		/>
	<path fill="#2C292A" d="M139.045,72.409h19.196l0.819,14.295h0.814c3.069-11.229,9.191-16.745,19.199-16.745
		c9.598,0,15.314,5.516,17.56,16.745h0.815c3.271-11.229,9.803-16.745,20.417-16.745c14.299,0,21.037,9.803,21.037,31.245v70.858
		h-22.46V102.43c0-6.536-2.25-9.598-7.354-9.598c-6.327,0-10.21,4.49-10.21,12.659v66.572h-19.805V102.43
		c0-6.536-2.251-9.598-7.353-9.598c-6.329,0-10.212,4.49-10.212,12.659v66.572h-22.464V72.409z"/>
	<path fill="#2C292A" d="M261.124,99.977h81.681v24.913h-81.681V99.977z"/>
	<path fill="#2C292A" d="M37.313,266.854h23.891l1.022,16.137h0.816c4.291-12.049,12.866-18.586,26.342-18.586
		c25.118,0,37.166,22.669,37.166,52.277c0,29.403-12.047,52.274-37.166,52.274c-12.864,0-21.233-5.919-25.525-17.356h-0.817v59.831
		h-25.73V266.854z M99.799,316.683c0-20.625-6.535-29.406-17.968-29.406c-10.823,0-18.789,7.762-18.789,27.363v4.082
		c0,19.606,7.966,27.364,18.789,27.364C93.264,346.085,99.799,337.308,99.799,316.683z"/>
	<path fill="#2C292A" d="M144.24,338.125c0-20.423,14.696-31.45,41.651-31.45h20.218v-3.062c0-12.05-5.72-17.969-16.742-17.969
		c-8.376,0-14.708,3.471-16.342,11.437h-25.521c2.043-21.239,16.541-32.675,42.476-32.675c27.361,0,41.859,12.659,41.859,37.167
		v64.937h-23.892l-1.021-16.131h-0.817c-5.102,11.64-15.926,18.58-30.424,18.58C156.281,368.957,144.24,356.706,144.24,338.125z
		 M206.109,325.872v-1.223h-20.218c-9.595,0-15.314,4.286-15.314,12.046c0,6.736,4.491,11.027,13.683,11.027
		C196.306,347.723,206.109,339.35,206.109,325.872z"/>
	<path fill="#2C292A" d="M258.225,294.42h81.68v24.913h-81.68V294.42z"/>
	<path fill="#2C292A" d="M35.883,515.988c0-33.896,15.728-52.277,45.134-52.277c24.503,0,39.609,12.865,43.901,36.76h-27.16
		c-2.653-9.803-8.169-13.887-16.741-13.887c-12.668,0-18.382,8.986-18.382,29.404c0,20.422,5.714,29.402,18.382,29.402
		c8.572,0,14.088-4.082,16.741-13.887h27.16c-4.292,23.896-19.398,36.76-43.901,36.76C51.611,568.264,35.883,549.887,35.883,515.988
		z"/>
	<path fill="#2C292A" d="M145.911,543.758h30.22v-55.541h-30.22V466.16h55.948v77.598h30.227v22.059h-86.175V543.758z
		 M171.031,434.512c0-9.189,6.941-16.131,16.131-16.131c9.187,0,16.132,6.941,16.132,16.131c0,9.191-6.945,16.131-16.132,16.131
		C177.972,450.643,171.031,443.703,171.031,434.512z"/>
	<path fill="#2C292A" d="M248.916,515.375c0-33.078,15.921-51.664,45.125-51.664c29.609,0,45.537,18.994,45.537,50.645
		c0,3.471-0.199,6.74-0.41,8.578h-63.915c1.431,16.947,7.965,24.098,20.626,24.098c6.537,0,11.845-1.844,14.906-9.805h27.777
		c-5.721,20.01-20.424,31.037-43.09,31.037C265.862,568.264,248.916,549.684,248.916,515.375z M312.832,504.961
		c-1.639-14.293-7.557-20.01-18.585-20.01c-11.029,0-16.954,5.717-18.588,20.01H312.832z"/>
	<path fill="#2C292A" d="M363.371,466.16h23.891l1.023,16.137h0.814c4.701-12.254,14.09-18.586,27.771-18.586
		c19.402,0,29.813,12.254,29.813,34.309v67.797h-25.73v-65.551c0-8.783-4.689-13.682-13.473-13.682
		c-10.414,0-18.381,6.941-18.381,19.602v59.631h-25.729V466.16z"/>
	<path fill="#2C292A" d="M472.684,493.729h81.68v24.912h-81.68V493.729z"/>
	<path fill="#2C292A" d="M35.883,710.434c0-33.895,15.728-52.275,45.134-52.275c24.503,0,39.609,12.865,43.901,36.756h-27.16
		c-2.653-9.803-8.169-13.887-16.741-13.887c-12.668,0-18.382,8.99-18.382,29.406c0,20.424,5.714,29.404,18.382,29.404
		c8.572,0,14.088-4.082,16.741-13.885h27.16c-4.292,23.891-19.398,36.758-43.901,36.758
		C51.611,762.711,35.883,744.334,35.883,710.434z"/>
	<path fill="#2C292A" d="M145.911,738.205h30.22v-55.543h-30.22v-22.055h55.948v77.598h30.227v22.055h-86.175V738.205z
		 M171.031,628.957c0-9.191,6.941-16.131,16.131-16.131c9.187,0,16.132,6.939,16.132,16.131c0,9.189-6.945,16.131-16.132,16.131
		C177.972,645.088,171.031,638.146,171.031,628.957z"/>
	<path fill="#2C292A" d="M250.487,731.877c0-20.422,14.701-31.449,41.657-31.449h20.211v-3.063c0-12.047-5.713-17.969-16.737-17.969
		c-8.376,0-14.709,3.471-16.341,11.436h-25.527c2.043-21.238,16.545-32.674,42.476-32.674c27.361,0,41.859,12.66,41.859,37.166
		v64.936h-23.887l-1.025-16.131h-0.818c-5.102,11.641-15.922,18.582-30.423,18.582C262.534,762.711,250.487,750.455,250.487,731.877
		z M312.355,719.623V718.4h-20.211c-9.601,0-15.317,4.285-15.317,12.049c0,6.734,4.492,11.027,13.683,11.027
		C302.559,741.477,312.355,733.102,312.355,719.623z"/>
</g>
</svg>
