<?xml version="1.0" standalone="no"?>
<!DOCTYPE svg PUBLIC "-//W3C//DTD SVG 1.1//EN" "http://www.w3.org/Graphics/SVG/1.1/DTD/svg11.dtd" >
<svg xmlns="http://www.w3.org/2000/svg" xmlns:xlink="http://www.w3.org/1999/xlink" version="1.1">
<metadata></metadata>
<defs>
<font id="calling_codebold_italic" horiz-adv-x="1146" >
<font-face units-per-em="2048" ascent="1526" descent="-522" />
<missing-glyph horiz-adv-x="500" />
<glyph horiz-adv-x="0" />
<glyph horiz-adv-x="682" />
<glyph unicode="&#xd;" />
<glyph unicode=" " />
<glyph unicode="!" d="M311 141q0 89 63 152t152 63q74 0 121 -46.5t47 -119.5q0 -89 -63 -152t-152 -63q-74 0 -121 46.5t-47 119.5zM489 496l99 856h336l-267 -856h-168z" />
<glyph unicode="&#x22;" d="M272 606l105 746h303l-215 -746h-193zM727 606l104 746h304l-215 -746h-193z" />
<glyph unicode="#" d="M14 336l64 176h182l102 287h-184l64 176h184l119 336h190l-119 -336h209l121 336h189l-119 -336h182l-61 -176h-185l-100 -287h182l-61 -176h-185l-118 -336h-193l121 336h-211l-119 -336h-190l119 336h-183zM451 512h208l105 287h-211z" />
<glyph unicode="$" d="M111 328q0 41 8 82h246q-5 -30 -5 -37q0 -107 162 -107q98 0 156.5 37.5t58.5 104.5q0 44 -28.5 71.5t-90.5 46.5l-106 33q-135 42 -198.5 113.5t-63.5 193.5q0 167 107 275t290 125l21 219h227l-74 -223q118 -23 182 -93.5t64 -177.5q0 -31 -6 -69h-246v18 q0 107 -125 107q-85 0 -136.5 -40.5t-51.5 -103.5q0 -44 28.5 -72t90.5 -47l106 -32q135 -42 198.5 -114.5t63.5 -195.5q0 -171 -114.5 -276.5t-313.5 -122.5l-20 -217h-228l72 221q-135 20 -204.5 91.5t-69.5 189.5z" />
<glyph unicode="%" d="M-74 160l471 403l95 -106l-445 -437zM119 877q0 53 16 131q35 163 115 239t213 76q239 0 239 -229q0 -53 -16 -131q-35 -163 -115 -239.5t-213 -76.5q-239 0 -239 230zM295 895q0 -52 18.5 -75t59.5 -23q57 0 89.5 44.5t53.5 141.5q10 49 10 92q0 53 -18 76t-59 23 q-57 0 -90 -45t-54 -142q-10 -49 -10 -92zM512 217q0 53 16 131q35 163 115 239.5t213 76.5q240 0 240 -230q0 -48 -17 -131q-35 -163 -114.5 -239t-212.5 -76q-240 0 -240 229zM688 236q0 -52 18.5 -75.5t59.5 -23.5q57 0 89.5 45t53.5 142q11 54 11 92q0 52 -18.5 75 t-59.5 23q-57 0 -90 -44.5t-54 -141.5q-10 -49 -10 -92zM719 838l444 436l121 -139l-471 -404z" />
<glyph unicode="&#x26;" d="M31 297q0 266 295 444q-70 146 -70 250q0 163 116 274t290 111q137 0 218 -72.5t81 -197.5q0 -70 -26.5 -132t-76.5 -113.5t-108 -92.5t-134 -82l138 -237h4q49 92 80 233h217q-58 -272 -195 -418l154 -264h-283l-47 84q-115 -109 -305 -109q-164 0 -256 85t-92 237z M285 332q0 -70 38 -107t107 -37q86 0 164 60l-182 327q-127 -105 -127 -243zM494 989q0 -66 36 -149q201 116 201 235q0 42 -23 65t-65 23q-65 0 -107 -49t-42 -125z" />
<glyph unicode="'" d="M500 606l104 746h303l-215 -746h-192z" />
<glyph unicode="(" d="M244 395q0 271 112 504.5t316.5 396t472.5 228.5l-45 -221q-141 -44 -258.5 -137t-195 -215.5t-120.5 -268t-43 -295.5q0 -179 79.5 -303.5t238.5 -185.5l-41 -193q-248 74 -382 253t-134 437z" />
<glyph unicode=")" d="M51 -295l45 221q141 44 258.5 137t195 215.5t120.5 268t43 295.5q0 179 -79.5 303.5t-238.5 185.5l41 193q248 -74 382 -253t134 -437q0 -271 -112 -504.5t-316.5 -396t-472.5 -228.5z" />
<glyph unicode="*" d="M109 598l366 64l2 8l-309 209l151 170l238 -285l10 2l25 373l227 -49l-129 -351l8 -4l334 162l68 -217l-367 -64l-2 -8l309 -209l-151 -170l-240 285l-8 -2l-25 -373l-227 49l129 351l-8 4l-334 -162z" />
<glyph unicode="+" d="M100 485l47 226h359l76 358h225l-76 -358h359l-48 -226h-360l-76 -358h-225l76 358h-357z" />
<glyph unicode="," d="M137 -270q117 42 201.5 113t120.5 153q-74 6 -118 53.5t-44 120.5q0 94 67.5 160.5t165.5 66.5q86 0 135.5 -57t49.5 -158q0 -124 -72.5 -252.5t-192 -226.5t-255.5 -141z" />
<glyph unicode="-" d="M158 473l53 250h819l-53 -250h-819z" />
<glyph unicode="." d="M295 158q0 97 71.5 168t168.5 71q80 0 132 -51.5t52 -130.5q0 -97 -71.5 -168.5t-168.5 -71.5q-80 0 -132 52t-52 131z" />
<glyph unicode="/" d="M-51 -102l1059 1556h266l-1061 -1556h-264z" />
<glyph unicode="0" d="M94 379q0 129 37 299q73 340 215.5 498.5t386.5 158.5q194 0 289.5 -99t95.5 -304q0 -129 -37 -299q-73 -340 -216 -499t-386 -159q-194 0 -289.5 99.5t-95.5 304.5zM358 385q0 -97 36 -138.5t114 -41.5q117 0 185.5 98.5t123.5 353.5q37 167 37 271q0 95 -35.5 136.5 t-113.5 41.5q-117 0 -186 -99t-124 -354q-37 -167 -37 -268zM451 639q0 71 50.5 121.5t121.5 50.5q61 0 100 -38.5t39 -100.5q0 -71 -50 -121.5t-122 -50.5q-62 0 -100.5 39t-38.5 100z" />
<glyph unicode="1" d="M100 0l47 221h304l163 776l-276 -98l-66 160l451 252h217l-231 -1090h303l-47 -221h-865z" />
<glyph unicode="2" d="M29 0l43 201l583 512q90 79 131 137.5t41 134.5q0 57 -34.5 89t-100.5 32q-79 0 -130 -44.5t-70 -123.5l-11 -43h-262l17 76q37 171 167.5 267.5t321.5 96.5q177 0 275 -83t98 -230q0 -78 -18 -143.5t-57 -124t-87 -107.5t-121 -110l-379 -316h502l-47 -221h-862z" />
<glyph unicode="3" d="M70 291q0 41 10 96h260q-6 -27 -6 -51q0 -64 42 -97.5t122 -33.5q104 0 166.5 59.5t62.5 151.5q0 63 -46.5 97t-137.5 34h-131l47 221h127q108 0 165.5 57.5t57.5 155.5q0 58 -33.5 91.5t-95.5 33.5q-71 0 -124.5 -44t-70.5 -118h-260q38 190 163.5 290.5t313.5 100.5 q178 0 279.5 -85t101.5 -226q0 -265 -237 -354l-2 -8q147 -74 147 -242q0 -204 -144 -324.5t-372 -120.5q-195 0 -300 83.5t-105 232.5z" />
<glyph unicode="4" d="M51 311l51 242l686 758h291l-166 -779h160l-47 -221h-160l-65 -311h-258l65 311h-557zM375 532h289l94 431h-8z" />
<glyph unicode="5" d="M78 303q0 30 4 62h266v-15q0 -70 41.5 -107.5t118.5 -37.5q114 0 180 73t66 179q0 79 -41 120t-119 41q-115 0 -195 -83l-219 81l223 695h713l-47 -221h-491l-99 -304l8 -2q86 62 215 62q154 0 240 -90.5t86 -257.5q0 -226 -151 -374.5t-396 -148.5q-189 0 -296 90 t-107 238z" />
<glyph unicode="6" d="M94 348q0 199 166 406l453 557h303l-434 -510l8 -6q64 28 131 28q127 0 216 -91t89 -251q0 -212 -153 -359t-381 -147q-185 0 -291.5 101.5t-106.5 271.5zM356 362q0 -77 41 -117t119 -40q110 0 176 71t66 173q0 77 -41 117t-119 40q-110 0 -176 -71t-66 -173z" />
<glyph unicode="7" d="M23 0l817 1090h-586l47 221h895l-41 -199l-821 -1112h-311z" />
<glyph unicode="8" d="M70 299q0 143 89.5 239.5t231.5 143.5l2 6q-73 48 -115 107.5t-42 152.5q0 169 139.5 278t351.5 109q181 0 282 -83t101 -226q0 -127 -75.5 -216.5t-198.5 -139.5l-2 -6q57 -32 94.5 -65.5t63.5 -90t26 -127.5q0 -182 -150 -294t-383 -112q-200 0 -307.5 85.5 t-107.5 238.5zM342 330q0 -59 43 -92t129 -33q108 0 173 50.5t65 121.5q0 110 -164 170q-93 -18 -169.5 -75.5t-76.5 -141.5zM496 928q0 -99 131 -160q81 19 145 80.5t64 136.5q0 55 -36.5 88t-103.5 33q-90 0 -145 -55t-55 -123z" />
<glyph unicode="9" d="M188 829q0 139 69 255t192 183.5t274 67.5q185 0 291 -101t106 -271q0 -199 -166 -406l-452 -557h-303l434 510l-8 6q-66 -29 -131 -29q-127 0 -216.5 91t-89.5 251zM457 862q0 -77 40.5 -117t118.5 -40q110 0 176 70.5t66 172.5q0 77 -41 117.5t-119 40.5 q-110 0 -175.5 -71t-65.5 -173z" />
<glyph unicode=":" d="M295 158q0 97 71.5 168t168.5 71q80 0 132 -51.5t52 -130.5q0 -97 -71.5 -168.5t-168.5 -71.5q-80 0 -132 52t-52 131zM430 784q0 97 71.5 168.5t168.5 71.5q80 0 132 -51.5t52 -130.5q0 -97 -71.5 -168.5t-168.5 -71.5q-80 0 -132 51.5t-52 130.5z" />
<glyph unicode=";" d="M137 -270q117 42 201.5 113t120.5 153q-74 6 -118 53.5t-44 120.5q0 94 67.5 160.5t165.5 66.5q86 0 135.5 -57t49.5 -158q0 -124 -72.5 -252.5t-192 -226.5t-255.5 -141zM430 784q0 97 71.5 168.5t168.5 71.5q80 0 132 -51.5t52 -130.5q0 -97 -71.5 -168.5t-168.5 -71.5 q-80 0 -132 51.5t-52 130.5z" />
<glyph unicode="&#x3c;" d="M141 500l41 196l924 490l-62 -281l-620 -330l481 -329l-49 -236z" />
<glyph unicode="=" d="M76 281l49 225h901l-49 -225h-901zM164 690l47 225h901l-47 -225h-901z" />
<glyph unicode="&#x3e;" d="M82 10l61 281l621 330l-481 329l49 236l715 -490l-41 -196z" />
<glyph unicode="?" d="M264 965l12 57q37 171 153.5 262.5t295.5 91.5q169 0 264.5 -80t95.5 -225q0 -52 -15 -99t-35 -80.5t-60 -72t-70.5 -62.5t-85.5 -63q-91 -66 -118.5 -96t-34.5 -78l-4 -24h-252l14 73q19 94 61 147t166 140q50 35 70 50t47.5 41.5t37 50t9.5 53.5q0 96 -113 96 q-132 0 -172 -150l-8 -32h-258zM285 141q0 89 63 152t152 63q74 0 121 -46.5t47 -119.5q0 -89 -63 -152t-152 -63q-74 0 -121 46.5t-47 119.5z" />
<glyph unicode="@" d="M51 434q0 134 34.5 264.5t101.5 243t158 198.5t211 135.5t253 49.5q176 0 268 -86.5t92 -249.5q0 -75 -18 -160l-109 -512h-155l4 132h-8q-96 -156 -267 -156q-110 0 -170.5 63t-60.5 181q0 164 115.5 261t306.5 97h145q4 40 4 66q0 89 -43 130.5t-133 41.5 q-113 0 -211.5 -63.5t-163.5 -164.5t-102 -222t-37 -239q0 -171 78 -259.5t225 -88.5q131 0 250 72l47 -180q-137 -84 -319 -84q-238 0 -367 136.5t-129 393.5zM606 580q0 -44 26.5 -68.5t72.5 -24.5q77 0 132 59.5t76 155.5l5 23h-140q-77 0 -124.5 -41t-47.5 -104z" />
<glyph unicode="A" d="M-55 0l655 1352h307l82 -1352h-268l-6 297h-363l-131 -297h-276zM453 526h258l-11 541h-8z" />
<glyph unicode="B" d="M51 0l287 1352h424q182 0 275 -67.5t93 -199.5q0 -47 -12 -102q-46 -206 -239 -270l-2 -11q170 -64 170 -249q0 -34 -11 -88q-39 -187 -160.5 -276t-330.5 -89h-494zM367 233h178q97 0 151.5 44.5t73.5 138.5q6 30 6 57q0 57 -36 83t-115 26h-185zM489 809h136 q96 0 148 38t71 122q6 27 6 49q0 53 -37.5 76.5t-118.5 23.5h-139z" />
<glyph unicode="C" d="M119 379q0 134 37 307q75 361 219.5 525.5t386.5 164.5q383 0 383 -399q0 -51 -6 -109h-273q4 50 4 82q0 91 -34 133.5t-105 42.5q-108 0 -179.5 -105t-121.5 -347q-35 -169 -35 -266q0 -96 33.5 -139.5t103.5 -43.5q86 0 145.5 62t100.5 196h279q-77 -265 -211.5 -386.5 t-345.5 -121.5q-194 0 -287.5 99.5t-93.5 304.5z" />
<glyph unicode="D" d="M41 0l287 1352h352q226 0 338 -103t112 -323q0 -131 -32 -273q-73 -344 -234.5 -498.5t-445.5 -154.5h-377zM358 240h64q178 0 262.5 93.5t140.5 346.5q31 146 31 227q0 113 -56 159t-184 46h-73z" />
<glyph unicode="E" d="M84 0l287 1352h852l-49 -240h-588l-64 -301h463l-49 -231h-463l-72 -340h586l-51 -240h-852z" />
<glyph unicode="F" d="M100 0l287 1352h852l-49 -240h-588l-65 -315h462l-51 -240h-463l-118 -557h-267z" />
<glyph unicode="G" d="M92 399q0 123 35 287q77 368 222.5 529t385.5 161q391 0 391 -395v-31h-272q-2 92 -36 134t-109 42q-114 0 -186 -102.5t-122 -349.5q-30 -150 -30 -246q0 -105 37.5 -154t115.5 -49q101 0 166.5 78t102.5 244h-240l47 223h498l-164 -770h-166l14 188h-8 q-58 -111 -140 -162t-198 -51q-170 0 -257 106.5t-87 317.5z" />
<glyph unicode="H" d="M27 0l286 1352h267l-115 -537h348l115 537h266l-287 -1352h-266l123 575h-348l-123 -575h-266z" />
<glyph unicode="I" d="M47 0l51 240h287l184 872h-284l49 240h840l-50 -240h-288l-185 -872h287l-51 -240h-840z" />
<glyph unicode="J" d="M66 299q0 49 12 104l24 115h258l-22 -110q-6 -27 -6 -52q0 -62 35.5 -96.5t103.5 -34.5q78 0 132.5 45t72.5 131l149 711h-409l49 240h678l-207 -979q-40 -191 -165.5 -294.5t-319.5 -103.5q-182 0 -283.5 87t-101.5 237z" />
<glyph unicode="K" d="M47 0l287 1352h266l-125 -586h8l480 586h321l-559 -674l301 -678h-289l-278 645h-8l-138 -645h-266z" />
<glyph unicode="L" d="M104 0l287 1352h266l-235 -1112h582l-52 -240h-848z" />
<glyph unicode="M" d="M-6 0l287 1352h282l49 -623h9l311 623h295l-287 -1352h-231l215 999h-9l-333 -657h-95l-47 657h-8l-215 -999h-223z" />
<glyph unicode="N" d="M25 0l286 1352h260l195 -863h8l182 863h240l-287 -1352h-229l-209 936h-8l-199 -936h-239z" />
<glyph unicode="O" d="M98 379q0 141 39 319q76 356 218 517t388 161q194 0 287.5 -98.5t93.5 -306.5q0 -140 -39 -318q-76 -356 -218 -517t-388 -161q-194 0 -287.5 98.5t-93.5 305.5zM371 406q0 -95 35 -138t108 -43q110 0 178.5 103t122.5 352q37 167 37 268q0 94 -35 136t-108 42 q-110 0 -178.5 -102.5t-122.5 -351.5q-37 -167 -37 -266z" />
<glyph unicode="P" d="M72 0l286 1352h424q188 0 286.5 -81t98.5 -239q0 -63 -14 -129q-86 -403 -524 -403h-185l-106 -500h-266zM496 739h139q111 0 166.5 45t79.5 146q8 33 8 63q0 63 -40.5 91t-129.5 28h-146z" />
<glyph unicode="Q" d="M98 379q0 141 39 319q76 356 218 517t388 161q194 0 287.5 -98.5t93.5 -306.5q0 -140 -39 -318q-64 -300 -173.5 -460t-286.5 -201l-11 -55q-6 -27 -6 -50q0 -77 90 -77q124 0 150 129l4 20h223l-12 -55q-34 -154 -134.5 -236t-258.5 -82q-147 0 -228.5 68.5t-81.5 191.5 q0 36 9 80l12 58q-283 43 -283 395zM371 406q0 -95 35 -138t108 -43q110 0 178.5 103t122.5 352q37 167 37 268q0 94 -35 136t-108 42q-110 0 -178.5 -102.5t-122.5 -351.5q-37 -167 -37 -266z" />
<glyph unicode="R" d="M57 0l287 1352h424q188 0 285.5 -78.5t97.5 -231.5q0 -59 -14 -122q-61 -279 -301 -357l137 -563h-273l-122 532h-142l-112 -532h-267zM487 772h136q107 0 163.5 41.5t75.5 132.5q6 30 6 55q0 58 -40 84.5t-128 26.5h-141z" />
<glyph unicode="S" d="M78 307q0 43 8 84h264q-2 -12 -2 -37q0 -131 162 -131q104 0 165.5 53.5t61.5 139.5q0 87 -119 127l-120 39q-265 85 -265 315q0 216 134.5 347.5t357.5 131.5q178 0 280.5 -86t102.5 -235q0 -35 -6 -72h-264q2 10 2 31q0 55 -35 84.5t-98 29.5q-89 0 -142 -54t-53 -132 q0 -87 119 -127l121 -39q264 -85 264 -313q0 -223 -144.5 -355.5t-384.5 -132.5q-194 0 -301.5 88t-107.5 244z" />
<glyph unicode="T" d="M223 1112l49 240h963l-49 -240h-350l-236 -1112h-266l235 1112h-346z" />
<glyph unicode="U" d="M104 303q0 54 17 141l192 908h267l-195 -918q-8 -39 -8 -76q0 -133 151 -133q91 0 141 50.5t74 162.5l195 914h256l-197 -926q-51 -239 -168 -345t-331 -106q-193 0 -293.5 83t-100.5 245z" />
<glyph unicode="V" d="M260 1352h266l21 -934h8l416 934h278l-647 -1352h-274z" />
<glyph unicode="W" d="M92 0l111 1352h223l-84 -893h8l324 893h160l-56 -893h8l295 893h224l-463 -1352h-238l53 870h-8l-313 -870h-244z" />
<glyph unicode="X" d="M-70 0l533 707l-217 645h280l131 -418h7l301 418h305l-504 -670l229 -682h-278l-146 457h-6l-327 -457h-308z" />
<glyph unicode="Y" d="M221 1352h281l139 -465h8l332 465h305l-557 -746l-129 -606h-266l131 614z" />
<glyph unicode="Z" d="M18 0l39 186l742 926h-512l49 240h862l-39 -187l-741 -925h545l-52 -240h-893z" />
<glyph unicode="[" d="M143 -258l371 1745h649l-43 -203h-407l-285 -1339h408l-43 -203h-650z" />
<glyph unicode="\" d="M283 1454h225l432 -1556h-225z" />
<glyph unicode="]" d="M31 -258l43 203h407l285 1339h-408l43 203h650l-371 -1745h-649z" />
<glyph unicode="^" d="M129 635l516 676h197l229 -676h-233l-131 393h-9l-290 -393h-279z" />
<glyph unicode="_" d="M-53 -330l43 205h901l-43 -205h-901z" />
<glyph unicode="`" d="M434 1524h271l194 -369h-194z" />
<glyph unicode="a" d="M61 248q0 167 122.5 259.5t330.5 92.5h238l6 33q6 35 6 59q0 119 -133 119q-141 0 -193 -115h-256q97 328 477 328q183 0 276 -73t93 -214q0 -50 -10 -96l-137 -641h-238l25 154h-9q-55 -86 -137.5 -132.5t-185.5 -46.5q-130 0 -202.5 73t-72.5 200zM328 283 q0 -95 114 -95q94 0 171.5 61.5t97.5 160.5l2 10h-203q-84 0 -133 -37.5t-49 -99.5z" />
<glyph unicode="b" d="M47 0l309 1454h258l-125 -590h9q92 160 272 160q147 0 222 -96t75 -258q0 -91 -20 -181q-51 -236 -171 -375t-296 -139q-103 0 -162.5 51.5t-73.5 149.5h-8l-49 -176h-240zM393 367q0 -83 38 -122.5t104 -39.5q90 0 153 75t92 222q15 77 15 133q0 82 -32 121t-97 39 q-88 0 -153.5 -67.5t-96.5 -209.5l-8 -41q-15 -81 -15 -110z" />
<glyph unicode="c" d="M121 334q0 74 20 176q53 252 190.5 383t352.5 131q188 0 284.5 -97t96.5 -272h-268q-4 73 -38.5 106.5t-99.5 33.5q-97 0 -158 -72t-93 -225q-17 -78 -17 -138q0 -82 32 -118.5t103 -36.5q66 0 112 33.5t81 105.5h280q-133 -369 -499 -369q-186 0 -282.5 94t-96.5 265z " />
<glyph unicode="d" d="M80 332q0 88 20 178q51 236 171 375t296 139q199 0 234 -180h8l129 610h258l-309 -1454h-240l25 156h-8q-97 -181 -287 -181q-147 0 -222 97t-75 260zM352 365q0 -82 32 -121t97 -39q88 0 153.5 67.5t96.5 208.5l8 41q15 81 15 111q0 83 -38 122.5t-104 39.5 q-187 0 -245 -297q-15 -77 -15 -133z" />
<glyph unicode="e" d="M106 352q0 77 21 176q53 245 191 370.5t346 125.5q186 0 285.5 -94.5t99.5 -255.5q0 -56 -11.5 -128.5t-25.5 -115.5h-641q-6 -46 -6 -78q0 -164 159 -164q53 0 94 22t74 77h283q-142 -312 -481 -312q-188 0 -288 96.5t-100 280.5zM414 610h372q2 16 2 47 q0 81 -35.5 117.5t-109.5 36.5q-84 0 -139 -48t-90 -153z" />
<glyph unicode="f" d="M152 -451l249 1176h-229l47 221h230l40 193q36 168 145 254t277 86q159 0 244.5 -73t85.5 -200q0 -39 -4 -59h-242v14q0 88 -96 88q-62 0 -102.5 -35t-53.5 -102l-34 -166h407l-47 -221h-407l-252 -1176h-258z" />
<glyph unicode="g" d="M-63 -207q0 189 229 238l2 8q-100 46 -100 154q0 148 204 208l2 9q-112 74 -112 235q0 178 129.5 278.5t347.5 100.5q154 0 246 -53l6 2q95 194 307 194h78l-51 -241h-133q-80 0 -123 -35q43 -64 43 -164q0 -178 -129.5 -278.5t-347.5 -100.5q-62 0 -127 10 q-38 -14 -61 -41.5t-23 -60.5q0 -57 71 -57h191q193 0 277.5 -66t84.5 -205q0 -136 -74.5 -228t-201.5 -133.5t-301 -41.5q-434 0 -434 268zM209 -147q0 -55 47 -81t162 -26q266 0 266 141q0 50 -39.5 69t-140.5 19h-74q-221 0 -221 -122zM420 668q0 -113 143 -113 q88 0 138.5 40.5t50.5 111.5q0 110 -140 110q-90 0 -141 -40.5t-51 -108.5z" />
<glyph unicode="h" d="M55 0l310 1454h258l-131 -610h8q97 180 295 180q123 0 187.5 -64t64.5 -180q0 -43 -13 -110l-143 -670h-258l139 659q4 20 4 43q0 93 -104 93q-82 0 -146.5 -51.5t-85.5 -147.5l-127 -596h-258z" />
<glyph unicode="i" d="M72 0l47 221h303l119 557h-303l47 221h561l-166 -778h303l-47 -221h-864zM604 1300q0 73 53 126t127 53q64 0 104 -41t40 -105q0 -73 -53 -125.5t-127 -52.5q-64 0 -104 41t-40 104z" />
<glyph unicode="j" d="M2 -203q0 36 10 88l17 76h245l-14 -70q-4 -18 -4 -45q0 -44 24 -68t70 -24q58 0 98 36t54 101l188 887h-432l47 221h690l-241 -1134q-35 -165 -145 -252.5t-277 -87.5q-155 0 -242.5 73t-87.5 199zM754 1300q0 73 53 126t127 53q64 0 103.5 -41t39.5 -105 q0 -73 -53 -125.5t-127 -52.5q-64 0 -103.5 40.5t-39.5 104.5z" />
<glyph unicode="k" d="M74 0l309 1454h258l-182 -856h8l375 401h338l-467 -479l274 -520h-285l-258 492h-8l-104 -492h-258z" />
<glyph unicode="l" d="M227 1233l47 221h484l-238 -1116q-4 -14 -4 -43q0 -43 24.5 -66.5t69.5 -23.5q60 0 99 36t53 101l26 123h246l-30 -148q-34 -163 -145 -252.5t-281 -89.5q-154 0 -240 72.5t-86 198.5q0 38 10 90l191 897h-226z" />
<glyph unicode="m" d="M-31 0l213 999h191l-21 -139h8q71 164 209 164q149 0 158 -164h8q39 86 93.5 125t129.5 39q88 0 133.5 -49t45.5 -144q0 -48 -17 -131l-149 -700h-226l150 698q4 18 4 39q0 58 -57 58q-48 0 -83.5 -33.5t-47.5 -93.5l-142 -668h-198l149 698q4 18 4 39q0 58 -57 58 q-48 0 -83.5 -33.5t-47.5 -93.5l-141 -668h-226z" />
<glyph unicode="n" d="M55 0l213 999h238l-25 -155h8q104 180 304 180q123 0 188.5 -63.5t65.5 -180.5q0 -47 -13 -110l-143 -670h-258l139 659q4 20 4 43q0 93 -106 93q-82 0 -146 -53t-84 -144l-127 -598h-258z" />
<glyph unicode="o" d="M104 342q0 78 21 180q53 250 192 376t351 126q184 0 279 -93.5t95 -273.5q0 -83 -20 -180q-53 -250 -192 -376t-351 -126q-184 0 -279.5 93.5t-95.5 273.5zM373 360q0 -82 32 -118.5t103 -36.5q97 0 157.5 71.5t92.5 225.5q16 73 16 137q0 82 -32 119t-103 37 q-97 0 -157.5 -71.5t-92.5 -225.5q-16 -73 -16 -138z" />
<glyph unicode="p" d="M-49 -451l309 1450h240l-25 -155h8q97 180 287 180q147 0 222 -96.5t75 -259.5q0 -89 -20 -179q-51 -236 -171 -375t-296 -139q-199 0 -234 181h-8l-129 -607h-258zM393 367q0 -83 38 -122.5t104 -39.5q187 0 245 297q15 77 15 133q0 82 -32 121t-97 39 q-88 0 -153.5 -67.5t-96.5 -209.5l-8 -41q-15 -81 -15 -110z" />
<glyph unicode="q" d="M80 330q0 90 20 180q51 236 171 375t296 139q103 0 162.5 -51.5t73.5 -149.5h8l49 176h240l-309 -1450h-259l125 586h-8q-92 -160 -272 -160q-147 0 -222 96.5t-75 258.5zM352 365q0 -82 32 -121t97 -39q88 0 153.5 67.5t96.5 208.5l8 41q15 81 15 111q0 83 -38 122.5 t-104 39.5q-90 0 -153 -75t-92 -222q-15 -77 -15 -133z" />
<glyph unicode="r" d="M94 0l213 999h238l-25 -155h8q100 180 297 180q122 0 188 -63.5t66 -176.5q0 -42 -14 -114l-37 -168h-258l31 141q6 30 6 55q0 97 -105 97q-83 0 -143.5 -54.5t-79.5 -144.5l-127 -596h-258z" />
<glyph unicode="s" d="M84 242q0 37 4 55h250v-6q0 -59 36.5 -84t125.5 -25q211 0 211 125q0 37 -22.5 55t-78.5 27l-133 23q-140 24 -205 83t-65 173q0 167 125 261.5t330 94.5q173 0 268.5 -68t95.5 -186q0 -19 -4 -55h-244v14q0 45 -31 66.5t-102 21.5q-85 0 -131.5 -29.5t-46.5 -87.5 q0 -37 22 -55t78 -27l133 -22q139 -24 204 -83.5t65 -174.5q0 -175 -132.5 -269t-353.5 -94q-193 0 -296 71.5t-103 195.5z" />
<glyph unicode="t" d="M123 778l47 221h244l114 353h203l-74 -353h410l-47 -221h-410l-94 -440q-4 -24 -4 -43q0 -43 24.5 -66.5t69.5 -23.5q60 0 99 36t53 101l26 123h246l-31 -148q-34 -163 -145 -252.5t-281 -89.5q-154 0 -239.5 72.5t-85.5 198.5q0 38 10 90l94 442h-229z" />
<glyph unicode="u" d="M100 219q0 48 13 111l143 669h258l-139 -659q-4 -20 -4 -43q0 -92 106 -92q82 0 146 52.5t84 143.5l127 598h258l-213 -999h-238l25 156h-9q-105 -181 -303 -181q-123 0 -188.5 63.5t-65.5 180.5z" />
<glyph unicode="v" d="M199 999h262l67 -651h9l346 651h280l-571 -999h-244z" />
<glyph unicode="w" d="M104 0l27 999h217l-35 -661h9l272 661h170l-8 -661h8l248 661h217l-400 -999h-229l8 635h-8l-262 -635h-234z" />
<glyph unicode="x" d="M-45 0l473 524l-231 475h282l135 -280l234 280h323l-446 -495l246 -504h-283l-149 311l-260 -311h-324z" />
<glyph unicode="y" d="M-147 -244q0 38 6 78l8 47h227l-8 -45q-2 -12 -2 -26q0 -56 66 -56q32 0 57.5 19.5t54.5 72.5l92 166l-155 987h262l76 -653h8l340 653h278l-663 -1183q-94 -167 -176 -229t-205 -62q-266 0 -266 231z" />
<glyph unicode="z" d="M35 0l37 176l602 602h-443l48 221h825l-37 -176l-602 -602h473l-47 -221h-856z" />
<glyph unicode="{" d="M170 514l43 201h82q83 0 131 41.5t68 128.5q9 40 16 114q8 90 22 156q40 183 164.5 267.5t354.5 84.5h127l-43 -202h-105q-111 0 -170 -43.5t-82 -141.5q-4 -16 -18 -119q-14 -111 -23 -147q-27 -109 -81 -166t-158 -74l-2 -8q141 -34 141 -182q0 -58 -41 -193t-41 -190 q0 -61 42 -89t134 -28h109l-43 -203h-107q-391 0 -391 285q0 115 49 238q39 100 39 166q0 104 -131 104h-86z" />
<glyph unicode="|" d="M248 -522l434 2048h217l-434 -2048h-217z" />
<glyph unicode="}" d="M16 -279l43 203h105q111 0 170 43.5t82 141.5q4 17 18 118q14 113 23 148q27 109 81 165.5t158 73.5l2 9q-141 35 -141 182q0 57 41 192t41 191q0 61 -42 89t-134 28h-109l43 202h107q391 0 391 -284q0 -115 -49 -238q-39 -100 -39 -166q0 -104 131 -104h86l-43 -201h-82 q-83 0 -131 -41.5t-68 -128.5q-9 -39 -16 -115q-8 -89 -22 -155q-40 -183 -164.5 -268t-354.5 -85h-127z" />
<glyph unicode="~" d="M86 365q53 236 141.5 351t221.5 115q55 0 96.5 -20.5t65 -47t53.5 -73.5q36 -57 58.5 -79.5t57.5 -22.5q46 0 83 51t67 188h198q-53 -237 -141.5 -352t-220.5 -115q-77 0 -123.5 35.5t-91.5 106.5q-35 57 -58.5 79.5t-58.5 22.5q-46 0 -82.5 -51t-66.5 -188h-199z" />
<glyph unicode="&#xa0;" />
<glyph unicode="&#xa1;" d="M223 -352l266 856h168l-98 -856h-336zM453 809q0 89 63 152t152 63q74 0 121 -46.5t47 -119.5q0 -89 -63 -152t-152 -63q-74 0 -121 46.5t-47 119.5z" />
<glyph unicode="&#xa2;" d="M133 383q0 75 23 190q52 240 166.5 367.5t304.5 144.5l20 215h227l-71 -217q276 -39 276 -364h-268q-1 73 -31.5 106t-95.5 33h-25q-97 0 -149.5 -70t-87.5 -227q-21 -91 -21 -151q0 -73 30.5 -107.5t98.5 -34.5h19q124 0 188 140h275q-62 -174 -167.5 -264.5 t-264.5 -102.5l-21 -215h-227l71 219q-270 40 -270 338z" />
<glyph unicode="&#xa3;" d="M18 0l43 199q131 34 217.5 121t86.5 190q0 22 -7 53h-219l37 176l121 19q-21 75 -21 143q0 189 132 311.5t337 122.5q164 0 258.5 -81.5t94.5 -217.5q0 -43 -8 -82h-252q4 32 4 50q0 102 -115 102q-93 0 -138.5 -57t-45.5 -148q0 -55 16 -117h410l-47 -221h-328 q0 -120 -44.5 -201t-139.5 -133l-2 -8h254q33 0 50 13.5t23 44.5l19 81h258l-33 -153q-46 -207 -252 -207h-709z" />
<glyph unicode="&#xa4;" d="M78 285l201 186q-48 82 -48 184q0 103 48 185l-201 186l160 160l188 -205q80 41 182 41q103 0 183 -41l188 205l160 -160l-201 -186q47 -80 47 -185q0 -104 -47 -184l201 -186l-160 -160l-188 205q-80 -41 -183 -41q-102 0 -182 41l-188 -205zM453 655q0 -69 43 -112 t112 -43t112.5 43t43.5 112t-43.5 112.5t-112.5 43.5t-112 -43.5t-43 -112.5z" />
<glyph unicode="&#xa5;" d="M82 240l37 178h309l29 141h-307l38 178h289l-262 574h283l153 -375h6l308 375h311l-502 -574h287l-39 -178h-307l-29 -141h305l-37 -178h-307l-51 -240h-258l51 240h-307z" />
<glyph unicode="&#xa6;" d="M248 -522l176 829h217l-176 -829h-217zM506 696l176 830h217l-176 -830h-217z" />
<glyph unicode="&#xa7;" d="M88 8q0 21 2 31h244q0 -102 123 -102q75 0 119.5 36.5t44.5 94.5q0 89 -111 118l-168 43q-122 31 -183 93t-61 161q0 212 254 305l2 9q-69 69 -69 188q0 172 125.5 281.5t318.5 109.5q162 0 257 -77.5t95 -200.5q0 -21 -2 -31h-243q0 102 -121 102q-74 0 -120 -36.5 t-46 -94.5q0 -89 110 -118l168 -43q122 -31 183 -93t61 -161q0 -213 -254 -306l-2 -8q70 -70 70 -188q0 -172 -126 -281.5t-319 -109.5q-162 0 -257 77.5t-95 200.5zM369 559q0 -93 110 -121l162 -41q160 43 160 150q0 93 -111 121l-162 41q-159 -43 -159 -150z" />
<glyph unicode="&#xa8;" d="M395 1303q0 66 46.5 113.5t113.5 47.5q60 0 97.5 -36.5t37.5 -96.5q0 -67 -46.5 -114.5t-113.5 -47.5q-60 0 -97.5 37t-37.5 97zM805 1303q0 66 46.5 113.5t113.5 47.5q60 0 97.5 -36.5t37.5 -96.5q0 -67 -46.5 -114.5t-113.5 -47.5q-60 0 -97.5 37t-37.5 97z" />
<glyph unicode="&#xa9;" d="M94 750q0 296 140.5 461t392.5 165t392 -165t140 -461t-140 -461.5t-392 -165.5t-392.5 165.5t-140.5 461.5zM252 750q0 -233 97.5 -360.5t277.5 -127.5t277 127t97 361t-97 360.5t-277 126.5t-277.5 -127t-97.5 -360zM362 750q0 348 265 348q233 0 260 -256h-166 q-15 112 -92 112q-53 0 -77 -47.5t-24 -156.5q0 -110 24 -158.5t77 -48.5q74 0 92 114h166q-27 -256 -260 -256q-265 0 -265 349z" />
<glyph unicode="&#xaa;" d="M150 236l36 182h717l-37 -182h-716zM262 831q0 147 103 221t286 74h191l4 23q6 27 6 49q0 98 -115 98q-116 0 -155 -94h-222q66 277 402 277q158 0 237.5 -61.5t79.5 -180.5q0 -41 -8 -80l-113 -534h-204l20 131h-8q-44 -73 -116.5 -112.5t-160.5 -39.5q-105 0 -166 58.5 t-61 170.5zM492 864q0 -80 98 -80q78 0 139 49.5t78 127.5l2 10h-174q-68 0 -105.5 -28t-37.5 -79z" />
<glyph unicode="&#xab;" d="M80 420l37 174l491 385l-63 -297l-248 -199l164 -200l-53 -248zM559 420l37 174l491 385l-63 -297l-248 -199l164 -200l-53 -248z" />
<glyph unicode="&#xac;" d="M100 485l47 226h891l-125 -584h-225l76 358h-664z" />
<glyph unicode="&#xad;" d="M158 473l53 250h819l-53 -250h-819z" />
<glyph unicode="&#xae;" d="M94 750q0 296 140.5 461t392.5 165t392 -165t140 -461t-140 -461.5t-392 -165.5t-392.5 165.5t-140.5 461.5zM252 750q0 -233 97.5 -360.5t277.5 -127.5t277 127t97 361t-97 360.5t-277 126.5t-277.5 -127t-97.5 -360zM401 424v651h234q124 0 184 -47.5t60 -148.5 q0 -141 -125 -181l149 -274h-174l-133 260h-35v-260h-160zM551 803h90q82 0 82 71q0 74 -82 74h-90v-145z" />
<glyph unicode="&#xaf;" d="M412 1227l39 178h630l-39 -178h-630z" />
<glyph unicode="&#xb0;" d="M319 963q0 166 124.5 289.5t297.5 123.5q138 0 223 -81.5t85 -213.5q0 -166 -124.5 -289.5t-299.5 -123.5q-137 0 -221.5 81.5t-84.5 213.5zM524 987q0 -59 34 -94t91 -35q79 0 137 60t58 139q0 59 -34.5 94t-92.5 35q-79 0 -136 -60t-57 -139z" />
<glyph unicode="&#xb1;" d="M31 70l49 225h901l-49 -225h-901zM154 645l47 225h338l61 287h225l-61 -287h338l-47 -225h-338l-62 -287h-225l62 287h-338z" />
<glyph unicode="&#xb2;" d="M250 668l39 178l452 311q60 41 90.5 75.5t30.5 76.5q0 40 -29.5 66t-87.5 26q-60 0 -101.5 -29.5t-51.5 -83.5l-4 -20h-209l8 41q28 134 128 207t253 73q151 0 234 -67.5t83 -188.5q0 -101 -55 -173.5t-153 -133.5l-271 -168v-6h383l-41 -184h-698z" />
<glyph unicode="&#xb3;" d="M276 891q0 24 7 59h213q-2 -10 -2 -26q0 -82 139 -82q83 0 128.5 28.5t45.5 83.5q0 42 -31 63t-100 21h-133l37 174h137q64 0 102.5 27t38.5 80q0 88 -121 88q-129 0 -149 -96h-213q52 278 381 278q156 0 241.5 -61.5t85.5 -177.5q0 -158 -170 -207l-2 -6 q115 -52 115 -187q0 -141 -114 -218t-296 -77q-163 0 -251.5 62.5t-88.5 173.5z" />
<glyph unicode="&#xb4;" d="M510 1155l350 369h303l-426 -369h-227z" />
<glyph unicode="&#xb5;" d="M-45 -451l309 1450h258l-143 -677q-4 -20 -4 -39q0 -78 96 -78q78 0 134.5 55t76.5 150l125 589h258l-156 -729q-6 -24 -6 -32q0 -33 47 -33q34 0 66 14l-47 -217q-62 -27 -131 -27q-87 0 -139 39.5t-52 104.5q0 11 2 24l2 13h-8q-87 -181 -240 -181q-73 0 -114 41h-8 q-29 -153 -29 -278l-39 -189h-258z" />
<glyph unicode="&#xb6;" d="M162 868q0 218 134.5 351t373.5 133h98l-170 -801h-80q-186 0 -271 77t-85 240zM578 -246l337 1598h238l-338 -1598h-237z" />
<glyph unicode="&#xb7;" d="M381 567q0 97 71.5 168.5t168.5 71.5q80 0 132 -51.5t52 -130.5q0 -97 -71.5 -168.5t-168.5 -71.5q-80 0 -132 51.5t-52 130.5z" />
<glyph unicode="&#xb8;" d="M137 -418l64 109q64 -39 147 -39q115 0 115 69q0 27 -22.5 37.5t-82.5 10.5h-73l135 231h131l-78 -135q80 -6 123 -43.5t43 -104.5q0 -91 -75.5 -141.5t-198.5 -50.5q-143 0 -228 57z" />
<glyph unicode="&#xb9;" d="M309 668l41 184h252l103 483l-238 -92l-53 125l377 209h184l-156 -725h256l-41 -184h-725z" />
<glyph unicode="&#xba;" d="M160 236l37 182h716l-36 -182h-717zM291 913q0 65 16 150q40 200 158.5 308t300.5 108q157 0 239 -80t82 -232q0 -64 -16 -149q-40 -200 -158.5 -308t-300.5 -108q-158 0 -239.5 80t-81.5 231zM522 928q0 -127 117 -127q78 0 127.5 57.5t75.5 181.5q14 75 14 113 q0 127 -117 127q-78 0 -127 -58t-75 -182q-15 -81 -15 -112z" />
<glyph unicode="&#xbb;" d="M63 35l64 297l248 198l-164 201l53 248l328 -385l-37 -174zM543 35l63 297l248 198l-164 201l53 248l328 -385l-37 -174z" />
<glyph unicode="&#xbc;" d="M-74 160l471 403l95 -106l-445 -437zM188 1161l299 150h142l-137 -652h-170l94 455l-174 -76zM449 143l36 170l353 338h202l-77 -372h77l-28 -136h-78l-31 -143h-170l29 143h-313zM627 279h174l49 223h-6zM719 838l444 436l121 -139l-471 -404z" />
<glyph unicode="&#xbd;" d="M-74 160l471 403l95 -106l-445 -437zM188 1161l299 150h142l-137 -652h-170l94 455l-174 -76zM477 0l27 131l323 229q45 31 60.5 50t15.5 45q0 63 -76 63q-81 0 -96 -72l-4 -18h-160l8 37q22 95 91 147t180 52t169 -52.5t58 -144.5q0 -65 -33.5 -113t-109.5 -94 l-180 -110v-7h258l-29 -143h-502zM719 838l444 436l121 -139l-471 -404z" />
<glyph unicode="&#xbe;" d="M-74 160l471 403l95 -106l-445 -437zM102 819q0 13 4 45h166q-2 -6 -2 -18q0 -58 88 -58q111 0 111 86q0 58 -80 58h-98l24 112h103q94 0 94 78q0 30 -21 48t-57 18q-84 0 -102 -70h-158q20 107 88 156t187 49q109 0 170 -45t61 -121q0 -66 -29 -103.5t-92 -54.5l-2 -8 q80 -38 80 -127q0 -105 -76 -161t-211 -56q-121 0 -184.5 45.5t-63.5 126.5zM449 143l36 170l353 338h202l-77 -372h77l-28 -136h-78l-31 -143h-170l29 143h-313zM627 279h174l49 223h-6zM719 838l444 436l121 -139l-471 -404z" />
<glyph unicode="&#xbf;" d="M61 -72q0 52 15 99t35.5 80.5t60.5 72t70.5 62t85.5 63.5q91 66 118.5 96t34.5 78l4 25h252l-14 -74q-19 -94 -61 -147t-166 -140q-51 -36 -70 -50t-47 -40.5t-37.5 -50t-9.5 -53.5q0 -96 112 -96q132 0 172 149l9 33h258l-13 -58q-37 -171 -153 -262.5t-295 -91.5 q-169 0 -265 80t-96 225zM479 809q0 89 63 152t152 63q74 0 121 -46.5t47 -119.5q0 -89 -63 -152t-152 -63q-74 0 -121 46.5t-47 119.5z" />
<glyph unicode="&#xc0;" d="M-55 0l655 1352h307l82 -1352h-268l-6 297h-363l-131 -297h-276zM453 526h258l-11 541h-8zM504 1855h270l195 -368h-195z" />
<glyph unicode="&#xc1;" d="M-55 0l655 1352h307l82 -1352h-268l-6 297h-363l-131 -297h-276zM453 526h258l-11 541h-8zM580 1487l350 368h303l-426 -368h-227z" />
<glyph unicode="&#xc2;" d="M-55 0l655 1352h307l82 -1352h-268l-6 297h-363l-131 -297h-276zM395 1487l373 368h184l217 -368h-196l-133 201l-219 -201h-226zM453 526h258l-11 541h-8z" />
<glyph unicode="&#xc3;" d="M-55 0l655 1352h307l82 -1352h-268l-6 297h-363l-131 -297h-276zM430 1487q39 177 103.5 255.5t166.5 78.5q33 0 62 -10t46 -21t52 -37q63 -47 96 -47q65 0 97 133h157q-39 -177 -104 -255.5t-168 -78.5q-32 0 -60.5 10t-45.5 21t-52 37q-63 47 -96 47q-64 0 -96 -133 h-158zM453 526h258l-11 541h-8z" />
<glyph unicode="&#xc4;" d="M-55 0l655 1352h307l82 -1352h-268l-6 297h-363l-131 -297h-276zM453 526h258l-11 541h-8zM465 1634q0 67 46.5 114.5t113.5 47.5q60 0 97.5 -36.5t37.5 -96.5q0 -67 -46.5 -114.5t-113.5 -47.5q-60 0 -97.5 36.5t-37.5 96.5zM874 1634q0 67 46.5 114.5t113.5 47.5 q60 0 97.5 -36.5t37.5 -96.5q0 -67 -46 -114.5t-113 -47.5q-60 0 -98 36.5t-38 96.5z" />
<glyph unicode="&#xc5;" d="M-55 0l655 1352h307l82 -1352h-268l-6 297h-363l-131 -297h-276zM453 526h258l-11 541h-8zM586 1679q0 109 82.5 188t195.5 79q92 0 151.5 -58t59.5 -147q0 -108 -82.5 -187t-193.5 -79q-94 0 -153.5 57.5t-59.5 146.5zM737 1694q0 -34 20.5 -55t55.5 -21q45 0 78 31.5 t33 76.5q0 34 -20.5 55t-55.5 21q-45 0 -78 -31.5t-33 -76.5z" />
<glyph unicode="&#xc6;" d="M-123 0l711 1352h706l-47 -224h-309l-68 -321h228l-47 -223h-230l-76 -361h310l-47 -223h-547l63 303h-243l-152 -303h-252zM385 514h184l131 614h-8z" />
<glyph unicode="&#xc7;" d="M119 379q0 134 37 307q75 361 219.5 525.5t386.5 164.5q383 0 383 -399q0 -51 -6 -109h-273q4 50 4 82q0 91 -34 133.5t-105 42.5q-108 0 -179.5 -105t-121.5 -347q-35 -169 -35 -266q0 -96 33.5 -139.5t103.5 -43.5q86 0 145.5 62t100.5 196h279q-73 -248 -195 -370 t-307 -136l-66 -112q80 -6 123 -43.5t43 -104.5q0 -91 -75.5 -141.5t-198.5 -50.5q-142 0 -227 57l63 109q64 -39 148 -39q114 0 114 69q0 27 -22 37.5t-82 10.5h-74l123 211q-155 19 -230 117t-75 282z" />
<glyph unicode="&#xc8;" d="M84 0l287 1352h852l-49 -240h-588l-64 -301h463l-49 -231h-463l-72 -340h586l-51 -240h-852zM547 1855h270l195 -368h-195z" />
<glyph unicode="&#xc9;" d="M84 0l287 1352h852l-49 -240h-588l-64 -301h463l-49 -231h-463l-72 -340h586l-51 -240h-852zM623 1487l350 368h303l-426 -368h-227z" />
<glyph unicode="&#xca;" d="M84 0l287 1352h852l-49 -240h-588l-64 -301h463l-49 -231h-463l-72 -340h586l-51 -240h-852zM438 1487l373 368h184l217 -368h-196l-133 201l-219 -201h-226z" />
<glyph unicode="&#xcb;" d="M84 0l287 1352h852l-49 -240h-588l-64 -301h463l-49 -231h-463l-72 -340h586l-51 -240h-852zM508 1634q0 67 46.5 114.5t113.5 47.5q60 0 97.5 -36.5t37.5 -96.5q0 -67 -46.5 -114.5t-113.5 -47.5q-60 0 -97.5 36.5t-37.5 96.5zM918 1634q0 67 46 114.5t113 47.5 q60 0 97.5 -36.5t37.5 -96.5q0 -67 -46 -114.5t-113 -47.5q-60 0 -97.5 36.5t-37.5 96.5z" />
<glyph unicode="&#xcc;" d="M47 0l51 240h287l184 872h-284l49 240h840l-50 -240h-288l-185 -872h287l-51 -240h-840zM504 1855h270l195 -368h-195z" />
<glyph unicode="&#xcd;" d="M47 0l51 240h287l184 872h-284l49 240h840l-50 -240h-288l-185 -872h287l-51 -240h-840zM580 1487l350 368h303l-426 -368h-227z" />
<glyph unicode="&#xce;" d="M47 0l51 240h287l184 872h-284l49 240h840l-50 -240h-288l-185 -872h287l-51 -240h-840zM395 1487l373 368h184l217 -368h-196l-133 201l-219 -201h-226z" />
<glyph unicode="&#xcf;" d="M47 0l51 240h287l184 872h-284l49 240h840l-50 -240h-288l-185 -872h287l-51 -240h-840zM465 1634q0 67 46.5 114.5t113.5 47.5q60 0 97.5 -36.5t37.5 -96.5q0 -67 -46.5 -114.5t-113.5 -47.5q-60 0 -97.5 36.5t-37.5 96.5zM874 1634q0 67 46.5 114.5t113.5 47.5 q60 0 97.5 -36.5t37.5 -96.5q0 -67 -46 -114.5t-113 -47.5q-60 0 -98 36.5t-38 96.5z" />
<glyph unicode="&#xd0;" d="M41 0l119 557h-107l51 238h105l119 557h352q226 0 338 -103t112 -323q0 -131 -32 -273q-73 -344 -234.5 -498.5t-445.5 -154.5h-377zM358 240h64q178 0 262.5 93.5t140.5 346.5q31 146 31 227q0 113 -56 159t-184 46h-73l-68 -317h182l-51 -238h-180z" />
<glyph unicode="&#xd1;" d="M25 0l286 1352h260l195 -863h8l182 863h240l-287 -1352h-229l-209 936h-8l-199 -936h-239zM430 1487q39 177 103.5 255.5t166.5 78.5q33 0 62 -10t46 -21t52 -37q63 -47 96 -47q65 0 97 133h157q-39 -177 -104 -255.5t-168 -78.5q-32 0 -60.5 10t-45.5 21t-52 37 q-63 47 -96 47q-64 0 -96 -133h-158z" />
<glyph unicode="&#xd2;" d="M98 379q0 141 39 319q76 356 218 517t388 161q194 0 287.5 -98.5t93.5 -306.5q0 -140 -39 -318q-76 -356 -218 -517t-388 -161q-194 0 -287.5 98.5t-93.5 305.5zM371 406q0 -95 35 -138t108 -43q110 0 178.5 103t122.5 352q37 167 37 268q0 94 -35 136t-108 42 q-110 0 -178.5 -102.5t-122.5 -351.5q-37 -167 -37 -266zM504 1855h270l195 -368h-195z" />
<glyph unicode="&#xd3;" d="M98 379q0 141 39 319q76 356 218 517t388 161q194 0 287.5 -98.5t93.5 -306.5q0 -140 -39 -318q-76 -356 -218 -517t-388 -161q-194 0 -287.5 98.5t-93.5 305.5zM371 406q0 -95 35 -138t108 -43q110 0 178.5 103t122.5 352q37 167 37 268q0 94 -35 136t-108 42 q-110 0 -178.5 -102.5t-122.5 -351.5q-37 -167 -37 -266zM580 1487l350 368h303l-426 -368h-227z" />
<glyph unicode="&#xd4;" d="M98 379q0 141 39 319q76 356 218 517t388 161q194 0 287.5 -98.5t93.5 -306.5q0 -140 -39 -318q-76 -356 -218 -517t-388 -161q-194 0 -287.5 98.5t-93.5 305.5zM371 406q0 -95 35 -138t108 -43q110 0 178.5 103t122.5 352q37 167 37 268q0 94 -35 136t-108 42 q-110 0 -178.5 -102.5t-122.5 -351.5q-37 -167 -37 -266zM395 1487l373 368h184l217 -368h-196l-133 201l-219 -201h-226z" />
<glyph unicode="&#xd5;" d="M98 379q0 141 39 319q76 356 218 517t388 161q194 0 287.5 -98.5t93.5 -306.5q0 -140 -39 -318q-76 -356 -218 -517t-388 -161q-194 0 -287.5 98.5t-93.5 305.5zM371 406q0 -95 35 -138t108 -43q110 0 178.5 103t122.5 352q37 167 37 268q0 94 -35 136t-108 42 q-110 0 -178.5 -102.5t-122.5 -351.5q-37 -167 -37 -266zM430 1487q39 177 103.5 255.5t166.5 78.5q33 0 62 -10t46 -21t52 -37q63 -47 96 -47q65 0 97 133h157q-39 -177 -104 -255.5t-168 -78.5q-32 0 -60.5 10t-45.5 21t-52 37q-63 47 -96 47q-64 0 -96 -133h-158z" />
<glyph unicode="&#xd6;" d="M98 379q0 141 39 319q76 356 218 517t388 161q194 0 287.5 -98.5t93.5 -306.5q0 -140 -39 -318q-76 -356 -218 -517t-388 -161q-194 0 -287.5 98.5t-93.5 305.5zM371 406q0 -95 35 -138t108 -43q110 0 178.5 103t122.5 352q37 167 37 268q0 94 -35 136t-108 42 q-110 0 -178.5 -102.5t-122.5 -351.5q-37 -167 -37 -266zM465 1634q0 67 46.5 114.5t113.5 47.5q60 0 97.5 -36.5t37.5 -96.5q0 -67 -46.5 -114.5t-113.5 -47.5q-60 0 -97.5 36.5t-37.5 96.5zM874 1634q0 67 46.5 114.5t113.5 47.5q60 0 97.5 -36.5t37.5 -96.5 q0 -67 -46 -114.5t-113 -47.5q-60 0 -98 36.5t-38 96.5z" />
<glyph unicode="&#xd7;" d="M88 324l348 290l-225 291l180 142l221 -287l344 287l144 -175l-348 -290l225 -291l-180 -141l-222 286l-344 -286z" />
<glyph unicode="&#xd8;" d="M-39 78l150 170q-13 63 -13 131q0 141 39 319q76 356 218 517t388 161q189 0 279 -90l98 111l140 -123l-148 -168q12 -58 12 -135q0 -140 -39 -318q-76 -356 -218 -517t-388 -161q-187 0 -280 93l-99 -113zM387 567h4l438 498q-33 61 -120 61q-110 0 -178.5 -102.5 t-122.5 -351.5q-12 -56 -21 -105zM393 287q33 -62 121 -62q110 0 178.5 103t122.5 352q15 74 21 106h-5z" />
<glyph unicode="&#xd9;" d="M104 303q0 54 17 141l192 908h267l-195 -918q-8 -39 -8 -76q0 -133 151 -133q91 0 141 50.5t74 162.5l195 914h256l-197 -926q-51 -239 -168 -345t-331 -106q-193 0 -293.5 83t-100.5 245zM504 1855h270l195 -368h-195z" />
<glyph unicode="&#xda;" d="M104 303q0 54 17 141l192 908h267l-195 -918q-8 -39 -8 -76q0 -133 151 -133q91 0 141 50.5t74 162.5l195 914h256l-197 -926q-51 -239 -168 -345t-331 -106q-193 0 -293.5 83t-100.5 245zM580 1487l350 368h303l-426 -368h-227z" />
<glyph unicode="&#xdb;" d="M104 303q0 54 17 141l192 908h267l-195 -918q-8 -39 -8 -76q0 -133 151 -133q91 0 141 50.5t74 162.5l195 914h256l-197 -926q-51 -239 -168 -345t-331 -106q-193 0 -293.5 83t-100.5 245zM395 1487l373 368h184l217 -368h-196l-133 201l-219 -201h-226z" />
<glyph unicode="&#xdc;" d="M104 303q0 54 17 141l192 908h267l-195 -918q-8 -39 -8 -76q0 -133 151 -133q91 0 141 50.5t74 162.5l195 914h256l-197 -926q-51 -239 -168 -345t-331 -106q-193 0 -293.5 83t-100.5 245zM465 1634q0 67 46.5 114.5t113.5 47.5q60 0 97.5 -36.5t37.5 -96.5 q0 -67 -46.5 -114.5t-113.5 -47.5q-60 0 -97.5 36.5t-37.5 96.5zM874 1634q0 67 46.5 114.5t113.5 47.5q60 0 97.5 -36.5t37.5 -96.5q0 -67 -46 -114.5t-113 -47.5q-60 0 -98 36.5t-38 96.5z" />
<glyph unicode="&#xdd;" d="M221 1352h281l139 -465h8l332 465h305l-557 -746l-129 -606h-266l131 614zM580 1487l350 368h303l-426 -368h-227z" />
<glyph unicode="&#xde;" d="M72 0l286 1352h267l-41 -197h155q188 0 286.5 -80.5t98.5 -238.5q0 -63 -14 -129q-87 -404 -524 -404h-185l-63 -303h-266zM453 543h139q111 0 166.5 44.5t79.5 145.5q8 33 8 64q0 63 -40 90.5t-130 27.5h-144z" />
<glyph unicode="&#xdf;" d="M-57 -451l333 1569q37 175 157 268t308 93q171 0 266 -77t95 -222q0 -45 -10.5 -87.5t-24 -71.5t-39.5 -63t-42 -51t-46 -47q-34 -34 -51 -53.5t-33 -49.5t-16 -59q0 -36 19.5 -61.5t62.5 -61.5q28 -23 46.5 -41.5t40 -49t32 -70.5t10.5 -90q0 -159 -114.5 -254 t-305.5 -95q-149 0 -234 45l92 222q55 -37 146 -37q70 0 107.5 27t37.5 73q0 35 -20 62t-60 61q-30 26 -47.5 44t-40 49.5t-33 70.5t-10.5 86q0 41 9.5 78t21.5 63t36 56t39 46t44 44q39 37 57.5 58t36.5 57t18 73q0 96 -108 96q-143 0 -178 -157l-330 -1543h-272z" />
<glyph unicode="&#xe0;" d="M61 248q0 167 122.5 259.5t330.5 92.5h238l6 33q6 35 6 59q0 119 -133 119q-141 0 -193 -115h-256q97 328 477 328q183 0 276 -73t93 -214q0 -50 -10 -96l-137 -641h-238l25 154h-9q-55 -86 -137.5 -132.5t-185.5 -46.5q-130 0 -202.5 73t-72.5 200zM328 283 q0 -95 114 -95q94 0 171.5 61.5t97.5 160.5l2 10h-203q-84 0 -133 -37.5t-49 -99.5zM426 1524h270l195 -369h-195z" />
<glyph unicode="&#xe1;" d="M61 248q0 167 122.5 259.5t330.5 92.5h238l6 33q6 35 6 59q0 119 -133 119q-141 0 -193 -115h-256q97 328 477 328q183 0 276 -73t93 -214q0 -50 -10 -96l-137 -641h-238l25 154h-9q-55 -86 -137.5 -132.5t-185.5 -46.5q-130 0 -202.5 73t-72.5 200zM328 283 q0 -95 114 -95q94 0 171.5 61.5t97.5 160.5l2 10h-203q-84 0 -133 -37.5t-49 -99.5zM502 1155l350 369h303l-426 -369h-227z" />
<glyph unicode="&#xe2;" d="M61 248q0 167 122.5 259.5t330.5 92.5h238l6 33q6 35 6 59q0 119 -133 119q-141 0 -193 -115h-256q97 328 477 328q183 0 276 -73t93 -214q0 -50 -10 -96l-137 -641h-238l25 154h-9q-55 -86 -137.5 -132.5t-185.5 -46.5q-130 0 -202.5 73t-72.5 200zM317 1155l373 369 h184l218 -369h-197l-133 201l-219 -201h-226zM328 283q0 -95 114 -95q94 0 171.5 61.5t97.5 160.5l2 10h-203q-84 0 -133 -37.5t-49 -99.5z" />
<glyph unicode="&#xe3;" d="M61 248q0 167 122.5 259.5t330.5 92.5h238l6 33q6 35 6 59q0 119 -133 119q-141 0 -193 -115h-256q97 328 477 328q183 0 276 -73t93 -214q0 -50 -10 -96l-137 -641h-238l25 154h-9q-55 -86 -137.5 -132.5t-185.5 -46.5q-130 0 -202.5 73t-72.5 200zM328 283 q0 -95 114 -95q94 0 171.5 61.5t97.5 160.5l2 10h-203q-84 0 -133 -37.5t-49 -99.5zM352 1155q39 177 104 255.5t167 78.5q33 0 62 -10t45 -20.5t52 -37.5q63 -47 97 -47q64 0 96 133h158q-39 -177 -104 -255t-169 -78q-32 0 -60.5 9.5t-46 20.5t-51.5 37q-63 47 -96 47 q-64 0 -96 -133h-158z" />
<glyph unicode="&#xe4;" d="M61 248q0 167 122.5 259.5t330.5 92.5h238l6 33q6 35 6 59q0 119 -133 119q-141 0 -193 -115h-256q97 328 477 328q183 0 276 -73t93 -214q0 -50 -10 -96l-137 -641h-238l25 154h-9q-55 -86 -137.5 -132.5t-185.5 -46.5q-130 0 -202.5 73t-72.5 200zM328 283 q0 -95 114 -95q94 0 171.5 61.5t97.5 160.5l2 10h-203q-84 0 -133 -37.5t-49 -99.5zM387 1303q0 66 46.5 113.5t113.5 47.5q60 0 97.5 -36.5t37.5 -96.5q0 -67 -46.5 -114.5t-113.5 -47.5q-60 0 -97.5 37t-37.5 97zM797 1303q0 67 46 114t113 47q60 0 98 -36.5t38 -96.5 q0 -67 -46.5 -114.5t-113.5 -47.5q-60 0 -97.5 37t-37.5 97z" />
<glyph unicode="&#xe5;" d="M61 248q0 167 122.5 259.5t330.5 92.5h238l6 33q6 35 6 59q0 119 -133 119q-141 0 -193 -115h-256q97 328 477 328q183 0 276 -73t93 -214q0 -50 -10 -96l-137 -641h-238l25 154h-9q-55 -86 -137.5 -132.5t-185.5 -46.5q-130 0 -202.5 73t-72.5 200zM328 283 q0 -95 114 -95q94 0 171.5 61.5t97.5 160.5l2 10h-203q-84 0 -133 -37.5t-49 -99.5zM508 1348q0 108 82.5 187t195.5 79q92 0 151.5 -58t59.5 -147q0 -108 -82.5 -187t-193.5 -79q-94 0 -153.5 58t-59.5 147zM659 1362q0 -34 20.5 -55t55.5 -21q45 0 78 32t33 77 q0 34 -20.5 54.5t-55.5 20.5q-45 0 -78 -31.5t-33 -76.5z" />
<glyph unicode="&#xe6;" d="M-43 236q0 165 110.5 262.5t297.5 97.5h110l8 37q13 67 13 100q0 45 -19 64.5t-61 19.5q-57 0 -87.5 -32.5t-45.5 -94.5h-215q39 174 133 254t225 80q187 0 217 -154h8q93 154 262 154q246 0 246 -285q0 -129 -51 -305h-451q-16 -76 -16 -137q0 -60 21.5 -87.5 t68.5 -27.5q99 0 129 109h209q-33 -157 -121 -236.5t-219 -79.5q-185 0 -248 154h-8q-100 -154 -272 -154q-116 0 -180 68.5t-64 192.5zM182 276q0 -94 80 -94q122 0 172 226l6 26h-92q-73 0 -119.5 -42t-46.5 -116zM692 596h232q14 71 14 125q0 52 -19 74t-61 22 q-60 0 -97.5 -50t-68.5 -171z" />
<glyph unicode="&#xe7;" d="M121 334q0 74 20 176q53 252 190.5 383t352.5 131q188 0 284.5 -97t96.5 -272h-268q-4 73 -38.5 106.5t-99.5 33.5q-97 0 -158 -72t-93 -225q-17 -78 -17 -138q0 -82 32 -118.5t103 -36.5q66 0 112 33.5t81 105.5h280q-124 -342 -448 -367l-66 -112q80 -6 123 -43.5 t43 -104.5q0 -91 -75.5 -141.5t-198.5 -50.5q-142 0 -227 57l63 109q64 -39 147 -39q115 0 115 69q0 27 -22 37.5t-82 10.5h-74l123 211q-148 20 -223.5 111t-75.5 243z" />
<glyph unicode="&#xe8;" d="M106 352q0 77 21 176q53 245 191 370.5t346 125.5q186 0 285.5 -94.5t99.5 -255.5q0 -56 -11.5 -128.5t-25.5 -115.5h-641q-6 -46 -6 -78q0 -164 159 -164q53 0 94 22t74 77h283q-142 -312 -481 -312q-188 0 -288 96.5t-100 280.5zM414 610h372q2 16 2 47 q0 81 -35.5 117.5t-109.5 36.5q-84 0 -139 -48t-90 -153zM434 1524h271l194 -369h-194z" />
<glyph unicode="&#xe9;" d="M106 352q0 77 21 176q53 245 191 370.5t346 125.5q186 0 285.5 -94.5t99.5 -255.5q0 -56 -11.5 -128.5t-25.5 -115.5h-641q-6 -46 -6 -78q0 -164 159 -164q53 0 94 22t74 77h283q-142 -312 -481 -312q-188 0 -288 96.5t-100 280.5zM414 610h372q2 16 2 47 q0 81 -35.5 117.5t-109.5 36.5q-84 0 -139 -48t-90 -153zM510 1155l350 369h303l-426 -369h-227z" />
<glyph unicode="&#xea;" d="M106 352q0 77 21 176q53 245 191 370.5t346 125.5q186 0 285.5 -94.5t99.5 -255.5q0 -56 -11.5 -128.5t-25.5 -115.5h-641q-6 -46 -6 -78q0 -164 159 -164q53 0 94 22t74 77h283q-142 -312 -481 -312q-188 0 -288 96.5t-100 280.5zM326 1155l372 369h185l217 -369h-197 l-133 201l-219 -201h-225zM414 610h372q2 16 2 47q0 81 -35.5 117.5t-109.5 36.5q-84 0 -139 -48t-90 -153z" />
<glyph unicode="&#xeb;" d="M106 352q0 77 21 176q53 245 191 370.5t346 125.5q186 0 285.5 -94.5t99.5 -255.5q0 -56 -11.5 -128.5t-25.5 -115.5h-641q-6 -46 -6 -78q0 -164 159 -164q53 0 94 22t74 77h283q-142 -312 -481 -312q-188 0 -288 96.5t-100 280.5zM395 1303q0 66 46.5 113.5t113.5 47.5 q60 0 97.5 -36.5t37.5 -96.5q0 -67 -46.5 -114.5t-113.5 -47.5q-60 0 -97.5 37t-37.5 97zM414 610h372q2 16 2 47q0 81 -35.5 117.5t-109.5 36.5q-84 0 -139 -48t-90 -153zM805 1303q0 66 46.5 113.5t113.5 47.5q60 0 97.5 -36.5t37.5 -96.5q0 -67 -46.5 -114.5 t-113.5 -47.5q-60 0 -97.5 37t-37.5 97z" />
<glyph unicode="&#xec;" d="M72 0l47 221h303l119 557h-303l47 221h561l-166 -778h303l-47 -221h-864zM453 1524h270l195 -369h-195z" />
<glyph unicode="&#xed;" d="M72 0l47 221h303l119 557h-303l47 221h561l-166 -778h303l-47 -221h-864zM528 1155l351 369h303l-426 -369h-228z" />
<glyph unicode="&#xee;" d="M72 0l47 221h303l119 557h-303l47 221h561l-166 -778h303l-47 -221h-864zM344 1155l373 369h184l217 -369h-196l-134 201l-219 -201h-225z" />
<glyph unicode="&#xef;" d="M72 0l47 221h303l119 557h-303l47 221h561l-166 -778h303l-47 -221h-864zM414 1303q0 67 46 114t113 47q60 0 98 -36.5t38 -96.5q0 -67 -46.5 -114.5t-113.5 -47.5q-60 0 -97.5 37t-37.5 97zM823 1303q0 66 46.5 113.5t113.5 47.5q60 0 97.5 -36.5t37.5 -96.5 q0 -67 -46.5 -114.5t-113.5 -47.5q-60 0 -97.5 37t-37.5 97z" />
<glyph unicode="&#xf0;" d="M84 328q0 132 54 253.5t158.5 202t233.5 80.5q101 0 165 -49t83 -137l6 2q2 18 2 53q0 167 -106 309l-287 -149l-80 147l244 127q-68 55 -147 97l133 211q158 -92 254 -185l155 82l82 -145l-125 -66q133 -189 133 -422q0 -111 -26 -237q-111 -527 -549 -527 q-184 0 -283.5 90.5t-99.5 262.5zM356 360q0 -155 140 -155q110 0 177.5 91t67.5 204q0 155 -139 155q-75 0 -133 -45.5t-85.5 -111.5t-27.5 -138z" />
<glyph unicode="&#xf1;" d="M55 0l213 999h238l-25 -155h8q104 180 304 180q123 0 188.5 -63.5t65.5 -180.5q0 -47 -13 -110l-143 -670h-258l139 659q4 20 4 43q0 93 -106 93q-82 0 -146 -53t-84 -144l-127 -598h-258zM360 1155q39 177 104 255.5t167 78.5q33 0 62 -10t46 -21t52 -37q63 -47 96 -47 q64 0 96 133h158q-39 -177 -104 -255t-169 -78q-32 0 -60 9.5t-45 20.5t-52 37q-63 47 -97 47q-64 0 -96 -133h-158z" />
<glyph unicode="&#xf2;" d="M104 342q0 78 21 180q53 250 192 376t351 126q184 0 279 -93.5t95 -273.5q0 -83 -20 -180q-53 -250 -192 -376t-351 -126q-184 0 -279.5 93.5t-95.5 273.5zM373 360q0 -82 32 -118.5t103 -36.5q97 0 157.5 71.5t92.5 225.5q16 73 16 137q0 82 -32 119t-103 37 q-97 0 -157.5 -71.5t-92.5 -225.5q-16 -73 -16 -138zM434 1524h271l194 -369h-194z" />
<glyph unicode="&#xf3;" d="M104 342q0 78 21 180q53 250 192 376t351 126q184 0 279 -93.5t95 -273.5q0 -83 -20 -180q-53 -250 -192 -376t-351 -126q-184 0 -279.5 93.5t-95.5 273.5zM373 360q0 -82 32 -118.5t103 -36.5q97 0 157.5 71.5t92.5 225.5q16 73 16 137q0 82 -32 119t-103 37 q-97 0 -157.5 -71.5t-92.5 -225.5q-16 -73 -16 -138zM510 1155l350 369h303l-426 -369h-227z" />
<glyph unicode="&#xf4;" d="M104 342q0 78 21 180q53 250 192 376t351 126q184 0 279 -93.5t95 -273.5q0 -83 -20 -180q-53 -250 -192 -376t-351 -126q-184 0 -279.5 93.5t-95.5 273.5zM326 1155l372 369h185l217 -369h-197l-133 201l-219 -201h-225zM373 360q0 -82 32 -118.5t103 -36.5 q97 0 157.5 71.5t92.5 225.5q16 73 16 137q0 82 -32 119t-103 37q-97 0 -157.5 -71.5t-92.5 -225.5q-16 -73 -16 -138z" />
<glyph unicode="&#xf5;" d="M104 342q0 78 21 180q53 250 192 376t351 126q184 0 279 -93.5t95 -273.5q0 -83 -20 -180q-53 -250 -192 -376t-351 -126q-184 0 -279.5 93.5t-95.5 273.5zM360 1155q39 177 104 255.5t167 78.5q33 0 62 -10t46 -21t52 -37q63 -47 96 -47q64 0 96 133h158 q-39 -177 -104 -255t-169 -78q-32 0 -60 9.5t-45 20.5t-52 37q-63 47 -97 47q-64 0 -96 -133h-158zM373 360q0 -82 32 -118.5t103 -36.5q97 0 157.5 71.5t92.5 225.5q16 73 16 137q0 82 -32 119t-103 37q-97 0 -157.5 -71.5t-92.5 -225.5q-16 -73 -16 -138z" />
<glyph unicode="&#xf6;" d="M104 342q0 78 21 180q53 250 192 376t351 126q184 0 279 -93.5t95 -273.5q0 -83 -20 -180q-53 -250 -192 -376t-351 -126q-184 0 -279.5 93.5t-95.5 273.5zM373 360q0 -82 32 -118.5t103 -36.5q97 0 157.5 71.5t92.5 225.5q16 73 16 137q0 82 -32 119t-103 37 q-97 0 -157.5 -71.5t-92.5 -225.5q-16 -73 -16 -138zM395 1303q0 66 46.5 113.5t113.5 47.5q60 0 97.5 -36.5t37.5 -96.5q0 -67 -46.5 -114.5t-113.5 -47.5q-60 0 -97.5 37t-37.5 97zM805 1303q0 66 46.5 113.5t113.5 47.5q60 0 97.5 -36.5t37.5 -96.5q0 -67 -46.5 -114.5 t-113.5 -47.5q-60 0 -97.5 37t-37.5 97z" />
<glyph unicode="&#xf7;" d="M100 485l47 226h943l-48 -226h-942zM356 186q0 69 50 119.5t120 50.5q60 0 99 -38.5t39 -98.5q0 -69 -49.5 -119.5t-118.5 -50.5q-60 0 -100 38.5t-40 98.5zM524 977q0 69 50 119.5t120 50.5q60 0 98.5 -38.5t38.5 -98.5q0 -69 -49 -119.5t-118 -50.5q-60 0 -100 38.5 t-40 98.5z" />
<glyph unicode="&#xf8;" d="M-12 72l137 125q-21 65 -21 145q0 78 21 180q53 250 192 376t351 126q174 0 270 -84l115 104l106 -116l-137 -125q20 -61 20 -146q0 -83 -20 -180q-53 -250 -192 -376t-351 -126q-174 0 -270 84l-115 -104zM377 432h6l358 328q-32 35 -102 35q-97 0 -156.5 -71 t-93.5 -226q-9 -39 -12 -66zM406 240q32 -35 102 -35q97 0 156.5 71t93.5 226q9 40 12 65h-6z" />
<glyph unicode="&#xf9;" d="M100 219q0 48 13 111l143 669h258l-139 -659q-4 -20 -4 -43q0 -92 106 -92q82 0 146 52.5t84 143.5l127 598h258l-213 -999h-238l25 156h-9q-105 -181 -303 -181q-123 0 -188.5 63.5t-65.5 180.5zM428 1524h270l195 -369h-195z" />
<glyph unicode="&#xfa;" d="M100 219q0 48 13 111l143 669h258l-139 -659q-4 -20 -4 -43q0 -92 106 -92q82 0 146 52.5t84 143.5l127 598h258l-213 -999h-238l25 156h-9q-105 -181 -303 -181q-123 0 -188.5 63.5t-65.5 180.5zM504 1155l350 369h303l-426 -369h-227z" />
<glyph unicode="&#xfb;" d="M100 219q0 48 13 111l143 669h258l-139 -659q-4 -20 -4 -43q0 -92 106 -92q82 0 146 52.5t84 143.5l127 598h258l-213 -999h-238l25 156h-9q-105 -181 -303 -181q-123 0 -188.5 63.5t-65.5 180.5zM319 1155l373 369h185l217 -369h-197l-133 201l-219 -201h-226z" />
<glyph unicode="&#xfc;" d="M100 219q0 48 13 111l143 669h258l-139 -659q-4 -20 -4 -43q0 -92 106 -92q82 0 146 52.5t84 143.5l127 598h258l-213 -999h-238l25 156h-9q-105 -181 -303 -181q-123 0 -188.5 63.5t-65.5 180.5zM389 1303q0 66 46.5 113.5t113.5 47.5q60 0 97.5 -36.5t37.5 -96.5 q0 -67 -46.5 -114.5t-113.5 -47.5q-60 0 -97.5 37t-37.5 97zM799 1303q0 67 46 114t113 47q60 0 98 -36.5t38 -96.5q0 -67 -46.5 -114.5t-113.5 -47.5q-60 0 -97.5 37t-37.5 97z" />
<glyph unicode="&#xfd;" d="M-147 -244q0 38 6 78l8 47h227l-8 -45q-2 -12 -2 -26q0 -56 66 -56q32 0 57.5 19.5t54.5 72.5l92 166l-155 987h262l76 -653h8l340 653h278l-663 -1183q-94 -167 -176 -229t-205 -62q-266 0 -266 231zM510 1155l350 369h303l-426 -369h-227z" />
<glyph unicode="&#xfe;" d="M-49 -451l405 1905h258l-125 -590h9q92 160 272 160q147 0 222 -96.5t75 -259.5q0 -89 -20 -179q-51 -236 -171 -375t-296 -139q-199 0 -234 181h-8l-129 -607h-258zM393 369q0 -84 37 -124t102 -40q190 0 248 297q15 77 15 133q0 82 -32 121t-97 39q-88 0 -153.5 -67.5 t-96.5 -209.5l-8 -41q-15 -81 -15 -108z" />
<glyph unicode="&#xff;" d="M-147 -244q0 38 6 78l8 47h227l-8 -45q-2 -12 -2 -26q0 -56 66 -56q32 0 57.5 19.5t54.5 72.5l92 166l-155 987h262l76 -653h8l340 653h278l-663 -1183q-94 -167 -176 -229t-205 -62q-266 0 -266 231zM395 1303q0 66 46.5 113.5t113.5 47.5q60 0 97.5 -36.5t37.5 -96.5 q0 -67 -46.5 -114.5t-113.5 -47.5q-60 0 -97.5 37t-37.5 97zM805 1303q0 66 46.5 113.5t113.5 47.5q60 0 97.5 -36.5t37.5 -96.5q0 -67 -46.5 -114.5t-113.5 -47.5q-60 0 -97.5 37t-37.5 97z" />
<glyph unicode="&#x152;" d="M49 416q0 121 35 282q73 345 230 499.5t427 154.5h562l-48 -224h-348l-67 -321h266l-47 -223h-268l-76 -361h348l-47 -223h-543q-212 0 -318 102.5t-106 313.5zM293 430q0 -106 45 -155t141 -52l191 905q-136 -6 -213.5 -108.5t-130.5 -347.5q-33 -162 -33 -242z" />
<glyph unicode="&#x153;" d="M-10 264q0 115 33 258q58 268 152.5 385t250.5 117q180 0 217 -154h8q98 154 267 154q247 0 247 -287q0 -54 -8 -108t-17 -90.5t-28 -104.5h-453q-16 -73 -16 -135q0 -61 22 -89t70 -28q103 0 131 109h209q-73 -316 -346 -316q-179 0 -223 154h-8q-45 -81 -107 -117.5 t-151 -36.5q-250 0 -250 289zM207 276q0 -49 17.5 -71.5t54.5 -22.5q62 0 100.5 70t77.5 250q32 154 32 221q0 49 -17 71.5t-54 22.5q-63 0 -101 -69.5t-77 -249.5q-33 -158 -33 -222zM694 596h236q14 71 14 123q0 53 -19 75.5t-61 22.5q-64 0 -102 -51t-68 -170z" />
<glyph unicode="&#x178;" d="M221 1352h281l139 -465h8l332 465h305l-557 -746l-129 -606h-266l131 614zM465 1634q0 67 46.5 114.5t113.5 47.5q60 0 97.5 -36.5t37.5 -96.5q0 -67 -46.5 -114.5t-113.5 -47.5q-60 0 -97.5 36.5t-37.5 96.5zM874 1634q0 67 46.5 114.5t113.5 47.5q60 0 97.5 -36.5 t37.5 -96.5q0 -67 -46 -114.5t-113 -47.5q-60 0 -98 36.5t-38 96.5z" />
<glyph unicode="&#x2c6;" d="M326 1155l372 369h185l217 -369h-197l-133 201l-219 -201h-225z" />
<glyph unicode="&#x2dc;" d="M360 1155q39 177 104 255.5t167 78.5q33 0 62 -10t46 -21t52 -37q63 -47 96 -47q64 0 96 133h158q-39 -177 -104 -255t-169 -78q-32 0 -60 9.5t-45 20.5t-52 37q-63 47 -97 47q-64 0 -96 -133h-158z" />
<glyph unicode="&#x2000;" horiz-adv-x="973" />
<glyph unicode="&#x2001;" horiz-adv-x="1946" />
<glyph unicode="&#x2002;" horiz-adv-x="973" />
<glyph unicode="&#x2003;" horiz-adv-x="1946" />
<glyph unicode="&#x2004;" horiz-adv-x="648" />
<glyph unicode="&#x2005;" horiz-adv-x="486" />
<glyph unicode="&#x2006;" horiz-adv-x="324" />
<glyph unicode="&#x2007;" horiz-adv-x="324" />
<glyph unicode="&#x2008;" horiz-adv-x="243" />
<glyph unicode="&#x2009;" horiz-adv-x="389" />
<glyph unicode="&#x200a;" horiz-adv-x="108" />
<glyph unicode="&#x2010;" d="M158 473l53 250h819l-53 -250h-819z" />
<glyph unicode="&#x2011;" d="M158 473l53 250h819l-53 -250h-819z" />
<glyph unicode="&#x2012;" d="M158 473l53 250h819l-53 -250h-819z" />
<glyph unicode="&#x2013;" d="M123 496l43 204h901l-43 -204h-901z" />
<glyph unicode="&#x2014;" d="M0 496l43 204h1147l-43 -204h-1147z" />
<glyph unicode="&#x2018;" d="M436 780q0 119 67.5 244t179.5 221t239 135l55 -161q-113 -42 -193.5 -115t-111.5 -158q74 -6 115.5 -49t41.5 -113q0 -89 -63 -149t-154 -60q-84 0 -130 53.5t-46 151.5z" />
<glyph unicode="&#x2019;" d="M373 733q113 42 193.5 115t111.5 158q-75 6 -116.5 49t-41.5 112q0 89 63 149t154 60q84 0 130 -53.5t46 -151.5q0 -182 -145.5 -361t-339.5 -239z" />
<glyph unicode="&#x201a;" d="M158 -276q113 42 193.5 114.5t111.5 157.5q-75 6 -116.5 49.5t-41.5 112.5q0 89 63 149t154 60q84 0 130 -53.5t46 -151.5q0 -182 -145.5 -361t-339.5 -239z" />
<glyph unicode="&#x201c;" d="M176 780q0 119 67.5 244t179.5 221t239 135l55 -161q-113 -42 -193.5 -115t-111.5 -158q74 -6 115.5 -49t41.5 -113q0 -89 -63 -149t-154 -60q-84 0 -130 53.5t-46 151.5zM692 780q0 119 67.5 244t179.5 221t239 135l55 -161q-113 -42 -193.5 -115t-111.5 -158 q74 -6 115.5 -49t41.5 -113q0 -89 -63 -149t-154 -60q-84 0 -130 53.5t-46 151.5z" />
<glyph unicode="&#x201d;" d="M115 733q113 42 193.5 115t111.5 158q-75 6 -116.5 49t-41.5 112q0 89 63 149t154 60q84 0 130 -53.5t46 -151.5q0 -182 -145.5 -361t-339.5 -239zM631 733q113 42 193.5 115t111.5 158q-75 6 -116.5 49t-41.5 112q0 89 63 149t154 60q84 0 130 -53.5t46 -151.5 q0 -182 -145.5 -361t-339.5 -239z" />
<glyph unicode="&#x201e;" d="M-100 -276q113 42 193.5 114.5t111.5 157.5q-75 6 -116.5 49.5t-41.5 112.5q0 89 63 149t154 60q84 0 130 -53.5t46 -151.5q0 -182 -145.5 -361t-339.5 -239zM416 -276q113 42 193.5 114.5t111.5 157.5q-75 6 -116.5 49.5t-41.5 112.5q0 89 63 149t154 60q84 0 130 -53.5 t46 -151.5q0 -182 -145.5 -361t-339.5 -239z" />
<glyph unicode="&#x2022;" d="M297 627q0 146 106 253t256 107q120 0 193.5 -72.5t73.5 -189.5q0 -146 -106.5 -253t-256.5 -107q-120 0 -193 72t-73 190z" />
<glyph unicode="&#x2026;" d="M-41 113q0 71 49 120.5t119 49.5q60 0 97.5 -38.5t37.5 -99.5q0 -71 -49 -120.5t-119 -49.5q-60 0 -97.5 38.5t-37.5 99.5zM342 113q0 71 49 120.5t119 49.5q61 0 99 -38t38 -100q0 -71 -49 -120.5t-119 -49.5q-61 0 -99 38t-38 100zM727 113q0 71 49 120.5t119 49.5 q60 0 97.5 -38.5t37.5 -99.5q0 -71 -49 -120.5t-119 -49.5q-60 0 -97.5 38.5t-37.5 99.5z" />
<glyph unicode="&#x202f;" horiz-adv-x="389" />
<glyph unicode="&#x2039;" d="M279 420l36 174l574 385l-62 -293l-284 -201l198 -198l-53 -252z" />
<glyph unicode="&#x203a;" d="M262 35l62 293l284 200l-198 199l53 252l409 -385l-36 -174z" />
<glyph unicode="&#x205f;" horiz-adv-x="486" />
<glyph unicode="&#x20ac;" d="M63 434l78 158h74q14 84 29 135h-119l80 158h82q78 235 203 342.5t307 107.5q355 0 358 -385h-256q0 83 -30 119.5t-99 36.5q-76 0 -129 -49.5t-94 -171.5h295l-33 -158h-305q-13 -47 -29 -135h305l-35 -158h-294q-5 -50 -5 -74q0 -84 30 -119.5t97 -35.5 q70 0 117.5 37.5t83.5 117.5h256q-77 -204 -196.5 -294.5t-288.5 -90.5q-179 0 -265.5 95.5t-86.5 291.5q0 47 2 72h-132z" />
<glyph unicode="&#x2122;" d="M158 1239l22 113h453l-23 -113h-161l-103 -487h-129l102 487h-161zM565 752l127 600h168l29 -275h8l143 275h174l-127 -600h-124l96 436h-8l-158 -293h-70l-32 293h-9l-96 -436h-121z" />
<glyph unicode="&#x25fc;" horiz-adv-x="1003" d="M0 0v1004h1004v-1004h-1004z" />
<glyph unicode="&#xfb01;" d="M-39 -451l250 1176h-164l47 221h164l41 193q36 168 145 254t277 86q159 0 244.5 -73t85.5 -200q0 -39 -4 -59h-242v14q0 88 -96 88q-62 0 -102.5 -35t-53.5 -102l-35 -166h559l-153 -725h163l-47 -221h-585l47 221h164l106 504h-301l-252 -1176h-258z" />
<glyph unicode="&#xfb02;" d="M-39 -451l250 1176h-164l47 221h164l37 170q35 167 146.5 252.5t293.5 85.5h451l-234 -1096q-6 -30 -6 -49q0 -43 24 -65.5t68 -22.5h49l-47 -221h-39q-151 0 -234 72t-83 196q0 37 10 92l187 873h-181q-59 0 -98.5 -35.5t-52.5 -101.5l-33 -150h164l-47 -221h-164 l-250 -1176h-258z" />
</font>
</defs>
</svg>
