<?xml version="1.0" standalone="no"?>
<!DOCTYPE svg PUBLIC "-//W3C//DTD SVG 1.1//EN" "http://www.w3.org/Graphics/SVG/1.1/DTD/svg11.dtd" >
<svg xmlns="http://www.w3.org/2000/svg" xmlns:xlink="http://www.w3.org/1999/xlink" version="1.1">
<metadata></metadata>
<defs>
<font id="calling_codeitalic" horiz-adv-x="1146" >
<font-face units-per-em="2048" ascent="1526" descent="-522" />
<missing-glyph horiz-adv-x="500" />
<glyph horiz-adv-x="0" />
<glyph horiz-adv-x="682" />
<glyph unicode="&#xd;" />
<glyph unicode=" " />
<glyph unicode="!" d="M340 106q0 72 52 124.5t124 52.5q60 0 96.5 -36t36.5 -95q0 -72 -52 -124.5t-124 -52.5q-60 0 -96.5 36t-36.5 95zM522 483l125 869h217l-248 -869h-94z" />
<glyph unicode="&#x22;" d="M330 647l110 705h201l-192 -705h-119zM760 647l110 705h201l-192 -705h-119z" />
<glyph unicode="#" d="M20 344l43 121h218l135 381h-213l41 121h215l123 344h131l-123 -344h256l123 344h131l-123 -344h215l-43 -121h-215l-135 -381h213l-43 -121h-213l-123 -344h-131l123 344h-256l-123 -344h-131l123 344h-218zM412 465h256l135 381h-256z" />
<glyph unicode="$" d="M127 311q0 42 4 62h164q-2 -12 -2 -35q0 -65 43 -102.5t123 -45.5l86 404l-27 8q-127 39 -185.5 104t-58.5 175q0 164 113 271t297 116l29 217h139l-61 -219q125 -15 191.5 -84.5t66.5 -180.5q0 -26 -2 -40h-164v18q0 121 -127 139l-86 -397l49 -14q127 -39 185.5 -104 t58.5 -177q0 -167 -118.5 -269.5t-314.5 -113.5l-30 -217h-140l62 217q-142 13 -218.5 82.5t-76.5 185.5zM438 901q0 -57 31.5 -91t108.5 -60l79 370q-101 -13 -160 -72.5t-59 -146.5zM557 190q110 12 176 70t66 148q0 63 -36.5 96t-125.5 61z" />
<glyph unicode="%" d="M-59 139l452 385l64 -69l-424 -416zM121 868q0 53 16 131q35 165 115.5 244.5t216.5 79.5q229 0 229 -221q0 -53 -16 -131q-35 -165 -115.5 -244.5t-216.5 -79.5q-229 0 -229 221zM256 885q0 -115 106 -115q74 0 119 51.5t70 165.5q12 55 12 98q0 115 -106 115 q-74 0 -119 -51.5t-70 -165.5q-12 -55 -12 -98zM514 209q0 53 16 131q35 165 115.5 244.5t216.5 79.5q114 0 172 -56.5t58 -165.5q0 -48 -17 -131q-35 -165 -115.5 -244t-216.5 -79q-229 0 -229 221zM649 225q0 -114 107 -114q74 0 118.5 51.5t69.5 165.5q12 56 12 98 q0 115 -106 115q-74 0 -118.5 -51.5t-69.5 -165.5q-13 -60 -13 -99zM754 842l424 415l92 -100l-453 -385z" />
<glyph unicode="&#x26;" d="M45 274q0 271 326 465q-78 150 -78 267q0 156 110.5 263t272.5 107q124 0 197 -65t73 -178q0 -133 -102.5 -237.5t-282.5 -190.5l201 -328h4q69 126 106 301h152q-52 -248 -184 -428l151 -250h-180l-76 127q-152 -152 -362 -152q-154 0 -241 79.5t-87 219.5zM215 297 q0 -87 48 -131.5t138 -44.5q147 0 265 121l-232 389q-104 -69 -161.5 -154.5t-57.5 -179.5zM451 997q0 -82 49 -186q68 36 114 65t89 66t64 79t21 89q0 59 -33 90t-96 31q-92 0 -150 -64.5t-58 -169.5z" />
<glyph unicode="'" d="M545 647l110 705h201l-192 -705h-119z" />
<glyph unicode="(" d="M264 381q0 199 64 387.5t177 340t277.5 261.5t356.5 154l-33 -150q-154 -46 -284 -147t-217 -234.5t-135 -292t-48 -321.5q0 -203 91 -344.5t265 -204.5l-24 -125q-233 63 -361.5 241t-128.5 435z" />
<glyph unicode=")" d="M57 -295l33 150q154 46 284 147t217 234.5t135 292t48 321.5q0 203 -91 344.5t-265 204.5l24 125q233 -63 361.5 -241t128.5 -435q0 -199 -64 -387.5t-177 -340t-277.5 -261.5t-356.5 -154z" />
<glyph unicode="*" d="M113 573l389 84l2 7l-322 233l117 133l266 -295l10 2l41 396l172 -37l-120 -379l6 -6l362 161l56 -167l-390 -84l-2 -7l322 -233l-117 -133l-266 295l-10 -2l-41 -396l-172 37l121 379l-7 6l-362 -161z" />
<glyph unicode="+" d="M125 524l31 148h381l79 381h148l-80 -381h381l-31 -148h-383l-80 -381h-147l80 381h-379z" />
<glyph unicode="," d="M170 -334q137 58 217.5 138.5t114.5 191.5q-16 -4 -39 -4q-59 0 -96 36.5t-37 98.5q0 77 54.5 130.5t133.5 53.5q70 0 108 -46t38 -136q0 -178 -133.5 -338.5t-325.5 -226.5z" />
<glyph unicode="-" d="M168 518l33 160h819l-33 -160h-819z" />
<glyph unicode="." d="M326 119q0 78 58 135t138 57q65 0 106.5 -39.5t41.5 -103.5q0 -78 -58.5 -135.5t-138.5 -57.5q-65 0 -106 40t-41 104z" />
<glyph unicode="/" d="M-10 -102l1067 1556h174l-1065 -1556h-176z" />
<glyph unicode="0" d="M106 371q0 129 37 299q73 341 215 503t381 162q186 0 277.5 -97t91.5 -298q0 -129 -37 -299q-73 -341 -215.5 -503.5t-380.5 -162.5q-186 0 -277.5 97.5t-91.5 298.5zM272 387q0 -136 54 -200t168 -64q157 0 256.5 130t158.5 406q33 149 33 265q0 136 -53.5 200 t-167.5 64q-157 0 -257 -130.5t-159 -406.5q-33 -149 -33 -264zM469 637q0 63 46 109.5t110 46.5q53 0 86.5 -33.5t33.5 -85.5q0 -63 -45.5 -109.5t-109.5 -46.5q-53 0 -87 33.5t-34 85.5z" />
<glyph unicode="1" d="M94 0l31 141h344l201 955l-326 -131l-47 100l455 246h125l-248 -1170h344l-31 -141h-848z" />
<glyph unicode="2" d="M41 0l27 123l628 536q59 50 93 83t68.5 77t49.5 89t15 98q0 85 -53 133.5t-154 48.5q-119 0 -201 -68t-108 -190l-7 -29h-163l14 66q35 168 166 268t317 100q168 0 261 -83.5t93 -229.5q0 -77 -19 -141.5t-60 -124t-90 -109t-125 -112.5l-471 -394h589l-30 -141h-840z " />
<glyph unicode="3" d="M76 279q0 29 6 67h162q-4 -23 -4 -41q0 -88 62.5 -135t176.5 -47q149 0 241.5 81.5t92.5 213.5q0 86 -66 132t-196 46h-105l31 141h101q154 0 238.5 69t84.5 200q0 85 -53.5 133.5t-153.5 48.5q-109 0 -187 -59t-106 -162h-161q35 173 162 270.5t309 97.5 q167 0 262.5 -81.5t95.5 -217.5q0 -275 -248 -362l-2 -8q158 -71 158 -240q0 -205 -142 -328t-366 -123q-185 0 -289 82t-104 222z" />
<glyph unicode="4" d="M70 330l34 159l775 822h161l-178 -840h185l-31 -141h-185l-69 -330h-160l70 330h-602zM276 471h426l123 582h-8z" />
<glyph unicode="5" d="M96 305v31h166v-12q0 -95 61 -148t169 -53q155 0 253.5 101.5t98.5 244.5q0 107 -60.5 165t-171.5 58q-161 0 -284 -108v6l-2 -4l-123 47l217 678h674l-29 -142h-537l-129 -407l9 -4q112 80 264 80q162 0 252 -88.5t90 -253.5q0 -145 -67 -263.5t-190.5 -188 t-281.5 -69.5q-178 0 -278.5 88.5t-100.5 241.5z" />
<glyph unicode="6" d="M104 334q0 117 50 218t151 224l440 535h187l-449 -549l6 -6q91 57 209 57q142 0 226 -90.5t84 -243.5q0 -102 -40 -194.5t-108.5 -160.5t-166.5 -108.5t-208 -40.5q-177 0 -279 98t-102 261zM270 342q0 -103 60.5 -161t167.5 -58q147 0 244.5 99.5t97.5 236.5 q0 102 -60 159.5t-168 57.5q-148 0 -245 -98.5t-97 -235.5z" />
<glyph unicode="7" d="M90 0l864 1169h-671l28 142h865l-27 -127l-862 -1184h-197z" />
<glyph unicode="8" d="M74 281q0 144 93 245.5t239 149.5l2 6q-168 86 -168 256q0 169 143 283t358 114q171 0 268 -77.5t97 -215.5q0 -129 -82.5 -223t-206.5 -143l-2 -6q199 -86 199 -281q0 -184 -152 -299t-391 -115q-190 0 -293.5 79t-103.5 227zM242 301q0 -87 63.5 -132.5t181.5 -45.5 q159 0 261 75.5t102 182.5q0 48 -22 86.5t-59.5 63.5t-79.5 41t-91 24q-90 -10 -169.5 -47.5t-133 -103t-53.5 -144.5zM403 938q0 -44 19.5 -80t52.5 -59.5t68.5 -38.5t74.5 -23q124 16 222 95.5t98 187.5q0 79 -57 123.5t-158 44.5q-140 0 -230 -75.5t-90 -174.5z" />
<glyph unicode="9" d="M205 831q0 102 39.5 194.5t108 160.5t166.5 108.5t208 40.5q177 0 279 -97.5t102 -260.5q0 -117 -50 -218t-151 -224l-440 -535h-186l448 549l-6 6q-91 -57 -209 -57q-142 0 -225.5 90t-83.5 243zM373 852q0 -102 59.5 -159.5t167.5 -57.5q148 0 245 98.5t97 235.5 q0 103 -60 161t-167 58q-147 0 -244.5 -99.5t-97.5 -236.5z" />
<glyph unicode=":" d="M326 119q0 78 58 135t138 57q65 0 106.5 -39.5t41.5 -103.5q0 -78 -58.5 -135.5t-138.5 -57.5q-65 0 -106 40t-41 104zM477 831q0 78 58.5 135.5t138.5 57.5q65 0 106 -39.5t41 -103.5q0 -78 -58.5 -135.5t-137.5 -57.5q-65 0 -106.5 39.5t-41.5 103.5z" />
<glyph unicode=";" d="M170 -334q137 58 217.5 138.5t114.5 191.5q-16 -4 -39 -4q-59 0 -96 36.5t-37 98.5q0 77 54.5 130.5t133.5 53.5q70 0 108 -46t38 -136q0 -178 -133.5 -338.5t-325.5 -226.5zM477 831q0 78 58.5 135.5t138.5 57.5q65 0 106 -39.5t41 -103.5q0 -78 -58.5 -135.5 t-137.5 -57.5q-65 0 -106.5 39.5t-41.5 103.5z" />
<glyph unicode="&#x3c;" d="M170 530l29 136l891 489l-39 -188l-703 -385l539 -385l-35 -156z" />
<glyph unicode="=" d="M104 334l31 147h869l-31 -147h-869zM184 715l33 147h868l-32 -147h-869z" />
<glyph unicode="&#x3e;" d="M98 41l39 188l703 385l-539 385l35 156l682 -489l-29 -136z" />
<glyph unicode="?" d="M283 987l8 39q35 170 148 260t292 90q163 0 253.5 -74t90.5 -210q0 -64 -19.5 -119t-60 -103t-83.5 -84.5t-109 -83.5q-114 -81 -145.5 -111t-43.5 -75l-8 -33h-160l13 56q18 78 62.5 131.5t170.5 140.5q44 30 65 45.5t51.5 39.5t44 40.5t28.5 39t20.5 46t5.5 51.5 q0 156 -184 156q-227 0 -277 -223l-4 -19h-159zM309 106q0 72 52 124.5t124 52.5q60 0 96.5 -36t36.5 -95q0 -72 -52 -124.5t-124 -52.5q-60 0 -96.5 36t-36.5 95z" />
<glyph unicode="@" d="M76 422q0 168 53.5 329.5t148 289t236.5 206t305 78.5q164 0 250 -79.5t86 -233.5q0 -66 -20 -168l-109 -510h-106l6 141h-8q-103 -166 -281 -166q-102 0 -160.5 60.5t-58.5 171.5q0 161 115.5 260.5t297.5 99.5h164q9 47 9 84q0 199 -207 199q-100 0 -191.5 -45 t-159 -121t-118 -173t-76 -204t-25.5 -211q0 -189 85.5 -287t246.5 -98q125 0 234 61l36 -131q-125 -71 -288 -71q-224 0 -344.5 133t-120.5 385zM571 565q0 -56 31.5 -85t89.5 -29q94 0 169.5 76t101.5 204l8 39h-162q-102 0 -170 -59.5t-68 -145.5z" />
<glyph unicode="A" d="M-31 0l690 1352h193l113 -1352h-164l-27 356h-455l-176 -356h-174zM393 504h371l-47 635h-8z" />
<glyph unicode="B" d="M74 0l286 1352h392q350 0 350 -256q0 -48 -12 -103q-47 -209 -232 -276l-2 -10q172 -59 172 -240q0 -47 -12 -102q-40 -185 -157.5 -275t-321.5 -90h-463zM268 147h275q132 0 205.5 58t101.5 184q10 48 10 82q0 79 -52 116.5t-159 37.5h-278zM401 772h217q134 0 208 55 t98 166q8 40 8 68q0 143 -217 143h-221z" />
<glyph unicode="C" d="M133 371q0 125 39 311q76 362 221 528t379 166q186 0 276.5 -100.5t90.5 -302.5q0 -42 -2 -62h-168q2 29 2 52q0 260 -215 260q-151 0 -254 -133t-162 -416q-35 -169 -35 -277q0 -137 51.5 -202.5t157.5 -65.5q233 0 346 311h176q-82 -241 -211.5 -353t-324.5 -112 q-367 0 -367 396z" />
<glyph unicode="D" d="M61 0l287 1352h311q231 0 341 -100.5t110 -315.5q0 -125 -33 -274q-75 -355 -239 -508.5t-447 -153.5h-330zM256 147h137q218 0 336.5 121t181.5 412q31 146 31 238q0 155 -75.5 220.5t-239.5 65.5h-146z" />
<glyph unicode="E" d="M119 0l287 1352h806l-30 -148h-643l-93 -432h521l-31 -147h-520l-103 -478h643l-30 -147h-807z" />
<glyph unicode="F" d="M129 0l287 1352h807l-31 -148h-643l-94 -442h520l-31 -148h-520l-131 -614h-164z" />
<glyph unicode="G" d="M109 383q0 136 36 299q77 361 221 527.5t382 166.5q186 0 277 -97t91 -292v-6h-170q-4 124 -56 183t-155 59q-158 0 -260.5 -134t-161.5 -415q-32 -147 -32 -271q0 -139 52.5 -206.5t160.5 -67.5q139 0 238 110.5t153 329.5h-305l30 144h465l-151 -713h-101l19 217h-8 q-142 -242 -394 -242q-162 0 -246.5 104t-84.5 304z" />
<glyph unicode="H" d="M45 0l287 1352h164l-123 -580h516l123 580h164l-287 -1352h-164l133 625h-516l-133 -625h-164z" />
<glyph unicode="I" d="M57 0l31 147h328l225 1057h-328l31 148h819l-30 -148h-328l-225 -1057h327l-30 -147h-820z" />
<glyph unicode="J" d="M80 287q0 50 14 125l17 80h159l-14 -70q-12 -58 -12 -105q0 -188 200 -188q252 0 314 287l168 788h-463l31 148h626l-205 -965q-43 -201 -165.5 -306.5t-313.5 -105.5q-170 0 -263 82t-93 230z" />
<glyph unicode="K" d="M90 0l287 1352h164l-133 -629h8l612 629h215l-655 -666l395 -686h-188l-387 674h-11l-143 -674h-164z" />
<glyph unicode="L" d="M133 0l287 1352h164l-256 -1205h639l-31 -147h-803z" />
<glyph unicode="M" d="M25 0l286 1352h185l90 -742h8l410 742h192l-287 -1352h-147l229 1073h-8l-403 -731h-84l-90 731h-9l-229 -1073h-143z" />
<glyph unicode="N" d="M45 0l287 1352h176l287 -1012h8l215 1012h158l-287 -1352h-148l-303 1071h-8l-227 -1071h-158z" />
<glyph unicode="O" d="M109 373q0 133 38 317q74 360 219.5 523t381.5 163q184 0 275 -98t91 -299q0 -128 -39 -317q-74 -360 -219 -523.5t-381 -163.5q-184 0 -275 98t-91 300zM279 395q0 -136 53 -201t162 -65q156 0 256 134.5t159 416.5q35 166 35 276q0 136 -53 201.5t-162 65.5 q-157 0 -257 -135t-159 -416q-34 -161 -34 -277z" />
<glyph unicode="P" d="M98 0l287 1352h420q166 0 258 -75t92 -212q0 -45 -14 -117q-81 -375 -479 -375h-279l-121 -573h-164zM416 721h243q261 0 314 246q8 36 8 73q0 83 -52.5 123.5t-162.5 40.5h-248z" />
<glyph unicode="Q" d="M109 373q0 133 38 317q74 360 219.5 523t381.5 163q184 0 275 -98t91 -299q0 -128 -39 -317q-65 -320 -187 -483.5t-313 -194.5l-12 -62q-8 -36 -8 -65q0 -123 133 -123q85 0 140.5 48t74.5 140l2 10h156l-6 -28q-34 -156 -131 -237t-248 -81q-137 0 -210 63.5t-73 178.5 q0 35 10 90l13 59q-307 30 -307 396zM279 395q0 -136 53 -201t162 -65q156 0 256 134.5t159 416.5q35 166 35 276q0 136 -53 201.5t-162 65.5q-157 0 -257 -135t-159 -416q-34 -161 -34 -277z" />
<glyph unicode="R" d="M86 0l287 1352h415q349 0 349 -275q0 -55 -15 -119q-34 -153 -119 -240.5t-229 -113.5l170 -604h-170l-166 594h-231l-127 -594h-164zM408 741h235q136 0 209.5 56t101.5 180q11 53 11 76q0 77 -54.5 114t-165.5 37h-239z" />
<glyph unicode="S" d="M92 287q0 23 4 63h166q-2 -12 -2 -35q0 -91 58.5 -138.5t168.5 -47.5q149 0 240.5 81.5t91.5 211.5q0 61 -38.5 101.5t-123.5 64.5l-131 37q-266 75 -266 299q0 202 129.5 327t341.5 125q167 0 263 -80t96 -215q0 -22 -5 -57h-165q2 10 2 33q0 81 -51 123.5t-146 42.5 q-134 0 -214.5 -79t-80.5 -200q0 -64 39.5 -104t122.5 -64l131 -37q264 -73 264 -303q0 -210 -139 -335.5t-369 -125.5q-184 0 -285.5 82.5t-101.5 229.5z" />
<glyph unicode="T" d="M252 1204l31 148h942l-31 -148h-389l-256 -1204h-164l256 1204h-389z" />
<glyph unicode="U" d="M117 287q0 59 16 137l197 928h164l-195 -918q-14 -75 -14 -117q0 -96 52.5 -142t158.5 -46q139 0 217 73.5t112 233.5l195 916h158l-201 -944q-48 -224 -164.5 -328.5t-325.5 -104.5q-183 0 -276.5 79t-93.5 233z" />
<glyph unicode="V" d="M283 1352h163l64 -1102h10l533 1102h172l-666 -1352h-186z" />
<glyph unicode="W" d="M123 0l102 1352h148l-94 -1055h8l401 1055h131l-45 -1055h8l353 1055h147l-471 -1352h-172l41 979h-8l-371 -979h-178z" />
<glyph unicode="X" d="M-20 0l536 702l-223 650h172l172 -514h6l383 514h197l-510 -666l237 -686h-174l-184 553h-6l-412 -553h-194z" />
<glyph unicode="Y" d="M268 1352h172l183 -555h8l411 555h197l-557 -729l-133 -623h-164l133 618z" />
<glyph unicode="Z" d="M35 0l26 123l871 1081h-610l30 148h832l-25 -123l-870 -1082h639l-31 -147h-862z" />
<glyph unicode="[" d="M174 -258l371 1745h604l-27 -125h-448l-318 -1495h449l-27 -125h-604z" />
<glyph unicode="\" d="M324 1454h149l426 -1556h-149z" />
<glyph unicode="]" d="M45 -258l27 125h448l318 1495h-449l27 125h604l-371 -1745h-604z" />
<glyph unicode="^" d="M147 635l531 676h135l244 -676h-156l-176 493h-8l-385 -493h-185z" />
<glyph unicode="_" d="M-45 -295l29 135h901l-29 -135h-901z" />
<glyph unicode="`" d="M496 1524h194l172 -324h-151z" />
<glyph unicode="a" d="M80 240q0 164 118.5 247.5t323.5 83.5h291l16 78q9 40 9 70q0 158 -195 158q-201 0 -268 -150h-162q97 297 446 297q170 0 257.5 -68.5t87.5 -199.5q0 -45 -13 -105l-139 -651h-139l26 166h-8q-65 -90 -162 -140.5t-211 -50.5q-133 0 -205.5 68.5t-72.5 196.5zM244 252 q0 -62 40 -95.5t119 -33.5q134 0 242.5 85t134.5 208l4 18h-278q-119 0 -190.5 -47.5t-71.5 -134.5z" />
<glyph unicode="b" d="M63 0l310 1454h159l-129 -610h9q116 180 321 180q153 0 235.5 -94.5t82.5 -255.5q0 -77 -21 -180q-52 -251 -182 -385t-313 -134q-115 0 -184.5 52t-88.5 149h-8l-49 -176h-142zM311 358q0 -113 55.5 -174t155.5 -61q124 0 216 97.5t128 281.5q17 93 17 147 q0 111 -49.5 169.5t-145.5 58.5q-126 0 -221.5 -95.5t-130.5 -259.5l-10 -45q-15 -73 -15 -119z" />
<glyph unicode="c" d="M147 326q0 81 21 180q54 255 188.5 386.5t341.5 131.5q171 0 261 -86.5t96 -247.5h-166q-7 92 -59.5 139.5t-145.5 47.5q-133 0 -222.5 -96.5t-129.5 -282.5q-19 -90 -19 -152q0 -110 51.5 -166.5t151.5 -56.5q188 0 283 188h176q-66 -166 -187 -251t-288 -85 q-173 0 -263 90t-90 261z" />
<glyph unicode="d" d="M96 326q0 77 21 180q52 251 181.5 384.5t313.5 133.5q111 0 180 -49.5t91 -140.5h6l131 620h160l-310 -1454h-141l27 166h-8q-115 -191 -334 -191q-152 0 -235 95t-83 256zM264 350q0 -111 49.5 -169t145.5 -58q126 0 221.5 95t130.5 259l10 45q15 68 15 119 q0 113 -55.5 174.5t-155.5 61.5q-124 0 -216 -97.5t-128 -281.5q-17 -93 -17 -148z" />
<glyph unicode="e" d="M127 332q0 87 20 184q52 250 188.5 379t344.5 129q174 0 264 -90t90 -258q0 -114 -28 -217h-705q-10 -68 -10 -111q0 -225 219 -225q169 0 258 131h182q-136 -279 -458 -279q-180 0 -272.5 90t-92.5 267zM336 594h528q4 40 4 59q0 224 -206 224q-230 0 -326 -283z" />
<glyph unicode="f" d="M193 -451l266 1248h-256l28 141h256l45 207q35 165 136.5 249.5t261.5 84.5q146 0 221.5 -67.5t75.5 -190.5v-29h-154v6q0 133 -149 133q-192 0 -238 -217l-37 -176h451l-29 -141h-453l-266 -1248h-159z" />
<glyph unicode="g" d="M-37 -213q0 104 63 169.5t175 92.5l2 8q-99 39 -99 148q0 72 46.5 127.5t134.5 87.5l2 8q-90 72 -90 215q0 173 125.5 277t330.5 104q151 0 234 -57l6 2q40 95 122.5 146.5t196.5 51.5h68l-33 -157h-76q-150 0 -221 -103q47 -68 47 -170q0 -173 -125.5 -277t-330.5 -104 q-86 0 -160 23q-60 -28 -89.5 -66t-29.5 -77q0 -76 96 -76h226q188 0 273 -60.5t85 -191.5q0 -126 -72.5 -213.5t-197.5 -128.5t-293 -41q-416 0 -416 262zM135 -178q0 -152 264 -152q108 0 191 22.5t133.5 72t50.5 120.5q0 70 -54 99.5t-183 29.5h-88q-139 0 -226.5 -49 t-87.5 -143zM360 651q0 -74 50 -111.5t143 -37.5q128 0 205.5 63t77.5 160q0 77 -50.5 115.5t-144.5 38.5q-128 0 -204.5 -65.5t-76.5 -162.5z" />
<glyph unicode="h" d="M74 0l309 1454h160l-133 -620h8q122 190 344 190q130 0 197 -66.5t67 -193.5q0 -61 -14 -127l-135 -637h-160l135 639q10 55 10 88q0 150 -157 150q-125 0 -223 -85.5t-126 -216.5l-123 -575h-159z" />
<glyph unicode="i" d="M74 0l30 141h345l151 717h-344l31 141h504l-183 -858h344l-30 -141h-848zM621 1321q0 65 46.5 111.5t112.5 46.5q54 0 87.5 -33.5t33.5 -87.5q0 -65 -47 -111.5t-113 -46.5q-54 0 -87 33.5t-33 87.5z" />
<glyph unicode="j" d="M27 -221q0 37 10 92l10 49h156l-8 -35q-9 -44 -9 -73q0 -140 146 -140q189 0 235 219l205 967h-479l31 141h639l-242 -1138q-35 -164 -138.5 -250t-260.5 -86q-141 0 -218 67t-77 187zM793 1321q0 65 46.5 111.5t112.5 46.5q54 0 87.5 -33.5t33.5 -87.5q0 -65 -47 -111.5 t-113 -46.5q-54 0 -87 33.5t-33 87.5z" />
<glyph unicode="k" d="M117 0l309 1454h160l-191 -897h8l510 442h228l-547 -469l358 -530h-194l-359 535h-8l-115 -535h-159z" />
<glyph unicode="l" d="M254 1313l31 141h415l-237 -1118q-8 -39 -8 -74q0 -139 145 -139q187 0 234 213l16 76h156l-23 -105q-35 -163 -136.5 -247.5t-262.5 -84.5q-142 0 -217.5 66t-75.5 192q0 36 10 91l209 989h-256z" />
<glyph unicode="m" d="M8 0l213 999h121l-18 -120h8q78 145 213 145q138 0 153 -145h9q81 145 227 145q85 0 125.5 -45t40.5 -137q0 -56 -15 -127l-151 -715h-150l154 725q8 33 8 66q0 86 -78 86q-66 0 -116 -55t-70 -150l-143 -672h-136l154 725q8 33 8 66q0 86 -78 86q-66 0 -116 -55 t-70 -150l-143 -672h-150z" />
<glyph unicode="n" d="M74 0l213 999h139l-27 -165h9q125 190 350 190q132 0 200 -67t68 -195q0 -59 -14 -125l-135 -637h-160l135 639q10 55 10 88q0 150 -157 150q-125 0 -223 -84.5t-126 -214.5l-123 -578h-159z" />
<glyph unicode="o" d="M119 328q0 79 22 186q54 250 189 380t342 130q173 0 264.5 -90.5t91.5 -261.5q0 -80 -22 -187q-54 -250 -189 -380t-342 -130q-173 0 -264.5 91t-91.5 262zM287 346q0 -223 205 -223q131 0 220 95.5t130 285.5q18 85 18 149q0 110 -52 167t-153 57q-131 0 -220 -95.5 t-130 -285.5q-18 -86 -18 -150z" />
<glyph unicode="p" d="M-33 -451l309 1450h142l-27 -165h8q114 190 334 190q153 0 235.5 -94.5t82.5 -255.5q0 -77 -21 -180q-52 -251 -182 -385t-313 -134q-111 0 -180 50t-91 141h-6l-131 -617h-160zM311 358q0 -113 55.5 -174t155.5 -61q124 0 216 97.5t128 281.5q17 93 17 147 q0 111 -49.5 169.5t-145.5 58.5q-126 0 -221.5 -95.5t-130.5 -259.5l-10 -45q-15 -67 -15 -119z" />
<glyph unicode="q" d="M96 326q0 77 21 180q52 251 181.5 384.5t313.5 133.5q115 0 184.5 -52t88.5 -149h8l49 176h141l-309 -1450h-160l129 607h-8q-116 -181 -321 -181q-152 0 -235 95t-83 256zM264 350q0 -111 49.5 -169t145.5 -58q126 0 221.5 95t130.5 259l10 45q15 73 15 119 q0 113 -55.5 174.5t-155.5 61.5q-124 0 -216 -97.5t-128 -281.5q-17 -93 -17 -148z" />
<glyph unicode="r" d="M115 0l213 999h139l-27 -165h9q126 190 344 190q129 0 196.5 -67t67.5 -195q0 -54 -15 -125l-26 -127h-160l25 115q10 44 10 88q0 164 -156 164q-120 0 -215 -85.5t-123 -216.5l-123 -575h-159z" />
<glyph unicode="s" d="M104 225q0 23 2 35h164v-2q0 -135 215 -135q130 0 211.5 46t81.5 128q0 55 -38.5 84t-121.5 41l-137 20q-127 19 -188.5 77t-61.5 165q0 158 121.5 249t317.5 91q162 0 250 -63.5t88 -176.5q0 -22 -2 -32h-166v12q0 51 -47.5 82t-137.5 31q-112 0 -185 -46.5t-73 -121.5 q0 -48 36 -78t124 -43l137 -21q127 -19 188.5 -77t61.5 -166q0 -165 -130.5 -257t-338.5 -92q-178 0 -274.5 66.5t-96.5 183.5z" />
<glyph unicode="t" d="M158 858l30 141h263l100 353h127l-74 -353h453l-31 -141h-453l-110 -522q-8 -39 -8 -74q0 -139 145 -139q187 0 234 213l16 76h156l-23 -105q-35 -163 -136.5 -247.5t-262.5 -84.5q-141 0 -217 66t-76 190q0 38 10 93l113 534h-256z" />
<glyph unicode="u" d="M121 238q0 58 14 124l135 637h160l-135 -639q-10 -55 -10 -88q0 -149 157 -149q125 0 223 84.5t126 214.5l122 577h160l-213 -999h-139l27 166h-9q-125 -191 -350 -191q-131 0 -199.5 67.5t-68.5 195.5z" />
<glyph unicode="v" d="M225 999h162l115 -784h8l446 784h179l-586 -999h-164z" />
<glyph unicode="w" d="M127 0l25 999h151l-29 -751h9l329 751h131l11 -751h8l293 751h153l-399 -999h-170l-10 741h-8l-326 -741h-168z" />
<glyph unicode="x" d="M-20 0l497 520l-260 479h186l193 -370l346 370h205l-473 -491l276 -508h-184l-209 399l-373 -399h-204z" />
<glyph unicode="y" d="M-147 -266q0 25 4 57l4 33h151l-4 -25q-4 -24 -4 -45q0 -82 98 -82q60 0 105 38t106 143l84 143l-172 1003h162l123 -784h8l438 784h179l-693 -1204q-86 -150 -166.5 -210t-191.5 -60q-116 0 -173.5 55t-57.5 154z" />
<glyph unicode="z" d="M53 0l23 111l747 747h-557l31 141h790l-22 -110l-748 -748h588l-31 -141h-821z" />
<glyph unicode="{" d="M186 553l25 123h68q111 0 171 49.5t82 159.5q14 76 19 131q7 80 20 147q35 176 156.5 260t339.5 84h111l-27 -125h-84q-150 0 -232 -57.5t-108 -181.5q-12 -58 -18 -127q-7 -87 -19 -144q-23 -110 -80.5 -171.5t-154.5 -86.5l-2 -8q131 -42 131 -186q0 -86 -49 -227 q-43 -123 -43 -185q0 -85 58.5 -123.5t184.5 -38.5h88l-26 -125h-99q-366 0 -366 265q0 97 51 241q45 122 45 199q0 67 -40 97t-130 30h-72z" />
<glyph unicode="|" d="M287 -522l434 2048h139l-434 -2048h-139z" />
<glyph unicode="}" d="M18 -279l27 125h84q149 0 231.5 58t108.5 182q12 58 18 127q7 86 19 143q23 110 80.5 171.5t154.5 86.5l2 9q-131 42 -131 186q0 83 50 227q43 123 43 185q0 84 -58.5 122.5t-185.5 38.5h-88l26 125h99q366 0 366 -264q0 -98 -51 -242q-45 -122 -45 -198q0 -67 40 -97 t130 -30h72l-25 -123h-67q-111 0 -171.5 -49.5t-82.5 -159.5q-14 -76 -19 -131q-7 -80 -20 -147q-35 -176 -157 -260.5t-339 -84.5h-111z" />
<glyph unicode="~" d="M109 389q49 222 130.5 319t196.5 97q70 0 113.5 -32t109.5 -118q55 -73 81 -96.5t61 -23.5q57 0 99.5 60.5t74.5 205.5h133q-49 -222 -130.5 -319t-197.5 -97q-70 0 -113.5 32t-109.5 118q-56 74 -81.5 97t-59.5 23q-57 0 -99.5 -60.5t-74.5 -205.5h-133z" />
<glyph unicode="&#xa0;" />
<glyph unicode="&#xa1;" d="M283 -352l247 868h95l-125 -868h-217zM498 848q0 72 52 124t124 52q60 0 96.5 -36t36.5 -95q0 -72 -52 -124t-124 -52q-60 0 -96.5 36t-36.5 95z" />
<glyph unicode="&#xa2;" d="M154 381q0 78 22 188q107 496 488 514l32 217h140l-62 -219q272 -18 291 -315h-166q-9 158 -160 170l-159 -743q151 15 225 167h174q-127 -302 -424 -317l-33 -217h-139l61 219q-142 10 -216 96t-74 240zM322 391q0 -97 38 -146t121 -55l160 744q-118 -9 -189 -100.5 t-110 -272.5q-20 -94 -20 -170z" />
<glyph unicode="&#xa3;" d="M23 0l26 121q140 37 233 143.5t93 231.5q0 38 -10 90h-218l25 119l158 14q-35 123 -35 201q0 183 130.5 299t334.5 116q157 0 247.5 -71.5t90.5 -198.5q0 -33 -11 -90h-159q4 18 4 53q0 79 -48.5 119.5t-140.5 40.5q-128 0 -205 -74t-77 -190q0 -56 33 -197h436l-31 -141 h-381q4 -46 4 -72q0 -242 -200 -364l-3 -9h396q47 0 69 18t31 62l10 51h160l-22 -106q-19 -91 -65 -128.5t-140 -37.5h-735z" />
<glyph unicode="&#xa4;" d="M92 244l215 198q-65 94 -65 213t65 213l-215 199l103 102l202 -217q89 58 209 58t209 -58l203 217l102 -102l-215 -199q66 -95 66 -213t-66 -213l215 -198l-102 -103l-203 217q-88 -57 -209 -57t-209 57l-202 -217zM397 655q0 -97 58.5 -157t150.5 -60t150.5 60t58.5 157 t-58.5 157t-150.5 60t-150.5 -60t-58.5 -157z" />
<glyph unicode="&#xa5;" d="M125 283l27 116h321l39 183h-322l25 116h322v7l-267 606h172l193 -457h6l383 457h197l-525 -609v-4h322l-25 -116h-321l-39 -183h321l-26 -116h-322l-59 -283h-160l59 283h-321z" />
<glyph unicode="&#xa6;" d="M287 -522l174 815h139l-174 -815h-139zM549 711l172 815h139l-172 -815h-139z" />
<glyph unicode="&#xa7;" d="M125 -10h164q3 -56 42 -85.5t111 -29.5q97 0 161.5 51.5t64.5 136.5q0 55 -32 87.5t-106 54.5l-172 51q-107 32 -160 88t-53 150q0 114 73.5 193.5t199.5 127.5l2 8q-86 68 -86 193q0 155 116 257.5t291 102.5q140 0 221.5 -68.5t81.5 -177.5v-14h-163q-3 56 -42.5 85.5 t-111.5 29.5q-97 0 -161 -52t-64 -137q0 -55 31.5 -87t105.5 -54l172 -51q107 -32 160 -88t53 -150q0 -218 -272 -321l-2 -8q86 -68 86 -193q0 -155 -116 -257.5t-290 -102.5q-136 0 -220.5 64.5t-84.5 180.5v15zM315 535q0 -53 32.5 -85.5t105.5 -54.5l151 -45 q120 28 185 85.5t65 135.5q0 53 -32 85.5t-105 54.5l-150 45q-121 -28 -186.5 -85.5t-65.5 -135.5z" />
<glyph unicode="&#xa8;" d="M422 1323q0 59 42 101t101 42q49 0 81 -31.5t32 -78.5q0 -59 -42.5 -101.5t-100.5 -42.5q-49 0 -81 31.5t-32 79.5zM831 1323q0 58 42.5 100.5t101.5 42.5q49 0 80.5 -31t31.5 -79q0 -59 -42.5 -101.5t-100.5 -42.5q-49 0 -81 31.5t-32 79.5z" />
<glyph unicode="&#xa9;" d="M111 750q0 291 138 458.5t378 167.5t378 -167.5t138 -458.5q0 -292 -138.5 -459.5t-377.5 -167.5t-377.5 167.5t-138.5 459.5zM229 750q0 -244 105 -380.5t293 -136.5t292.5 136.5t104.5 380.5t-104.5 380t-292.5 136t-293 -136t-105 -380zM377 750q0 172 61 256t185 84 q104 0 163 -56.5t76 -173.5h-127q-21 117 -110 117q-63 0 -92 -53.5t-29 -173.5t29 -174t92 -54q89 0 110 117h127q-17 -117 -76 -173t-163 -56q-124 0 -185 84t-61 256z" />
<glyph unicode="&#xaa;" d="M150 236l28 137h717l-29 -137h-716zM276 823q0 136 97.5 208.5t267.5 72.5h250l12 59q6 30 6 58q0 125 -155 125q-162 0 -217 -119h-150q72 252 379 252q147 0 223 -58.5t76 -167.5q0 -36 -10 -88l-115 -542h-133l20 135h-8q-54 -75 -134.5 -115.5t-174.5 -40.5 q-107 0 -170.5 57.5t-63.5 163.5zM430 840q0 -105 127 -105q104 0 193 66t110 164l4 18h-231q-95 0 -149 -37.5t-54 -105.5z" />
<glyph unicode="&#xab;" d="M133 457l21 100l460 373l-43 -203l-297 -240l195 -239l-35 -164zM563 457l21 100l460 373l-43 -203l-296 -240l194 -239l-35 -164z" />
<glyph unicode="&#xac;" d="M125 524l31 148h858l-113 -529h-147l82 381h-711z" />
<glyph unicode="&#xad;" d="M168 518l33 160h819l-33 -160h-819z" />
<glyph unicode="&#xae;" d="M111 750q0 291 138 458.5t378 167.5t378 -167.5t138 -458.5q0 -292 -138.5 -459.5t-377.5 -167.5t-377.5 167.5t-138.5 459.5zM229 750q0 -244 105 -380.5t293 -136.5t292.5 136.5t104.5 380.5t-104.5 380t-292.5 136t-293 -136t-105 -380zM420 432v635h215 q225 0 225 -188q0 -143 -129 -177l143 -270h-137l-131 258h-63v-258h-123zM543 795h90q52 0 76 20.5t24 63.5t-24 63.5t-76 20.5h-90v-168z" />
<glyph unicode="&#xaf;" d="M451 1276l26 127h578l-27 -127h-577z" />
<glyph unicode="&#xb0;" d="M360 997q0 153 116 266t274 113q123 0 197.5 -72t74.5 -192q0 -153 -115.5 -266t-273.5 -113q-123 0 -198 72t-75 192zM512 1010q0 -64 36.5 -102t100.5 -38q91 0 156 69t65 161q0 64 -36.5 101.5t-100.5 37.5q-91 0 -156 -68.5t-65 -160.5z" />
<glyph unicode="&#xb1;" d="M51 84l31 147h868l-30 -147h-869zM172 657l33 148h360l68 319h147l-67 -319h360l-33 -148h-360l-68 -319h-147l67 319h-360z" />
<glyph unicode="&#xb2;" d="M268 668l29 129l457 325q77 54 115 100.5t38 106.5q0 119 -149 119q-83 0 -137 -39.5t-68 -110.5l-2 -10h-150l7 31q25 125 124.5 197.5t245.5 72.5q136 0 212.5 -62t76.5 -177q0 -102 -57.5 -179t-161.5 -149l-307 -213v-6h415l-28 -135h-660z" />
<glyph unicode="&#xb3;" d="M293 883q0 19 4 51h156q-2 -10 -2 -27q0 -110 172 -110q107 0 168 41.5t61 117.5q0 56 -39.5 81.5t-130.5 25.5h-111l29 135h111q91 0 142.5 38.5t51.5 106.5q0 109 -153 109q-171 0 -201 -125h-150q25 128 119 195t246 67q141 0 219 -58t78 -169q0 -164 -178 -219l-2 -6 q125 -46 125 -179q0 -137 -113.5 -220t-288.5 -83q-148 0 -230.5 61.5t-82.5 166.5z" />
<glyph unicode="&#xb4;" d="M575 1200l308 324h211l-351 -324h-168z" />
<glyph unicode="&#xb5;" d="M-23 -451l310 1450h159l-135 -639q-10 -55 -10 -86q0 -151 143 -151q116 0 207 84t119 215l123 577h160l-170 -800q-4 -20 -4 -35q0 -22 11.5 -31.5t37.5 -9.5q24 0 67 16l-30 -139q-46 -25 -103 -25q-145 0 -145 123q0 28 6 58l2 10h-8q-118 -191 -311 -191 q-127 0 -168 95h-9q-62 -293 -67 -408l-25 -113h-160z" />
<glyph unicode="&#xb6;" d="M193 883q0 215 137.5 342t382.5 127h86l-164 -772h-74q-202 0 -285 75t-83 228zM627 -246l338 1598h159l-338 -1598h-159z" />
<glyph unicode="&#xb7;" d="M422 571q0 78 58.5 135.5t137.5 57.5q65 0 106.5 -39.5t41.5 -103.5q0 -78 -58.5 -135.5t-138.5 -57.5q-65 0 -106 39.5t-41 103.5z" />
<glyph unicode="&#xb8;" d="M152 -428l51 90q49 -35 141 -35q62 0 98.5 21t36.5 59q0 29 -23 41t-77 12h-88l137 240h119l-94 -162q172 -3 172 -129q0 -84 -71 -134t-196 -50q-124 0 -206 47z" />
<glyph unicode="&#xb9;" d="M315 668l29 135h272l123 581l-260 -108l-43 98l375 203h123l-166 -774h272l-28 -135h-697z" />
<glyph unicode="&#xba;" d="M160 236l28 137h717l-28 -137h-717zM305 899q0 69 19 156q46 214 159.5 319t284.5 105q149 0 226 -76t77 -221q0 -74 -18 -156q-46 -214 -160 -319t-285 -105q-149 0 -226 76t-77 221zM459 915q0 -85 41.5 -130.5t122.5 -45.5q105 0 177.5 76.5t102.5 226.5q15 77 15 123 q0 85 -41.5 130.5t-122.5 45.5q-105 0 -178 -76.5t-103 -226.5q-14 -72 -14 -123z" />
<glyph unicode="&#xbb;" d="M106 84l44 203l296 239l-194 240l35 164l301 -373l-21 -100zM537 84l43 203l297 239l-195 240l35 164l301 -373l-21 -100z" />
<glyph unicode="&#xbc;" d="M-59 139l452 385l64 -69l-424 -416zM207 1167l301 144h100l-137 -652h-129l102 492l-196 -82zM453 152l28 135l400 364h147l-80 -383h88l-24 -116h-88l-33 -152h-129l33 152h-342zM618 268h201l49 232h-6zM754 842l424 415l92 -100l-453 -385z" />
<glyph unicode="&#xbd;" d="M-59 139l452 385l64 -69l-424 -416zM207 1167l301 144h100l-137 -652h-129l102 492l-196 -82zM479 0l23 109l334 233q51 35 74.5 62.5t23.5 62.5q0 74 -98 74q-53 0 -89 -24.5t-45 -67.5l-2 -11h-129l7 27q20 93 93 146t179 53q103 0 160 -50.5t57 -138.5 q0 -71 -36.5 -120.5t-108.5 -94.5l-217 -137v-6h292l-24 -117h-494zM754 842l424 415l92 -100l-453 -385z" />
<glyph unicode="&#xbe;" d="M-59 139l452 385l64 -69l-424 -416zM104 815q0 6 5 41h133q-2 -6 -2 -20q0 -70 110 -70q150 0 150 104q0 64 -111 64h-90l23 106h90q61 0 93 25.5t32 73.5q0 65 -95 65q-118 0 -133 -78h-131q37 197 273 197q103 0 162 -44t59 -118q0 -134 -129 -164l-2 -8 q92 -35 92 -123q0 -104 -79 -161.5t-214 -57.5q-115 0 -175.5 44.5t-60.5 123.5zM453 152l28 135l400 364h147l-80 -383h88l-24 -116h-88l-33 -152h-129l33 152h-342zM618 268h201l49 232h-6zM754 842l424 415l92 -100l-453 -385z" />
<glyph unicode="&#xbf;" d="M72 -92q0 64 19.5 119t60.5 103t83.5 84t108.5 83q114 80 145 110t43 76l9 33h159l-12 -55q-18 -79 -62.5 -132.5t-170.5 -140.5q-44 -30 -65 -45.5t-51.5 -39.5t-44 -40.5t-28.5 -39t-20.5 -46t-5.5 -51.5q0 -155 184 -155q226 0 276 223l5 18h159l-8 -39 q-35 -170 -148 -260t-292 -90q-163 0 -253.5 74.5t-90.5 210.5zM528 848q0 72 52.5 124t124.5 52q60 0 96.5 -36t36.5 -95q0 -72 -52 -124t-124 -52q-60 0 -97 36t-37 95z" />
<glyph unicode="&#xc0;" d="M-31 0l690 1352h193l113 -1352h-164l-27 356h-455l-176 -356h-174zM393 504h371l-47 635h-8zM563 1845h195l172 -323h-152z" />
<glyph unicode="&#xc1;" d="M-31 0l690 1352h193l113 -1352h-164l-27 356h-455l-176 -356h-174zM393 504h371l-47 635h-8zM643 1522l307 323h211l-350 -323h-168z" />
<glyph unicode="&#xc2;" d="M-31 0l690 1352h193l113 -1352h-164l-27 356h-455l-176 -356h-174zM393 504h371l-47 635h-8zM453 1522l323 323h164l188 -323h-149l-135 209l-221 -209h-170z" />
<glyph unicode="&#xc3;" d="M-31 0l690 1352h193l113 -1352h-164l-27 356h-455l-176 -356h-174zM393 504h371l-47 635h-8zM463 1522q65 288 248 288q40 0 70.5 -15.5t82.5 -57.5q35 -28 53.5 -38.5t40.5 -10.5q77 0 109 141h123q-65 -289 -248 -289q-40 0 -71 16t-83 58q-35 28 -53.5 38.5 t-40.5 10.5q-76 0 -108 -141h-123z" />
<glyph unicode="&#xc4;" d="M-31 0l690 1352h193l113 -1352h-164l-27 356h-455l-176 -356h-174zM393 504h371l-47 635h-8zM489 1645q0 58 42.5 100.5t101.5 42.5q49 0 80.5 -31.5t31.5 -79.5q0 -59 -42.5 -101t-100.5 -42q-49 0 -81 31.5t-32 79.5zM899 1645q0 59 42.5 101t100.5 42q49 0 81 -31.5 t32 -79.5q0 -59 -42.5 -101t-100.5 -42q-49 0 -81 31.5t-32 79.5z" />
<glyph unicode="&#xc5;" d="M-31 0l690 1352h193l113 -1352h-164l-27 356h-455l-176 -356h-174zM393 504h371l-47 635h-8zM608 1694q0 101 78.5 175.5t183.5 74.5q85 0 138 -51.5t53 -133.5q0 -101 -78.5 -175.5t-183.5 -74.5q-85 0 -138 51.5t-53 133.5zM733 1704q0 -38 21 -59t57 -21q51 0 88 36.5 t37 88.5q0 38 -21 59t-57 21q-51 0 -88 -36.5t-37 -88.5z" />
<glyph unicode="&#xc6;" d="M-113 0l787 1352h629l-29 -144h-363l-92 -438h279l-31 -143h-279l-102 -484h361l-31 -143h-516l75 358h-313l-205 -358h-170zM344 502h262l150 706h-8z" />
<glyph unicode="&#xc7;" d="M133 371q0 125 39 311q76 362 221 528t379 166q186 0 276.5 -100.5t90.5 -302.5q0 -42 -2 -62h-168q2 29 2 52q0 260 -215 260q-151 0 -254 -133t-162 -416q-35 -169 -35 -277q0 -137 51.5 -202.5t157.5 -65.5q233 0 346 311h176q-75 -222 -192 -335t-287 -128l-82 -139 q172 -3 172 -129q0 -84 -70.5 -134t-195.5 -50t-207 47l51 90q49 -35 142 -35q62 0 98.5 21t36.5 59q0 29 -23.5 41t-77.5 12h-88l125 217q-305 30 -305 394z" />
<glyph unicode="&#xc8;" d="M119 0l287 1352h806l-30 -148h-643l-93 -432h521l-31 -147h-520l-103 -478h643l-30 -147h-807zM618 1845h195l172 -323h-151z" />
<glyph unicode="&#xc9;" d="M119 0l287 1352h806l-30 -148h-643l-93 -432h521l-31 -147h-520l-103 -478h643l-30 -147h-807zM698 1522l308 323h211l-351 -323h-168z" />
<glyph unicode="&#xca;" d="M119 0l287 1352h806l-30 -148h-643l-93 -432h521l-31 -147h-520l-103 -478h643l-30 -147h-807zM508 1522l323 323h164l189 -323h-150l-135 209l-221 -209h-170z" />
<glyph unicode="&#xcb;" d="M119 0l287 1352h806l-30 -148h-643l-93 -432h521l-31 -147h-520l-103 -478h643l-30 -147h-807zM545 1645q0 59 42.5 101t100.5 42q49 0 81 -31.5t32 -79.5q0 -58 -42.5 -100.5t-101.5 -42.5q-49 0 -80.5 31.5t-31.5 79.5zM954 1645q0 58 42.5 100.5t101.5 42.5 q49 0 80.5 -31.5t31.5 -79.5q0 -59 -42 -101t-101 -42q-49 0 -81 31.5t-32 79.5z" />
<glyph unicode="&#xcc;" d="M57 0l31 147h328l225 1057h-328l31 148h819l-30 -148h-328l-225 -1057h327l-30 -147h-820zM563 1845h195l172 -323h-152z" />
<glyph unicode="&#xcd;" d="M57 0l31 147h328l225 1057h-328l31 148h819l-30 -148h-328l-225 -1057h327l-30 -147h-820zM643 1522l307 323h211l-350 -323h-168z" />
<glyph unicode="&#xce;" d="M57 0l31 147h328l225 1057h-328l31 148h819l-30 -148h-328l-225 -1057h327l-30 -147h-820zM453 1522l323 323h164l188 -323h-149l-135 209l-221 -209h-170z" />
<glyph unicode="&#xcf;" d="M57 0l31 147h328l225 1057h-328l31 148h819l-30 -148h-328l-225 -1057h327l-30 -147h-820zM489 1645q0 58 42.5 100.5t101.5 42.5q49 0 80.5 -31.5t31.5 -79.5q0 -59 -42.5 -101t-100.5 -42q-49 0 -81 31.5t-32 79.5zM899 1645q0 59 42.5 101t100.5 42q49 0 81 -31.5 t32 -79.5q0 -59 -42.5 -101t-100.5 -42q-49 0 -81 31.5t-32 79.5z" />
<glyph unicode="&#xd0;" d="M61 0l127 602h-125l31 148h127l127 602h311q231 0 341 -100.5t110 -315.5q0 -125 -33 -274q-75 -355 -239 -508.5t-447 -153.5h-330zM256 147h137q218 0 336.5 121t181.5 412q31 146 31 238q0 155 -75.5 220.5t-239.5 65.5h-146l-96 -454h242l-31 -148h-244z" />
<glyph unicode="&#xd1;" d="M45 0l287 1352h176l287 -1012h8l215 1012h158l-287 -1352h-148l-303 1071h-8l-227 -1071h-158zM463 1522q65 288 248 288q40 0 70.5 -15.5t82.5 -57.5q35 -28 53.5 -38.5t40.5 -10.5q77 0 109 141h123q-65 -289 -248 -289q-40 0 -71 16t-83 58q-35 28 -53.5 38.5 t-40.5 10.5q-76 0 -108 -141h-123z" />
<glyph unicode="&#xd2;" d="M109 373q0 133 38 317q74 360 219.5 523t381.5 163q184 0 275 -98t91 -299q0 -128 -39 -317q-74 -360 -219 -523.5t-381 -163.5q-184 0 -275 98t-91 300zM279 395q0 -136 53 -201t162 -65q156 0 256 134.5t159 416.5q35 166 35 276q0 136 -53 201.5t-162 65.5 q-157 0 -257 -135t-159 -416q-34 -161 -34 -277zM563 1845h195l172 -323h-152z" />
<glyph unicode="&#xd3;" d="M109 373q0 133 38 317q74 360 219.5 523t381.5 163q184 0 275 -98t91 -299q0 -128 -39 -317q-74 -360 -219 -523.5t-381 -163.5q-184 0 -275 98t-91 300zM279 395q0 -136 53 -201t162 -65q156 0 256 134.5t159 416.5q35 166 35 276q0 136 -53 201.5t-162 65.5 q-157 0 -257 -135t-159 -416q-34 -161 -34 -277zM643 1522l307 323h211l-350 -323h-168z" />
<glyph unicode="&#xd4;" d="M109 373q0 133 38 317q74 360 219.5 523t381.5 163q184 0 275 -98t91 -299q0 -128 -39 -317q-74 -360 -219 -523.5t-381 -163.5q-184 0 -275 98t-91 300zM279 395q0 -136 53 -201t162 -65q156 0 256 134.5t159 416.5q35 166 35 276q0 136 -53 201.5t-162 65.5 q-157 0 -257 -135t-159 -416q-34 -161 -34 -277zM453 1522l323 323h164l188 -323h-149l-135 209l-221 -209h-170z" />
<glyph unicode="&#xd5;" d="M109 373q0 133 38 317q74 360 219.5 523t381.5 163q184 0 275 -98t91 -299q0 -128 -39 -317q-74 -360 -219 -523.5t-381 -163.5q-184 0 -275 98t-91 300zM279 395q0 -136 53 -201t162 -65q156 0 256 134.5t159 416.5q35 166 35 276q0 136 -53 201.5t-162 65.5 q-157 0 -257 -135t-159 -416q-34 -161 -34 -277zM463 1522q65 288 248 288q40 0 70.5 -15.5t82.5 -57.5q35 -28 53.5 -38.5t40.5 -10.5q77 0 109 141h123q-65 -289 -248 -289q-40 0 -71 16t-83 58q-35 28 -53.5 38.5t-40.5 10.5q-76 0 -108 -141h-123z" />
<glyph unicode="&#xd6;" d="M109 373q0 133 38 317q74 360 219.5 523t381.5 163q184 0 275 -98t91 -299q0 -128 -39 -317q-74 -360 -219 -523.5t-381 -163.5q-184 0 -275 98t-91 300zM279 395q0 -136 53 -201t162 -65q156 0 256 134.5t159 416.5q35 166 35 276q0 136 -53 201.5t-162 65.5 q-157 0 -257 -135t-159 -416q-34 -161 -34 -277zM489 1645q0 58 42.5 100.5t101.5 42.5q49 0 80.5 -31.5t31.5 -79.5q0 -59 -42.5 -101t-100.5 -42q-49 0 -81 31.5t-32 79.5zM899 1645q0 59 42.5 101t100.5 42q49 0 81 -31.5t32 -79.5q0 -59 -42.5 -101t-100.5 -42 q-49 0 -81 31.5t-32 79.5z" />
<glyph unicode="&#xd7;" d="M119 295l377 313l-246 314l112 88l244 -312l373 312l90 -109l-377 -313l246 -314l-113 -88l-243 312l-373 -312z" />
<glyph unicode="&#xd8;" d="M-33 43l158 180q-16 69 -16 150q0 133 38 317q74 360 219.5 523t381.5 163q202 0 288 -114l119 135l100 -88l-157 -181q16 -69 16 -149q0 -128 -39 -317q-74 -360 -219 -523.5t-381 -163.5q-202 0 -289 115l-118 -135zM279 401h4l630 721q-49 101 -184 101 q-157 0 -257 -135t-159 -416q-34 -157 -34 -271zM309 229q49 -100 185 -100q156 0 256 134.5t159 416.5q35 161 35 270h-4z" />
<glyph unicode="&#xd9;" d="M117 287q0 59 16 137l197 928h164l-195 -918q-14 -75 -14 -117q0 -96 52.5 -142t158.5 -46q139 0 217 73.5t112 233.5l195 916h158l-201 -944q-48 -224 -164.5 -328.5t-325.5 -104.5q-183 0 -276.5 79t-93.5 233zM563 1845h195l172 -323h-152z" />
<glyph unicode="&#xda;" d="M117 287q0 59 16 137l197 928h164l-195 -918q-14 -75 -14 -117q0 -96 52.5 -142t158.5 -46q139 0 217 73.5t112 233.5l195 916h158l-201 -944q-48 -224 -164.5 -328.5t-325.5 -104.5q-183 0 -276.5 79t-93.5 233zM643 1522l307 323h211l-350 -323h-168z" />
<glyph unicode="&#xdb;" d="M117 287q0 59 16 137l197 928h164l-195 -918q-14 -75 -14 -117q0 -96 52.5 -142t158.5 -46q139 0 217 73.5t112 233.5l195 916h158l-201 -944q-48 -224 -164.5 -328.5t-325.5 -104.5q-183 0 -276.5 79t-93.5 233zM453 1522l323 323h164l188 -323h-149l-135 209l-221 -209 h-170z" />
<glyph unicode="&#xdc;" d="M117 287q0 59 16 137l197 928h164l-195 -918q-14 -75 -14 -117q0 -96 52.5 -142t158.5 -46q139 0 217 73.5t112 233.5l195 916h158l-201 -944q-48 -224 -164.5 -328.5t-325.5 -104.5q-183 0 -276.5 79t-93.5 233zM489 1645q0 58 42.5 100.5t101.5 42.5q49 0 80.5 -31.5 t31.5 -79.5q0 -59 -42.5 -101t-100.5 -42q-49 0 -81 31.5t-32 79.5zM899 1645q0 59 42.5 101t100.5 42q49 0 81 -31.5t32 -79.5q0 -59 -42.5 -101t-100.5 -42q-49 0 -81 31.5t-32 79.5z" />
<glyph unicode="&#xdd;" d="M268 1352h172l183 -555h8l411 555h197l-557 -729l-133 -623h-164l133 618zM643 1522l307 323h211l-350 -323h-168z" />
<glyph unicode="&#xde;" d="M98 0l287 1352h164l-49 -234h254q166 0 258 -75t92 -212q0 -44 -14 -116q-81 -375 -480 -375h-276l-72 -340h-164zM365 487h243q262 0 314 246q8 36 8 74q0 83 -52.5 123.5t-162.5 40.5h-246z" />
<glyph unicode="&#xdf;" d="M-27 -451l338 1584q35 166 148 256t286 90q151 0 234.5 -69.5t83.5 -201.5q0 -44 -11 -85t-24 -69t-40 -61t-43.5 -50t-49.5 -48q-41 -38 -63 -62t-41 -61t-19 -76q0 -27 7.5 -49.5t26.5 -43t32.5 -31.5t42.5 -33q34 -25 52.5 -42t43 -47t36 -68.5t11.5 -86.5 q0 -149 -113.5 -234.5t-300.5 -85.5q-121 0 -213 39l54 144q53 -35 159 -35q112 0 180 45t68 119q0 47 -26 80.5t-78 72.5q-33 25 -53.5 44t-45.5 50t-37 70t-12 86q0 39 10.5 75.5t22 60t38 55.5t40.5 45t47 45q44 41 67 66t44.5 68t21.5 89q0 137 -164 137 q-106 0 -175 -56.5t-91 -160.5l-334 -1565h-160z" />
<glyph unicode="&#xe0;" d="M80 240q0 164 118.5 247.5t323.5 83.5h291l16 78q9 40 9 70q0 158 -195 158q-201 0 -268 -150h-162q97 297 446 297q170 0 257.5 -68.5t87.5 -199.5q0 -45 -13 -105l-139 -651h-139l26 166h-8q-65 -90 -162 -140.5t-211 -50.5q-133 0 -205.5 68.5t-72.5 196.5zM244 252 q0 -62 40 -95.5t119 -33.5q134 0 242.5 85t134.5 208l4 18h-278q-119 0 -190.5 -47.5t-71.5 -134.5zM481 1524h195l172 -324h-152z" />
<glyph unicode="&#xe1;" d="M80 240q0 164 118.5 247.5t323.5 83.5h291l16 78q9 40 9 70q0 158 -195 158q-201 0 -268 -150h-162q97 297 446 297q170 0 257.5 -68.5t87.5 -199.5q0 -45 -13 -105l-139 -651h-139l26 166h-8q-65 -90 -162 -140.5t-211 -50.5q-133 0 -205.5 68.5t-72.5 196.5zM244 252 q0 -62 40 -95.5t119 -33.5q134 0 242.5 85t134.5 208l4 18h-278q-119 0 -190.5 -47.5t-71.5 -134.5zM561 1200l307 324h211l-350 -324h-168z" />
<glyph unicode="&#xe2;" d="M80 240q0 164 118.5 247.5t323.5 83.5h291l16 78q9 40 9 70q0 158 -195 158q-201 0 -268 -150h-162q97 297 446 297q170 0 257.5 -68.5t87.5 -199.5q0 -45 -13 -105l-139 -651h-139l26 166h-8q-65 -90 -162 -140.5t-211 -50.5q-133 0 -205.5 68.5t-72.5 196.5zM244 252 q0 -62 40 -95.5t119 -33.5q134 0 242.5 85t134.5 208l4 18h-278q-119 0 -190.5 -47.5t-71.5 -134.5zM371 1200l323 324h164l189 -324h-150l-135 209l-221 -209h-170z" />
<glyph unicode="&#xe3;" d="M80 240q0 164 118.5 247.5t323.5 83.5h291l16 78q9 40 9 70q0 158 -195 158q-201 0 -268 -150h-162q97 297 446 297q170 0 257.5 -68.5t87.5 -199.5q0 -45 -13 -105l-139 -651h-139l26 166h-8q-65 -90 -162 -140.5t-211 -50.5q-133 0 -205.5 68.5t-72.5 196.5zM244 252 q0 -62 40 -95.5t119 -33.5q134 0 242.5 85t134.5 208l4 18h-278q-119 0 -190.5 -47.5t-71.5 -134.5zM381 1200q65 289 248 289q40 0 70.5 -16t82.5 -58q34 -27 53.5 -38t41.5 -11q76 0 108 141h123q-65 -288 -248 -288q-40 0 -70.5 15.5t-82.5 57.5q-34 27 -53.5 38 t-41.5 11q-76 0 -108 -141h-123z" />
<glyph unicode="&#xe4;" d="M80 240q0 164 118.5 247.5t323.5 83.5h291l16 78q9 40 9 70q0 158 -195 158q-201 0 -268 -150h-162q97 297 446 297q170 0 257.5 -68.5t87.5 -199.5q0 -45 -13 -105l-139 -651h-139l26 166h-8q-65 -90 -162 -140.5t-211 -50.5q-133 0 -205.5 68.5t-72.5 196.5zM244 252 q0 -62 40 -95.5t119 -33.5q134 0 242.5 85t134.5 208l4 18h-278q-119 0 -190.5 -47.5t-71.5 -134.5zM408 1323q0 59 42 101t101 42q49 0 81 -31.5t32 -78.5q0 -58 -43 -101t-101 -43q-49 0 -80.5 31.5t-31.5 79.5zM817 1323q0 58 42.5 100.5t101.5 42.5q49 0 80.5 -31 t31.5 -79q0 -59 -42.5 -101.5t-100.5 -42.5q-49 0 -81 31.5t-32 79.5z" />
<glyph unicode="&#xe5;" d="M80 240q0 164 118.5 247.5t323.5 83.5h291l16 78q9 40 9 70q0 158 -195 158q-201 0 -268 -150h-162q97 297 446 297q170 0 257.5 -68.5t87.5 -199.5q0 -45 -13 -105l-139 -651h-139l26 166h-8q-65 -90 -162 -140.5t-211 -50.5q-133 0 -205.5 68.5t-72.5 196.5zM244 252 q0 -62 40 -95.5t119 -33.5q134 0 242.5 85t134.5 208l4 18h-278q-119 0 -190.5 -47.5t-71.5 -134.5zM526 1372q0 101 78.5 175.5t183.5 74.5q85 0 138 -51t53 -133q0 -101 -78.5 -175.5t-183.5 -74.5q-85 0 -138 51t-53 133zM651 1382q0 -38 21 -58.5t57 -20.5q51 0 88 36 t37 88q0 38 -21 59t-57 21q-51 0 -88 -36.5t-37 -88.5z" />
<glyph unicode="&#xe6;" d="M-35 217q0 158 109 259.5t286 101.5h146l14 71q15 84 15 115q0 63 -26 92t-83 29q-136 0 -186 -158h-150q39 148 126 222.5t216 74.5q192 0 215 -168h8q95 168 265 168q114 0 172.5 -69.5t58.5 -202.5q0 -119 -49 -303h-469q-23 -103 -23 -168q0 -166 125 -166 q121 0 164 139h150q-38 -136 -124 -207.5t-206 -71.5q-182 0 -232 168h-8q-102 -168 -280 -168q-110 0 -172 63t-62 179zM125 233q0 -118 111 -118q85 0 142 74t93 225l8 35h-133q-101 0 -161 -63t-60 -153zM662 578h313q18 91 18 163q0 144 -108 144q-78 0 -131.5 -74 t-91.5 -233z" />
<glyph unicode="&#xe7;" d="M147 326q0 81 21 180q54 255 188.5 386.5t341.5 131.5q171 0 261 -86.5t96 -247.5h-166q-7 92 -59.5 139.5t-145.5 47.5q-133 0 -222.5 -96.5t-129.5 -282.5q-19 -90 -19 -152q0 -110 51.5 -166.5t151.5 -56.5q188 0 283 188h176q-59 -152 -166.5 -236t-253.5 -98 l-82 -139q172 -3 172 -129q0 -84 -70.5 -134t-195.5 -50t-207 47l51 90q49 -35 142 -35q62 0 98.5 21t36.5 59q0 29 -23.5 41t-77.5 12h-88l125 220q-142 15 -215.5 103.5t-73.5 242.5z" />
<glyph unicode="&#xe8;" d="M127 332q0 87 20 184q52 250 188.5 379t344.5 129q174 0 264 -90t90 -258q0 -114 -28 -217h-705q-10 -68 -10 -111q0 -225 219 -225q169 0 258 131h182q-136 -279 -458 -279q-180 0 -272.5 90t-92.5 267zM336 594h528q4 40 4 59q0 224 -206 224q-230 0 -326 -283z M502 1524h194l172 -324h-151z" />
<glyph unicode="&#xe9;" d="M127 332q0 87 20 184q52 250 188.5 379t344.5 129q174 0 264 -90t90 -258q0 -114 -28 -217h-705q-10 -68 -10 -111q0 -225 219 -225q169 0 258 131h182q-136 -279 -458 -279q-180 0 -272.5 90t-92.5 267zM336 594h528q4 40 4 59q0 224 -206 224q-230 0 -326 -283z M582 1200l307 324h211l-350 -324h-168z" />
<glyph unicode="&#xea;" d="M127 332q0 87 20 184q52 250 188.5 379t344.5 129q174 0 264 -90t90 -258q0 -114 -28 -217h-705q-10 -68 -10 -111q0 -225 219 -225q169 0 258 131h182q-136 -279 -458 -279q-180 0 -272.5 90t-92.5 267zM336 594h528q4 40 4 59q0 224 -206 224q-230 0 -326 -283z M391 1200l324 324h164l188 -324h-149l-136 209l-221 -209h-170z" />
<glyph unicode="&#xeb;" d="M127 332q0 87 20 184q52 250 188.5 379t344.5 129q174 0 264 -90t90 -258q0 -114 -28 -217h-705q-10 -68 -10 -111q0 -225 219 -225q169 0 258 131h182q-136 -279 -458 -279q-180 0 -272.5 90t-92.5 267zM336 594h528q4 40 4 59q0 224 -206 224q-230 0 -326 -283z M428 1323q0 59 42 101t101 42q49 0 81 -31.5t32 -78.5q0 -59 -42.5 -101.5t-100.5 -42.5q-49 0 -81 31.5t-32 79.5zM838 1323q0 59 42 101t101 42q49 0 81 -31.5t32 -78.5q0 -58 -43 -101t-101 -43q-49 0 -80.5 31.5t-31.5 79.5z" />
<glyph unicode="&#xec;" d="M74 0l30 141h345l151 717h-344l31 141h504l-183 -858h344l-30 -141h-848zM504 1524h194l172 -324h-151z" />
<glyph unicode="&#xed;" d="M74 0l30 141h345l151 717h-344l31 141h504l-183 -858h344l-30 -141h-848zM584 1200l307 324h211l-350 -324h-168z" />
<glyph unicode="&#xee;" d="M74 0l30 141h345l151 717h-344l31 141h504l-183 -858h344l-30 -141h-848zM393 1200l324 324h164l188 -324h-149l-136 209l-221 -209h-170z" />
<glyph unicode="&#xef;" d="M74 0l30 141h345l151 717h-344l31 141h504l-183 -858h344l-30 -141h-848zM430 1323q0 59 42 101t101 42q49 0 81 -31.5t32 -78.5q0 -59 -42.5 -101.5t-100.5 -42.5q-49 0 -81 31.5t-32 79.5zM840 1323q0 59 42 101t101 42q49 0 81 -31.5t32 -78.5q0 -58 -43 -101 t-101 -43q-49 0 -80.5 31.5t-31.5 79.5z" />
<glyph unicode="&#xf0;" d="M102 334q0 142 64.5 272.5t181 214.5t254.5 84q103 0 171 -48t93 -134l6 2q2 10 2 31q0 190 -149 358l-307 -158l-62 119l271 139q-94 77 -187 134l82 127q151 -93 248 -187l191 98l61 -118l-158 -82q160 -198 160 -451q0 -100 -27 -231q-55 -257 -188 -393t-340 -136 q-173 0 -270 95t-97 264zM268 350q0 -108 54.5 -167.5t154.5 -59.5q101 0 183 61.5t124.5 154.5t42.5 193q0 107 -54 166.5t-152 59.5q-101 0 -184 -61.5t-126 -154t-43 -192.5z" />
<glyph unicode="&#xf1;" d="M74 0l213 999h139l-27 -165h9q125 190 350 190q132 0 200 -67t68 -195q0 -59 -14 -125l-135 -637h-160l135 639q10 55 10 88q0 150 -157 150q-125 0 -223 -84.5t-126 -214.5l-123 -578h-159zM395 1200q65 289 248 289q40 0 71 -16t83 -58q35 -28 53.5 -38.5t40.5 -10.5 q76 0 108 141h123q-65 -288 -248 -288q-40 0 -70.5 15.5t-82.5 57.5q-35 28 -53.5 38.5t-40.5 10.5q-77 0 -109 -141h-123z" />
<glyph unicode="&#xf2;" d="M119 328q0 79 22 186q54 250 189 380t342 130q173 0 264.5 -90.5t91.5 -261.5q0 -80 -22 -187q-54 -250 -189 -380t-342 -130q-173 0 -264.5 91t-91.5 262zM287 346q0 -223 205 -223q131 0 220 95.5t130 285.5q18 85 18 149q0 110 -52 167t-153 57q-131 0 -220 -95.5 t-130 -285.5q-18 -86 -18 -150zM496 1524h194l172 -324h-151z" />
<glyph unicode="&#xf3;" d="M119 328q0 79 22 186q54 250 189 380t342 130q173 0 264.5 -90.5t91.5 -261.5q0 -80 -22 -187q-54 -250 -189 -380t-342 -130q-173 0 -264.5 91t-91.5 262zM287 346q0 -223 205 -223q131 0 220 95.5t130 285.5q18 85 18 149q0 110 -52 167t-153 57q-131 0 -220 -95.5 t-130 -285.5q-18 -86 -18 -150zM575 1200l308 324h211l-351 -324h-168z" />
<glyph unicode="&#xf4;" d="M119 328q0 79 22 186q54 250 189 380t342 130q173 0 264.5 -90.5t91.5 -261.5q0 -80 -22 -187q-54 -250 -189 -380t-342 -130q-173 0 -264.5 91t-91.5 262zM287 346q0 -223 205 -223q131 0 220 95.5t130 285.5q18 85 18 149q0 110 -52 167t-153 57q-131 0 -220 -95.5 t-130 -285.5q-18 -86 -18 -150zM385 1200l324 324h163l189 -324h-150l-135 209l-221 -209h-170z" />
<glyph unicode="&#xf5;" d="M119 328q0 79 22 186q54 250 189 380t342 130q173 0 264.5 -90.5t91.5 -261.5q0 -80 -22 -187q-54 -250 -189 -380t-342 -130q-173 0 -264.5 91t-91.5 262zM287 346q0 -223 205 -223q131 0 220 95.5t130 285.5q18 85 18 149q0 110 -52 167t-153 57q-131 0 -220 -95.5 t-130 -285.5q-18 -86 -18 -150zM395 1200q65 289 248 289q40 0 71 -16t83 -58q35 -28 53.5 -38.5t40.5 -10.5q76 0 108 141h123q-65 -288 -248 -288q-40 0 -70.5 15.5t-82.5 57.5q-35 28 -53.5 38.5t-40.5 10.5q-77 0 -109 -141h-123z" />
<glyph unicode="&#xf6;" d="M119 328q0 79 22 186q54 250 189 380t342 130q173 0 264.5 -90.5t91.5 -261.5q0 -80 -22 -187q-54 -250 -189 -380t-342 -130q-173 0 -264.5 91t-91.5 262zM287 346q0 -223 205 -223q131 0 220 95.5t130 285.5q18 85 18 149q0 110 -52 167t-153 57q-131 0 -220 -95.5 t-130 -285.5q-18 -86 -18 -150zM422 1323q0 59 42 101t101 42q49 0 81 -31.5t32 -78.5q0 -59 -42.5 -101.5t-100.5 -42.5q-49 0 -81 31.5t-32 79.5zM831 1323q0 58 42.5 100.5t101.5 42.5q49 0 80.5 -31t31.5 -79q0 -59 -42.5 -101.5t-100.5 -42.5q-49 0 -81 31.5t-32 79.5z " />
<glyph unicode="&#xf7;" d="M125 524l31 148h909l-31 -148h-909zM369 182q0 63 47 110.5t110 47.5q54 0 89.5 -34.5t35.5 -86.5q0 -63 -47 -110.5t-110 -47.5q-54 0 -89.5 34.5t-35.5 86.5zM539 977q0 63 47.5 110.5t111.5 47.5q54 0 87.5 -34t33.5 -87q0 -63 -48 -110.5t-112 -47.5q-54 0 -87 34 t-33 87z" />
<glyph unicode="&#xf8;" d="M2 53l137 129q-20 61 -20 146q0 79 22 186q53 249 188.5 379.5t342.5 130.5q174 0 264 -90l117 110l92 -98l-137 -129q20 -61 20 -145q0 -80 -22 -187q-53 -249 -188.5 -379.5t-342.5 -130.5q-173 0 -264 91l-117 -111zM287 326h4l520 491q-54 60 -156 60 q-131 0 -220 -95.5t-130 -285.5q-18 -86 -18 -150v-20zM336 182q53 -59 156 -59q131 0 220 95.5t130 285.5q18 85 18 149v21h-4z" />
<glyph unicode="&#xf9;" d="M121 238q0 58 14 124l135 637h160l-135 -639q-10 -55 -10 -88q0 -149 157 -149q125 0 223 84.5t126 214.5l122 577h160l-213 -999h-139l27 166h-9q-125 -191 -350 -191q-131 0 -199.5 67.5t-68.5 195.5zM487 1524h195l172 -324h-152z" />
<glyph unicode="&#xfa;" d="M121 238q0 58 14 124l135 637h160l-135 -639q-10 -55 -10 -88q0 -149 157 -149q125 0 223 84.5t126 214.5l122 577h160l-213 -999h-139l27 166h-9q-125 -191 -350 -191q-131 0 -199.5 67.5t-68.5 195.5zM567 1200l307 324h211l-350 -324h-168z" />
<glyph unicode="&#xfb;" d="M121 238q0 58 14 124l135 637h160l-135 -639q-10 -55 -10 -88q0 -149 157 -149q125 0 223 84.5t126 214.5l122 577h160l-213 -999h-139l27 166h-9q-125 -191 -350 -191q-131 0 -199.5 67.5t-68.5 195.5zM377 1200l323 324h164l189 -324h-150l-135 209l-221 -209h-170z " />
<glyph unicode="&#xfc;" d="M121 238q0 58 14 124l135 637h160l-135 -639q-10 -55 -10 -88q0 -149 157 -149q125 0 223 84.5t126 214.5l122 577h160l-213 -999h-139l27 166h-9q-125 -191 -350 -191q-131 0 -199.5 67.5t-68.5 195.5zM414 1323q0 59 42 101t101 42q49 0 81 -31.5t32 -78.5 q0 -58 -43 -101t-101 -43q-49 0 -80.5 31.5t-31.5 79.5zM823 1323q0 58 42.5 100.5t101.5 42.5q49 0 80.5 -31t31.5 -79q0 -59 -42.5 -101.5t-100.5 -42.5q-49 0 -81 31.5t-32 79.5z" />
<glyph unicode="&#xfd;" d="M-147 -266q0 25 4 57l4 33h151l-4 -25q-4 -24 -4 -45q0 -82 98 -82q60 0 105 38t106 143l84 143l-172 1003h162l123 -784h8l438 784h179l-693 -1204q-86 -150 -166.5 -210t-191.5 -60q-116 0 -173.5 55t-57.5 154zM575 1200l308 324h211l-351 -324h-168z" />
<glyph unicode="&#xfe;" d="M-33 -451l406 1905h159l-129 -610h9q116 180 321 180q153 0 235.5 -94.5t82.5 -255.5q0 -77 -21 -180q-52 -251 -182 -385t-313 -134q-111 0 -180 50t-91 141h-6l-131 -617h-160zM311 358q0 -113 55.5 -174t155.5 -61q124 0 216 97.5t128 281.5q17 93 17 147 q0 111 -49.5 169.5t-145.5 58.5q-126 0 -221.5 -95.5t-130.5 -259.5l-10 -45q-15 -67 -15 -119z" />
<glyph unicode="&#xff;" d="M-147 -266q0 25 4 57l4 33h151l-4 -25q-4 -24 -4 -45q0 -82 98 -82q60 0 105 38t106 143l84 143l-172 1003h162l123 -784h8l438 784h179l-693 -1204q-86 -150 -166.5 -210t-191.5 -60q-116 0 -173.5 55t-57.5 154zM422 1323q0 59 42 101t101 42q49 0 81 -31.5t32 -78.5 q0 -59 -42.5 -101.5t-100.5 -42.5q-49 0 -81 31.5t-32 79.5zM831 1323q0 58 42.5 100.5t101.5 42.5q49 0 80.5 -31t31.5 -79q0 -59 -42.5 -101.5t-100.5 -42.5q-49 0 -81 31.5t-32 79.5z" />
<glyph unicode="&#x152;" d="M63 416q0 128 33 274q74 346 235.5 504t446.5 158h533l-29 -144h-405l-93 -438h322l-31 -143h-321l-103 -484h404l-31 -143h-522q-223 0 -331 101.5t-108 314.5zM225 434q0 -146 66 -216t205 -75l225 1065q-186 -8 -299 -137t-168 -399q-29 -148 -29 -238z" />
<glyph unicode="&#x153;" d="M-2 266q0 99 31 248q56 261 154.5 385.5t254.5 124.5q178 0 207 -168h8q50 88 114.5 128t156.5 40q243 0 243 -274q0 -109 -47 -289h-473q-22 -110 -22 -185q0 -161 129 -161q124 0 164 137h147q-38 -136 -124.5 -206.5t-211.5 -70.5q-94 0 -147 41t-70 127h-8 q-49 -87 -113 -127.5t-151 -40.5q-242 0 -242 291zM152 260q0 -77 25 -111t81 -34q87 0 142.5 88.5t101.5 300.5q33 146 33 233q0 78 -26 113t-81 35q-90 0 -144 -90.5t-100 -298.5q-32 -150 -32 -236zM676 590h317q19 97 19 151q0 144 -111 144q-81 0 -134.5 -70.5 t-90.5 -224.5z" />
<glyph unicode="&#x178;" d="M268 1352h172l183 -555h8l411 555h197l-557 -729l-133 -623h-164l133 618zM489 1645q0 58 42.5 100.5t101.5 42.5q49 0 80.5 -31.5t31.5 -79.5q0 -59 -42.5 -101t-100.5 -42q-49 0 -81 31.5t-32 79.5zM899 1645q0 59 42.5 101t100.5 42q49 0 81 -31.5t32 -79.5 q0 -59 -42.5 -101t-100.5 -42q-49 0 -81 31.5t-32 79.5z" />
<glyph unicode="&#x2c6;" d="M385 1200l324 324h163l189 -324h-150l-135 209l-221 -209h-170z" />
<glyph unicode="&#x2dc;" d="M395 1200q65 289 248 289q40 0 71 -16t83 -58q35 -28 53.5 -38.5t40.5 -10.5q76 0 108 141h123q-65 -288 -248 -288q-40 0 -70.5 15.5t-82.5 57.5q-35 28 -53.5 38.5t-40.5 10.5q-77 0 -109 -141h-123z" />
<glyph unicode="&#x2000;" horiz-adv-x="972" />
<glyph unicode="&#x2001;" horiz-adv-x="1944" />
<glyph unicode="&#x2002;" horiz-adv-x="972" />
<glyph unicode="&#x2003;" horiz-adv-x="1944" />
<glyph unicode="&#x2004;" horiz-adv-x="648" />
<glyph unicode="&#x2005;" horiz-adv-x="486" />
<glyph unicode="&#x2006;" horiz-adv-x="324" />
<glyph unicode="&#x2007;" horiz-adv-x="324" />
<glyph unicode="&#x2008;" horiz-adv-x="243" />
<glyph unicode="&#x2009;" horiz-adv-x="388" />
<glyph unicode="&#x200a;" horiz-adv-x="108" />
<glyph unicode="&#x2010;" d="M168 518l33 160h819l-33 -160h-819z" />
<glyph unicode="&#x2011;" d="M168 518l33 160h819l-33 -160h-819z" />
<glyph unicode="&#x2012;" d="M168 518l33 160h819l-33 -160h-819z" />
<glyph unicode="&#x2013;" d="M129 530l29 136h901l-29 -136h-901z" />
<glyph unicode="&#x2014;" d="M6 530l29 136h1147l-29 -136h-1147z" />
<glyph unicode="&#x2018;" d="M483 842q0 162 129 315.5t316 220.5l35 -98q-138 -57 -223 -136t-122 -200q24 6 52 6q60 0 95.5 -32t35.5 -89q0 -69 -49.5 -116t-122.5 -47q-70 0 -108 45.5t-38 130.5z" />
<glyph unicode="&#x2019;" d="M408 762q138 57 222.5 136t121.5 200q-24 -6 -52 -6q-61 0 -96 31.5t-35 88.5q0 69 49.5 116.5t122.5 47.5q70 0 108 -45.5t38 -130.5q0 -162 -129 -315.5t-316 -220.5z" />
<glyph unicode="&#x201a;" d="M174 -338q138 57 222.5 136t121.5 200q-24 -6 -51 -6q-60 0 -95.5 32t-35.5 89q0 69 49.5 116t122.5 47q70 0 107.5 -45.5t37.5 -130.5q0 -163 -128.5 -316t-315.5 -220z" />
<glyph unicode="&#x201c;" d="M246 842q0 163 128.5 316t315.5 220l35 -98q-138 -57 -222.5 -136t-121.5 -200q24 6 51 6q60 0 95.5 -32t35.5 -89q0 -69 -49.5 -116t-122.5 -47q-70 0 -107.5 45.5t-37.5 130.5zM717 842q0 163 128.5 316t315.5 220l35 -98q-138 -57 -222.5 -136t-121.5 -200q24 6 51 6 q60 0 95.5 -32t35.5 -89q0 -69 -49.5 -116t-122.5 -47q-70 0 -107.5 45.5t-37.5 130.5z" />
<glyph unicode="&#x201d;" d="M172 762q138 57 222.5 136t121.5 200q-24 -6 -51 -6q-61 0 -96 31.5t-35 88.5q0 69 49.5 116.5t122.5 47.5q70 0 107.5 -45.5t37.5 -130.5q0 -163 -128.5 -316t-315.5 -220zM643 762q138 57 222.5 136t121.5 200q-24 -6 -51 -6q-61 0 -96 31.5t-35 88.5q0 69 49.5 116.5 t122.5 47.5q70 0 107.5 -45.5t37.5 -130.5q0 -163 -128.5 -316t-315.5 -220z" />
<glyph unicode="&#x201e;" d="M-61 -338q138 57 222.5 136t121.5 200q-24 -6 -52 -6q-60 0 -95.5 32t-35.5 89q0 69 49.5 116t122.5 47q70 0 108 -45.5t38 -130.5q0 -162 -129 -315.5t-316 -220.5zM410 -338q138 57 222.5 136t121.5 200q-24 -6 -52 -6q-60 0 -95.5 32t-35.5 89q0 69 49.5 116t122.5 47 q70 0 108 -45.5t38 -130.5q0 -162 -129 -315.5t-316 -220.5z" />
<glyph unicode="&#x2022;" d="M324 625q0 134 101 233.5t237 99.5q107 0 172 -64t65 -167q0 -134 -101 -234t-237 -100q-107 0 -172 64.5t-65 167.5z" />
<glyph unicode="&#x2026;" d="M-31 96q0 65 47 111.5t113 46.5q54 0 88.5 -33.5t34.5 -87.5q0 -65 -47 -111.5t-113 -46.5q-54 0 -88.5 33.5t-34.5 87.5zM350 96q0 65 47 111.5t113 46.5q54 0 88.5 -33.5t34.5 -87.5q0 -65 -47 -111.5t-113 -46.5q-54 0 -88.5 33.5t-34.5 87.5zM731 96q0 65 47 111.5 t113 46.5q54 0 88.5 -33.5t34.5 -87.5q0 -65 -47 -111.5t-113 -46.5q-54 0 -88.5 33.5t-34.5 87.5z" />
<glyph unicode="&#x202f;" horiz-adv-x="388" />
<glyph unicode="&#x2039;" d="M309 438l31 142l537 354l-39 -184l-394 -258l285 -259l-33 -149z" />
<glyph unicode="&#x203a;" d="M272 80l39 184l394 258l-285 258l33 150l387 -355l-31 -141z" />
<glyph unicode="&#x205f;" horiz-adv-x="486" />
<glyph unicode="&#x20ac;" d="M72 449l71 122h105q13 90 37 179h-150l72 122h110q76 243 196.5 353t307.5 110q166 0 248.5 -85.5t85.5 -270.5h-168q-5 107 -48 158t-136 51q-109 0 -185.5 -74t-132.5 -242h359l-27 -122h-366q-27 -110 -39 -179h366l-24 -122h-361q-6 -53 -6 -97q0 -119 45 -174 t139 -55q92 0 160 51.5t119 157.5h168q-74 -190 -186.5 -273.5t-274.5 -83.5q-170 0 -252 88t-82 273q0 52 6 113h-157z" />
<glyph unicode="&#x2122;" d="M160 1255l20 97h434l-20 -97h-164l-106 -503h-107l107 503h-164zM584 752l127 600h149l37 -283h8l158 283h147l-127 -600h-106l104 475h-8l-184 -332h-45l-47 332h-6l-105 -475h-102z" />
<glyph unicode="&#x25fc;" horiz-adv-x="1003" d="M0 0v1004h1004v-1004h-1004z" />
<glyph unicode="&#xfb01;" d="M2 -451l266 1248h-205l29 141h205l45 207q35 165 136 249.5t261 84.5q146 0 221.5 -67.5t75.5 -190.5v-29h-153v6q0 133 -150 133q-191 0 -237 -217l-37 -176h575l-168 -797h205l-31 -141h-569l31 141h205l137 656h-416l-266 -1248h-160z" />
<glyph unicode="&#xfb02;" d="M2 -451l266 1248h-205l29 141h205l39 178q35 166 139 252t270 86h400l-234 -1100q-10 -48 -10 -80q0 -133 148 -133h22l-31 -141h-14q-138 0 -212.5 66.5t-74.5 185.5q0 48 11 96l204 965h-231q-185 0 -231 -215l-35 -160h205l-29 -141h-205l-266 -1248h-160z" />
</font>
</defs>
</svg>
