<?xml version="1.0" standalone="no"?>
<!DOCTYPE svg PUBLIC "-//W3C//DTD SVG 1.1//EN" "http://www.w3.org/Graphics/SVG/1.1/DTD/svg11.dtd" >
<svg xmlns="http://www.w3.org/2000/svg" xmlns:xlink="http://www.w3.org/1999/xlink" version="1.1">
<metadata></metadata>
<defs>
<font id="calling_codebold" horiz-adv-x="1146" >
<font-face units-per-em="2048" ascent="1526" descent="-522" />
<missing-glyph horiz-adv-x="500" />
<glyph horiz-adv-x="0" />
<glyph horiz-adv-x="682" />
<glyph unicode="&#xd;" />
<glyph unicode=" " />
<glyph unicode="!" d="M383 166q0 82 54 136t136 54t136.5 -54t54.5 -136t-54.5 -136.5t-136.5 -54.5t-136 54.5t-54 136.5zM406 1352h335l-84 -856h-168z" />
<glyph unicode="&#x22;" d="M195 1352h303l-56 -746h-192zM649 1352h303l-55 -746h-192z" />
<glyph unicode="#" d="M51 336l25 176h184l39 287h-182l24 176h185l47 336h188l-49 -336h211l49 336h189l-48 -336h183l-25 -176h-184l-39 -287h182l-24 -176h-185l-47 -336h-190l49 336h-211l-49 -336h-187l47 336h-182zM446 512h211l41 287h-211z" />
<glyph unicode="$" d="M137 410h246q3 -144 195 -144q85 0 132.5 33.5t47.5 93.5q0 50 -33.5 79t-112.5 50l-120 31q-170 43 -248 128t-78 230q0 155 82 244.5t235 110.5l-26 219h227l-27 -221q148 -20 229 -107.5t85 -234.5h-246q-14 125 -156 125q-71 0 -112 -34t-41 -95q0 -51 33 -80.5 t112 -49.5l121 -30q170 -43 248 -128.5t78 -230.5q0 -153 -91 -244t-260 -110l27 -219h-227l26 219q-340 37 -346 365z" />
<glyph unicode="%" d="M-2 147l391 404l105 -94l-359 -437zM27 985q0 338 280 338q281 0 281 -338t-281 -338q-280 0 -280 338zM203 985q0 -100 24.5 -144t79.5 -44q56 0 80.5 44t24.5 144t-25 144.5t-80 44.5t-79.5 -44.5t-24.5 -144.5zM559 326q0 338 281 338q280 0 280 -338t-280 -338 q-281 0 -281 338zM653 840l359 434l137 -125l-391 -404zM735 326q0 -100 25 -144.5t80 -44.5t79.5 44.5t24.5 144.5t-24.5 144t-79.5 44q-56 0 -80.5 -44t-24.5 -144z" />
<glyph unicode="&#x26;" d="M66 362q0 218 200 361q-68 99 -94.5 171.5t-26.5 145.5q0 154 94.5 245t252.5 91q154 0 250 -88t96 -229q0 -106 -62.5 -191.5t-204.5 -171.5l195 -245h4q29 106 29 231h217q0 -265 -111 -406l219 -276h-303l-63 84q-95 -109 -287 -109q-183 0 -294 106.5t-111 280.5z M315 381q0 -88 50 -140.5t133 -52.5q80 0 139 50l-254 325q-68 -77 -68 -182zM385 1038q0 -86 74 -196q85 56 118 101.5t33 103.5q0 53 -30.5 84.5t-81.5 31.5q-53 0 -83 -33.5t-30 -91.5z" />
<glyph unicode="'" d="M422 1352h303l-55 -746h-193z" />
<glyph unicode="(" d="M242 614q0 345 180.5 583.5t505.5 326.5v-207q-217 -74 -330 -257t-113 -446t113 -445.5t330 -256.5v-207q-325 88 -505.5 326t-180.5 583z" />
<glyph unicode=")" d="M219 -88q217 74 330 256.5t113 445.5t-113 446t-330 257v207q325 -88 505.5 -326.5t180.5 -583.5t-180.5 -583t-505.5 -326v207z" />
<glyph unicode="*" d="M96 496l346 139v8l-346 139l113 199l293 -229l8 4l-53 368h233l-53 -368l8 -4l293 229l113 -199l-346 -139v-8l346 -139l-113 -199l-293 229l-8 -4l53 -368h-233l53 368l-8 4l-293 -229z" />
<glyph unicode="+" d="M102 485v226h359v358h225v-358h358v-226h-358v-358h-225v358h-359z" />
<glyph unicode="," d="M309 -274q112 43 178 114t80 156h-4q-85 0 -143 58.5t-58 144.5q0 85 58.5 141.5t146.5 56.5q102 0 163 -76t61 -204q0 -185 -118.5 -339.5t-291.5 -211.5z" />
<glyph unicode="-" d="M164 473v250h819v-250h-819z" />
<glyph unicode="." d="M362 186q0 89 61 150t150 61t150 -61t61 -150t-61 -150t-150 -61t-150 61t-61 150z" />
<glyph unicode="/" d="M80 -102l743 1556h244l-743 -1556h-244z" />
<glyph unicode="0" d="M94 655q0 352 115.5 516t363.5 164t364 -164.5t116 -515.5t-116 -515.5t-364 -164.5t-363.5 164t-115.5 516zM362 655q0 -250 47 -350t164 -100t164 100t47 350t-47 350.5t-164 100.5t-164 -100.5t-47 -350.5zM418 655q0 66 44.5 111t110.5 45t111 -45t45 -111 t-45 -110.5t-111 -44.5t-110.5 44.5t-44.5 110.5z" />
<glyph unicode="1" d="M152 1059l401 252h215v-1090h303v-221h-864v221h303v799l-285 -117z" />
<glyph unicode="2" d="M135 0v201l479 508q62 65 88.5 118.5t26.5 116.5q0 76 -44 119t-122 43q-79 0 -122.5 -43t-43.5 -123v-45h-262v66q0 172 117 273t315 101q203 0 316.5 -103.5t113.5 -287.5q0 -106 -42 -192t-146 -193l-332 -338h520v-221h-862z" />
<glyph unicode="3" d="M104 387h261q0 -88 50 -135t142 -47t142.5 46t50.5 126q0 83 -56 126.5t-164 43.5h-129v221h129q89 0 136 43t47 125q0 80 -42.5 125t-117.5 45t-118.5 -43.5t-43.5 -118.5h-260q0 184 112.5 287.5t311.5 103.5q196 0 311 -100.5t115 -269.5q0 -205 -170 -285v-8 q207 -84 207 -312q0 -179 -123 -282t-338 -103q-216 0 -334.5 107.5t-118.5 304.5z" />
<glyph unicode="4" d="M92 311v242l522 758h293v-779h160v-221h-160v-311h-258v311h-557zM342 532h315v461h-8z" />
<glyph unicode="5" d="M111 365h266q11 -75 62 -117.5t132 -42.5q93 0 145 54.5t52 152.5t-52 152t-145 54q-115 0 -180 -83l-235 81l75 695h713v-221h-498l-34 -320l8 -4q83 80 223 80q180 0 286.5 -114.5t106.5 -307.5q0 -212 -122.5 -330.5t-342.5 -118.5q-202 0 -325 104t-135 286z" />
<glyph unicode="6" d="M117 410q0 99 20 169t76 164l332 568h295l-336 -529l6 -6q71 47 152 47q163 0 269.5 -117t106.5 -296q0 -195 -126.5 -315t-333.5 -120t-334 120t-127 315zM381 406q0 -94 52.5 -147.5t144.5 -53.5t144 53.5t52 147.5t-52 147t-144 53t-144.5 -53t-52.5 -147z" />
<glyph unicode="7" d="M129 1090v221h895v-199l-586 -1112h-286l583 1090h-606z" />
<glyph unicode="8" d="M102 338q0 121 66.5 204.5t177.5 129.5v8q-207 104 -207 307q0 156 117.5 252t316.5 96t317 -96.5t118 -251.5q0 -203 -207 -307v-8q111 -46 177 -129.5t66 -204.5q0 -165 -125 -264t-346 -99t-346 99t-125 264zM371 356q0 -68 53 -109.5t149 -41.5t149.5 41.5 t53.5 109.5q0 41 -19.5 75.5t-52.5 57t-65 36t-66 22.5q-34 -9 -66 -22.5t-64.5 -36t-52 -57t-19.5 -75.5zM408 954q0 -127 165 -186q166 59 166 186q0 67 -44.5 109.5t-121.5 42.5t-121 -42.5t-44 -109.5z" />
<glyph unicode="9" d="M111 901q0 195 126.5 314.5t333.5 119.5t334 -119.5t127 -314.5q0 -100 -20 -170t-76 -164l-332 -567h-295l336 528l-6 7q-73 -48 -152 -48q-163 0 -269.5 117.5t-106.5 296.5zM375 905q0 -94 52 -147t144 -53t144.5 53t52.5 147t-52.5 147.5t-144.5 53.5t-144 -53.5 t-52 -147.5z" />
<glyph unicode=":" d="M362 186q0 89 61 150t150 61t150 -61t61 -150t-61 -150t-150 -61t-150 61t-61 150zM362 813q0 89 61 150t150 61t150 -61t61 -150t-61 -150t-150 -61t-150 61t-61 150z" />
<glyph unicode=";" d="M309 -274q112 43 178 114t80 156h-4q-85 0 -143 58.5t-58 144.5q0 85 58.5 141.5t146.5 56.5q102 0 163 -76t61 -204q0 -185 -118.5 -339.5t-291.5 -211.5zM362 813q0 89 61 150t150 61t150 -61t61 -150t-61 -150t-150 -61t-150 61t-61 150z" />
<glyph unicode="&#x3c;" d="M141 500v196l820 490v-258l-551 -330l551 -330v-258z" />
<glyph unicode="=" d="M123 281v225h901v-225h-901zM123 690v225h901v-225h-901z" />
<glyph unicode="&#x3e;" d="M186 10v258l551 330l-551 330v258l820 -490v-196z" />
<glyph unicode="?" d="M166 965v47q0 172 106 268t295 96q184 0 294 -93.5t110 -250.5q0 -74 -16.5 -121.5t-56.5 -93t-128 -119.5q-67 -57 -87.5 -89t-20.5 -79v-34h-252v63q0 92 32.5 146t141.5 145q74 62 96 94.5t22 79.5q0 58 -36 90.5t-101 32.5q-69 0 -105 -39t-36 -111v-32h-258z M356 166q0 82 54.5 136t136.5 54t136 -54t54 -136t-54 -136.5t-136 -54.5t-136.5 54.5t-54.5 136.5z" />
<glyph unicode="@" d="M47 614q0 325 163.5 518t438.5 193q214 0 323 -123t109 -362v-523h-159l-25 134h-8q-70 -158 -246 -158q-123 0 -197.5 80t-74.5 211q0 149 94.5 230t267.5 81h135q-9 123 -64 180.5t-163 57.5q-172 0 -274.5 -142t-102.5 -381t105.5 -376.5t289.5 -137.5q125 0 232 72 l76 -174q-125 -90 -318 -90q-275 0 -438.5 192.5t-163.5 517.5zM586 604q0 -53 34 -85t89 -32q75 0 118 57.5t43 157.5v23h-139q-69 0 -107 -31.5t-38 -89.5z" />
<glyph unicode="A" d="M51 0l369 1352h307l369 -1352h-277l-69 297h-365l-68 -297h-266zM438 526h260l-127 545h-8z" />
<glyph unicode="B" d="M158 0v1352h432q426 0 426 -346q0 -216 -189 -289v-6q238 -70 238 -324q0 -387 -426 -387h-481zM424 233h180q97 0 140.5 42.5t43.5 136.5q0 89 -43.5 129.5t-140.5 40.5h-180v-349zM424 809h137q97 0 140.5 37t43.5 119q0 81 -43.5 117t-140.5 36h-137v-309z" />
<glyph unicode="C" d="M117 676q0 364 114 532t361 168q215 0 329.5 -124t139.5 -384h-275q-15 135 -60.5 196.5t-131.5 61.5q-109 0 -155 -103.5t-46 -346.5t46 -347t155 -104q86 0 131.5 61.5t60.5 196.5h275q-25 -260 -139.5 -384t-329.5 -124q-247 0 -361 168.5t-114 532.5z" />
<glyph unicode="D" d="M147 0v1352h363q287 0 421 -163t134 -513t-134 -513t-421 -163h-363zM414 240h67q91 0 148 20.5t93.5 72t51 133t14.5 210.5t-14.5 210.5t-51 133t-93.5 72t-148 20.5h-67v-872z" />
<glyph unicode="E" d="M190 0v1352h852v-240h-585v-301h463v-231h-463v-340h585v-240h-852z" />
<glyph unicode="F" d="M207 0v1352h852v-240h-586v-315h463v-240h-463v-557h-266z" />
<glyph unicode="G" d="M88 676q0 365 114.5 532.5t364.5 167.5q201 0 314.5 -104.5t148.5 -321.5h-278q-20 91 -64.5 133.5t-118.5 42.5q-112 0 -158 -101t-46 -349q0 -237 52 -344t167 -107q101 0 148.5 78t49.5 244h-239v223h497v-770h-168l-28 188h-8q-72 -213 -306 -213q-218 0 -330 177.5 t-112 523.5z" />
<glyph unicode="H" d="M133 0v1352h266v-537h349v537h266v-1352h-266v575h-349v-575h-266z" />
<glyph unicode="I" d="M154 0v240h286v872h-286v240h839v-240h-286v-872h286v-240h-839z" />
<glyph unicode="J" d="M98 383v135h258v-119q0 -83 44 -128.5t126 -45.5t126 45.5t44 128.5v713h-411v240h678v-969q0 -192 -115 -300t-318 -108t-317.5 108t-114.5 300z" />
<glyph unicode="K" d="M154 0v1352h266v-602h8l375 602h301l-418 -658l447 -694h-312l-393 621h-8v-621h-266z" />
<glyph unicode="L" d="M211 0v1352h266v-1112h582v-240h-848z" />
<glyph unicode="M" d="M100 0v1352h287l180 -623h11l180 623h289v-1352h-232v999h-8l-191 -657h-94l-190 657h-8v-999h-224z" />
<glyph unicode="N" d="M131 0v1352h268l369 -850h8v850h240v-1352h-240l-397 918h-8v-918h-240z" />
<glyph unicode="O" d="M94 676q0 365 114.5 532.5t364.5 167.5t365 -167.5t115 -532.5t-115 -533t-365 -168t-364.5 167.5t-114.5 533.5zM371 676q0 -247 46 -349t156 -102q111 0 157 102t46 349t-46 348.5t-157 101.5q-110 0 -156 -101.5t-46 -348.5z" />
<glyph unicode="P" d="M178 0v1352h436q223 0 338 -108.5t115 -317.5t-115 -317.5t-338 -108.5h-170v-500h-266zM444 739h142q108 0 156.5 44.5t48.5 142.5t-48 142t-157 44h-142v-373z" />
<glyph unicode="Q" d="M94 676q0 365 114.5 532.5t364.5 167.5t365 -167.5t115 -532.5q0 -302 -77.5 -467.5t-242.5 -212.5v-57q0 -66 28.5 -97.5t88.5 -31.5t88.5 31.5t28.5 97.5v20h223v-43q0 -156 -93 -243t-259 -87q-165 0 -257 87t-92 243v64q-205 26 -300 194t-95 502zM371 676 q0 -247 46 -349t156 -102q111 0 157 102t46 349t-46 348.5t-157 101.5q-110 0 -156 -101.5t-46 -348.5z" />
<glyph unicode="R" d="M164 0v1352h432q223 0 337 -104t114 -306q0 -285 -220 -371l252 -571h-291l-225 532h-133v-532h-266zM430 772h137q107 0 154 40t47 130t-47 130t-154 40h-137v-340z" />
<glyph unicode="S" d="M109 391h268q3 -82 52.5 -125t141.5 -43q91 0 142 41.5t51 112.5q0 63 -37 100.5t-119 59.5l-135 36q-178 48 -257 140.5t-79 257.5q0 189 115 297t315 108q198 0 313.5 -105t118.5 -288h-268q-1 67 -44.5 106t-117.5 39q-72 0 -115.5 -40.5t-43.5 -106.5 q0 -63 36.5 -100.5t118.5 -59.5l135 -37q178 -48 257 -140t79 -255q0 -195 -121.5 -304.5t-339.5 -109.5q-221 0 -343 108.5t-123 307.5z" />
<glyph unicode="T" d="M92 1112v240h963v-240h-348v-1112h-267v1112h-348z" />
<glyph unicode="U" d="M133 430v922h266v-916q0 -110 43.5 -160.5t137.5 -50.5q92 0 135 50.5t43 160.5v916h256v-922q0 -231 -109 -343t-332 -112t-331.5 112t-108.5 343z" />
<glyph unicode="V" d="M78 1352h276l219 -938h9l219 938h266l-358 -1352h-273z" />
<glyph unicode="W" d="M23 1352h225l106 -899h8l136 899h159l136 -899h8l106 899h217l-176 -1352h-237l-131 872h-9l-131 -872h-241z" />
<glyph unicode="X" d="M41 0l375 694l-355 658h299l218 -422h8l213 422h286l-354 -658l375 -694h-299l-238 461h-8l-233 -461h-287z" />
<glyph unicode="Y" d="M41 1352h299l235 -465h9l235 465h287l-399 -742v-610h-267v610z" />
<glyph unicode="Z" d="M125 0v186l565 926h-534v240h862v-187l-567 -925h567v-240h-893z" />
<glyph unicode="[" d="M305 -258v1745h649v-203h-407v-1339h407v-203h-649z" />
<glyph unicode="\" d="M80 1454h244l743 -1556h-244z" />
<glyph unicode="]" d="M193 -55h407v1339h-407v203h649v-1745h-649v203z" />
<glyph unicode="^" d="M102 635l373 676h197l372 -676h-256l-210 393h-9l-211 -393h-256z" />
<glyph unicode="_" d="M123 -125h901v-205h-901v205z" />
<glyph unicode="`" d="M209 1524h287l272 -369h-211z" />
<glyph unicode="a" d="M109 285q0 154 107 234.5t310 80.5h203v31q0 180 -168 180q-66 0 -109 -28.5t-55 -86.5h-256q15 160 123.5 244t302.5 84q206 0 313 -94.5t107 -278.5v-651h-239l-11 162h-8q-39 -89 -118 -138t-187 -49q-145 0 -230 84.5t-85 225.5zM373 299q0 -52 34.5 -81.5 t102.5 -29.5q93 0 156 60.5t63 159.5v12h-203q-72 0 -112.5 -31.5t-40.5 -89.5z" />
<glyph unicode="b" d="M154 0v1454h258v-604h8q65 174 256 174q92 0 164 -40t117.5 -111.5t68.5 -166t23 -206.5q0 -152 -40 -268.5t-125.5 -186.5t-207.5 -70q-198 0 -264 187h-9l-10 -162h-239zM412 479q0 -141 50.5 -207.5t137.5 -66.5q180 0 180 295t-180 295q-87 0 -137.5 -67t-50.5 -208 v-41z" />
<glyph unicode="c" d="M139 500q0 255 116 389.5t337 134.5q184 0 296 -94t144 -275h-272q-20 73 -61.5 106.5t-106.5 33.5q-95 0 -139.5 -71t-44.5 -224t44.5 -224t139.5 -71q130 0 168 139h272q-32 -181 -144 -275t-296 -94q-221 0 -337 135t-116 390z" />
<glyph unicode="d" d="M98 500q0 112 23 206.5t68.5 166t117.5 111.5t164 40q191 0 256 -174h8v604h258v-1454h-239l-11 162h-8q-66 -187 -264 -187q-122 0 -207.5 70t-125.5 186.5t-40 268.5zM367 500q0 -295 180 -295q87 0 137.5 66.5t50.5 207.5v41q0 141 -50.5 208t-137.5 67 q-180 0 -180 -295z" />
<glyph unicode="e" d="M121 506q0 250 116.5 384t335.5 134q221 0 339 -134t118 -374q0 -50 -4 -86h-641q10 -126 60.5 -184t146.5 -58q54 0 90.5 21.5t58.5 77.5h279q-43 -152 -153 -232t-279 -80q-224 0 -345.5 137t-121.5 394zM389 610h373q-12 106 -57.5 153.5t-129.5 47.5t-129 -47.5 t-57 -153.5z" />
<glyph unicode="f" d="M125 725v221h229v182q0 167 98 259t277 92q169 0 267 -87.5t104 -244.5h-246q-12 102 -119 102q-60 0 -91.5 -34.5t-31.5 -100.5v-168h410v-221h-410v-725h-258v725h-229z" />
<glyph unicode="g" d="M84 -195q0 167 186 218v8q-66 19 -102.5 63t-36.5 107q0 131 156 192v8q-162 86 -162 285q0 163 109.5 250.5t312.5 87.5q142 0 244 -45l6 2q31 91 99.5 138.5t168.5 47.5h70v-241h-138q-64 0 -100 -25q72 -84 72 -215q0 -163 -109.5 -250.5t-312.5 -87.5q-68 0 -115 8 q-57 -25 -57 -84q0 -34 23 -53.5t63 -19.5h198q211 0 313.5 -79t102.5 -243q0 -179 -127 -265.5t-387 -86.5q-477 0 -477 280zM346 -139q0 -61 52.5 -88t176.5 -27q128 0 183 29t55 94q0 58 -45 82t-154 24h-73q-100 0 -147.5 -27t-47.5 -87zM383 686q0 -64 42 -97.5 t122 -33.5t122 33.5t42 97.5t-42 97.5t-122 33.5t-122 -33.5t-42 -97.5z" />
<glyph unicode="h" d="M162 0v1454h258v-604h8q67 174 270 174q146 0 222.5 -89t76.5 -255v-680h-258v657q0 66 -34.5 102t-100.5 36q-81 0 -132.5 -52t-51.5 -145v-598h-258z" />
<glyph unicode="i" d="M178 0v221h303v557h-303v221h561v-778h303v-221h-864zM430 1317q0 69 46.5 115.5t115.5 46.5t115.5 -46.5t46.5 -115.5t-46.5 -115.5t-115.5 -46.5t-115.5 46.5t-46.5 115.5z" />
<glyph unicode="j" d="M143 -39h246v-72q0 -64 32 -99.5t91 -35.5q57 0 88 35t31 100v889h-432v221h690v-1124q0 -166 -98 -258t-273 -92q-177 0 -276 92t-99 258v86zM580 1317q0 69 46 115.5t115 46.5t115.5 -46.5t46.5 -115.5t-46.5 -115.5t-115.5 -46.5t-115 46.5t-46 115.5z" />
<glyph unicode="k" d="M180 0v1454h258v-862h8l310 407h313l-362 -456l391 -543h-312l-340 481h-8v-481h-258z" />
<glyph unicode="l" d="M72 1233v221h483v-1114q0 -65 31 -100t88 -35q59 0 91 35.5t32 99.5v125h245v-139q0 -166 -98.5 -258.5t-275.5 -92.5q-175 0 -273 92.5t-98 258.5v907h-225z" />
<glyph unicode="m" d="M76 0v999h192l8 -143h9q46 168 192 168q142 0 176 -168h9q49 168 204 168q108 0 159.5 -76t51.5 -237v-711h-225v698q0 97 -74 97q-48 0 -75 -33t-27 -94v-668h-199v698q0 97 -74 97q-48 0 -75 -33t-27 -94v-668h-225z" />
<glyph unicode="n" d="M162 0v999h239l11 -161h8q71 186 278 186q146 0 222.5 -89t76.5 -255v-680h-258v657q0 66 -34.5 102t-100.5 36q-81 0 -132.5 -52t-51.5 -145v-598h-258z" />
<glyph unicode="o" d="M121 500q0 255 115.5 389.5t336.5 134.5t337 -134.5t116 -389.5t-116 -390t-337 -135t-336.5 135t-115.5 390zM389 500q0 -153 44.5 -224t139.5 -71q96 0 140.5 71t44.5 224t-44.5 224t-140.5 71q-95 0 -139.5 -71t-44.5 -224z" />
<glyph unicode="p" d="M154 -451v1450h239l10 -161h9q66 186 264 186q122 0 207.5 -70t125.5 -186t40 -268q0 -151 -40 -267.5t-125.5 -187t-207.5 -70.5q-191 0 -256 175h-8v-601h-258zM412 479q0 -141 50.5 -207.5t137.5 -66.5q180 0 180 295t-180 295q-87 0 -137.5 -67t-50.5 -208v-41z" />
<glyph unicode="q" d="M98 500q0 152 40 268t125.5 186t207.5 70q198 0 264 -186h8l11 161h239v-1450h-258v601h-8q-65 -175 -256 -175q-122 0 -207.5 70.5t-125.5 187t-40 267.5zM367 500q0 -295 180 -295q87 0 137.5 66.5t50.5 207.5v41q0 141 -50.5 208t-137.5 67q-180 0 -180 -295z" />
<glyph unicode="r" d="M201 0v999h239l11 -161h8q69 186 276 186q142 0 217.5 -89t75.5 -255v-178h-258v139q0 154 -133 154q-81 0 -129.5 -53.5t-48.5 -143.5v-598h-258z" />
<glyph unicode="s" d="M131 297h254q6 -62 50.5 -88.5t142.5 -26.5q174 0 174 111q0 43 -27 64t-94 30l-148 21q-169 23 -243 92.5t-74 204.5q0 148 106 233.5t293 85.5q194 0 301 -80t111 -229h-248q0 102 -154 102q-151 0 -151 -102q0 -43 27 -64t94 -30l145 -21q170 -23 245 -92.5t75 -204.5 q0 -156 -115.5 -242t-321.5 -86q-209 0 -324 84t-118 238z" />
<glyph unicode="t" d="M63 778v221h244l41 353h203v-353h410v-221h-410v-438q0 -65 31 -100t88 -35q59 0 91 35.5t32 99.5v125h245v-139q0 -166 -98.5 -258.5t-275.5 -92.5q-175 0 -273 92.5t-98 258.5v452h-230z" />
<glyph unicode="u" d="M150 319v680h258v-657q0 -66 34.5 -101.5t100.5 -35.5q81 0 132.5 52t51.5 144v598h258v-999h-240l-10 162h-8q-71 -187 -278 -187q-146 0 -222.5 89t-76.5 255z" />
<glyph unicode="v" d="M92 999h277l206 -651h9l207 651h266l-361 -999h-243z" />
<glyph unicode="w" d="M25 999h221l106 -665h8l136 665h163l136 -665h8l106 665h213l-186 -999h-227l-129 635h-9l-129 -635h-231z" />
<glyph unicode="x" d="M66 0l350 514l-330 485h309l191 -288l178 288h297l-330 -485l350 -514h-309l-213 322l-197 -322h-296z" />
<glyph unicode="y" d="M-2 -119h227v-45q0 -40 21 -61t59 -21q35 0 56 20.5t40 71.5l58 164l-367 989h277l215 -653h8l201 653h264l-410 -1171q-59 -167 -135.5 -235t-206.5 -68q-150 0 -228.5 77t-78.5 220v59z" />
<glyph unicode="z" d="M141 0v176l500 602h-469v221h825v-176l-499 -602h499v-221h-856z" />
<glyph unicode="{" d="M168 514v201h84q83 0 121.5 40.5t38.5 125.5q0 20 -9 108q-10 117 -10 144q0 192 111 283t342 91h117v-202h-107q-112 0 -161.5 -42.5t-49.5 -138.5q0 -28 8 -114q9 -101 9 -133q0 -111 -45.5 -175t-141.5 -84v-8q96 -20 141.5 -83.5t45.5 -174.5q0 -32 -9 -133 q-8 -86 -8 -115q0 -95 49.5 -137.5t161.5 -42.5h107v-203h-117q-231 0 -342 91.5t-111 283.5q0 27 10 144q9 88 9 108q0 85 -38.5 125.5t-121.5 40.5h-84z" />
<glyph unicode="|" d="M465 -522v2048h217v-2048h-217z" />
<glyph unicode="}" d="M184 -76h107q112 0 161.5 42.5t49.5 137.5q0 29 -8 115q-9 101 -9 133q0 111 45.5 174.5t141.5 83.5v8q-96 20 -141.5 84t-45.5 175q0 32 9 133q8 86 8 114q0 96 -49.5 138.5t-161.5 42.5h-107v202h117q231 0 342 -91t111 -283q0 -15 -11 -144q-8 -78 -8 -108 q0 -85 38.5 -125.5t121.5 -40.5h84v-201h-84q-83 0 -121.5 -40.5t-38.5 -125.5q0 -30 8 -108q11 -129 11 -144q0 -192 -111 -283.5t-342 -91.5h-117v203z" />
<glyph unicode="~" d="M102 365q6 228 76 347t215 119q81 0 130.5 -34.5t99.5 -102.5q49 -67 70.5 -86.5t51.5 -19.5q53 0 75.5 52.5t25.5 186.5h198q-6 -228 -75.5 -347.5t-214.5 -119.5q-56 0 -101 21t-70.5 46.5t-58.5 70.5q-49 67 -71 86.5t-52 19.5q-53 0 -75 -52.5t-25 -186.5h-199z" />
<glyph unicode="&#xa0;" />
<glyph unicode="&#xa1;" d="M383 834q0 82 54 136t136 54t136.5 -54t54.5 -136t-54.5 -136.5t-136.5 -54.5t-136 54.5t-54 136.5zM406 -352l83 856h168l84 -856h-335z" />
<glyph unicode="&#xa2;" d="M139 563q0 477 361 520l-25 217h227l-24 -217q297 -29 354 -364h-272q-17 72 -55 105.5t-103 33.5h-20q-94 0 -134 -69.5t-40 -225.5t40 -225.5t134 -69.5h20q64 0 102.5 34t55.5 106h272q-57 -336 -354 -365l24 -217h-227l25 217q-361 43 -361 520z" />
<glyph unicode="&#xa3;" d="M125 0v199q127 35 183.5 105.5t56.5 152.5q0 44 -27 106h-213v176l111 17q-54 110 -54 202q0 175 108.5 276t297.5 101t297 -102t108 -279h-258q0 78 -35 115t-108 37q-141 0 -141 -145q0 -66 53 -177h403v-221h-321q6 -37 6 -80q0 -169 -139 -254v-8h270q34 0 46.5 12 t12.5 43v84h258v-143q0 -105 -56 -161t-161 -56h-698z" />
<glyph unicode="&#xa4;" d="M43 285l201 186q-47 80 -47 184q0 105 47 185l-201 186l160 160l188 -205q80 41 182 41q103 0 183 -41l188 205l160 -160l-201 -186q47 -80 47 -185q0 -104 -47 -184l201 -186l-160 -160l-188 205q-80 -41 -183 -41q-102 0 -182 41l-188 -205zM418 655q0 -69 43 -112 t112 -43t112.5 43t43.5 112t-43.5 112.5t-112.5 43.5t-112 -43.5t-43 -112.5z" />
<glyph unicode="&#xa5;" d="M43 1311h303l229 -373h9l229 373h291l-381 -574h287v-178h-308v-141h308v-178h-308v-240h-258v240h-307v178h307v141h-307v178h287z" />
<glyph unicode="&#xa6;" d="M465 307h217v-829h-217v829zM465 696v830h217v-830h-217z" />
<glyph unicode="&#xa7;" d="M96 514q0 174 189 262v8q-111 88 -111 252q0 154 109 247t288 93q163 0 270 -85t117 -224h-245q-12 102 -144 102q-65 0 -101 -31.5t-36 -88.5q0 -45 35 -76.5t102 -46.5l187 -43q150 -34 222.5 -104.5t72.5 -186.5q0 -174 -189 -262v-8q111 -88 111 -252 q0 -153 -109.5 -246.5t-288.5 -93.5q-163 0 -270 85t-117 224h246q12 -102 144 -102q65 0 101 31.5t36 88.5q0 45 -35 76.5t-102 46.5l-187 43q-150 34 -222.5 104.5t-72.5 186.5zM354 567q0 -92 138 -123l180 -41q121 41 121 136q0 92 -138 123l-180 40q-121 -41 -121 -135 z" />
<glyph unicode="&#xa8;" d="M221 1317q0 63 42.5 105t105.5 42t105 -42t42 -105t-42 -105.5t-105 -42.5t-105.5 42.5t-42.5 105.5zM631 1317q0 63 42 105t105 42t105.5 -42t42.5 -105t-42.5 -105.5t-105.5 -42.5t-105 42.5t-42 105.5z" />
<glyph unicode="&#xa9;" d="M41 750q0 296 140 461t392 165t392.5 -165t140.5 -461t-140.5 -461.5t-392.5 -165.5t-392 165.5t-140 461.5zM199 750q0 -234 97 -361t277 -127t277.5 127.5t97.5 360.5t-97.5 360t-277.5 127t-277 -126.5t-97 -360.5zM309 750q0 348 264 348q234 0 261 -256h-166 q-15 112 -93 112q-53 0 -76.5 -47.5t-23.5 -156.5q0 -110 23.5 -158.5t76.5 -48.5q75 0 93 114h166q-27 -256 -261 -256q-264 0 -264 349z" />
<glyph unicode="&#xaa;" d="M184 862q0 129 90.5 196.5t262.5 67.5h172v23q0 147 -142 147q-117 0 -135 -94h-221q7 135 100 206t260 71q178 0 269.5 -79t91.5 -233v-544h-207l-8 133h-8q-33 -73 -100 -113.5t-158 -40.5q-122 0 -194.5 71t-72.5 189zM205 236v182h717v-182h-717zM412 877 q0 -44 29 -68.5t83 -24.5q81 0 133 50.5t52 128.5v8h-172q-60 0 -92.5 -25t-32.5 -69z" />
<glyph unicode="&#xab;" d="M96 420v174l410 385v-272l-207 -199l207 -201v-272zM575 420v174l410 385v-272l-207 -199l207 -201v-272z" />
<glyph unicode="&#xac;" d="M102 485v226h891v-584h-225v358h-666z" />
<glyph unicode="&#xad;" d="M164 473v250h819v-250h-819z" />
<glyph unicode="&#xae;" d="M41 750q0 296 140 461t392 165t392.5 -165t140.5 -461t-140.5 -461.5t-392.5 -165.5t-392 165.5t-140 461.5zM199 750q0 -234 97 -361t277 -127t277.5 127.5t97.5 360.5t-97.5 360t-277.5 127t-277 -126.5t-97 -360.5zM348 424v651h234q124 0 183.5 -47.5t59.5 -148.5 q0 -141 -125 -181l150 -274h-174l-133 260h-35v-260h-160zM498 803h90q82 0 82 71q0 74 -82 74h-90v-145z" />
<glyph unicode="&#xaf;" d="M258 1227v178h631v-178h-631z" />
<glyph unicode="&#xb0;" d="M215 1022q0 153 101.5 253.5t256.5 100.5t257 -101t102 -253t-102 -253t-257 -101t-256.5 100.5t-101.5 253.5zM418 1022q0 -72 43.5 -118t111.5 -46t112 46t44 118t-44 118t-112 46t-111.5 -46t-43.5 -118z" />
<glyph unicode="&#xb1;" d="M123 70v225h901v-225h-901zM123 645v225h338v287h225v-287h338v-225h-338v-287h-225v287h-338z" />
<glyph unicode="&#xb2;" d="M215 668v178l387 311q50 39 70 69t20 64q0 53 -35 82t-98 29q-65 0 -100 -29.5t-35 -83.5v-20h-209v32q0 135 92.5 212t255.5 77t256.5 -76.5t93.5 -209.5q0 -83 -35 -142.5t-120 -122.5l-242 -180v-6h397v-184h-698z" />
<glyph unicode="&#xb3;" d="M186 950h215q0 -108 156 -108q73 0 114.5 26t41.5 72q0 52 -35.5 75t-114.5 23h-135v174h135q123 0 123 97q0 47 -34.5 72.5t-98.5 25.5q-137 0 -137 -96h-213q0 135 90 206.5t262 71.5q164 0 258 -69t94 -189q0 -131 -129 -180v-8q158 -55 158 -213q0 -129 -99 -202 t-276 -73q-183 0 -279 75t-96 220z" />
<glyph unicode="&#xb4;" d="M379 1155l272 369h287l-348 -369h-211z" />
<glyph unicode="&#xb5;" d="M158 -451v1450h258v-675q0 -57 31.5 -88t89.5 -31q77 0 120 54t43 151v589h258v-747q0 -47 56 -47q33 0 61 14v-217q-59 -27 -135 -27q-99 0 -158 48.5t-59 128.5v10h-8q-57 -187 -217 -187q-58 0 -105 29h-8q5 -153 31 -256v-199h-258z" />
<glyph unicode="&#xb6;" d="M76 952q0 400 422 400h90v-801h-90q-422 0 -422 401zM735 -246v1598h238v-1598h-238z" />
<glyph unicode="&#xb7;" d="M362 596q0 89 61 150t150 61t150 -61t61 -150t-61 -150t-150 -61t-150 61t-61 150z" />
<glyph unicode="&#xb8;" d="M330 -424l43 115q73 -39 164 -39q92 0 92 61q0 31 -26.5 43.5t-88.5 12.5h-70l86 231h123l-49 -133q97 -5 150 -45.5t53 -112.5q0 -88 -65 -136t-187 -48q-146 0 -225 51z" />
<glyph unicode="&#xb9;" d="M227 1368l336 209h182v-725h254v-184h-725v184h254v494l-241 -101z" />
<glyph unicode="&#xba;" d="M188 1040q0 214 99 326.5t286 112.5t286 -112.5t99 -326.5t-98.5 -326t-286.5 -112t-286.5 112t-98.5 326zM215 236v182h717v-182h-717zM422 1040q0 -124 36.5 -181.5t114.5 -57.5t115 57.5t37 181.5t-37 182t-115 58t-114.5 -58t-36.5 -182z" />
<glyph unicode="&#xbb;" d="M162 35v272l207 201l-207 199v272l409 -385v-174zM641 35v272l207 201l-207 199v272l410 -385v-174z" />
<glyph unicode="&#xbc;" d="M-2 147l391 404l105 -94l-359 -437zM47 1161l270 150h140v-652h-170v465l-181 -84zM524 143v170l287 338h197v-372h79v-136h-79v-143h-170v143h-314zM653 840l359 434l137 -125l-391 -404zM666 279h182v227h-4z" />
<glyph unicode="&#xbd;" d="M-2 147l391 404l105 -94l-359 -437zM47 1161l270 150h140v-652h-170v465l-181 -84zM582 0v131l274 229q57 49 57 89q0 69 -86 69q-41 0 -63.5 -19.5t-22.5 -54.5v-16h-159v25q0 98 66 154.5t183 56.5q115 0 183.5 -55.5t68.5 -147.5q0 -57 -25 -100t-85 -87l-168 -124v-7 h278v-143h-501zM653 840l359 434l137 -125l-391 -404z" />
<glyph unicode="&#xbe;" d="M-2 147l391 404l105 -94l-359 -437zM29 864h166q0 -76 100 -76q98 0 98 72q0 37 -22.5 54.5t-71.5 17.5h-100v112h100q82 0 82 68q0 37 -23.5 56.5t-66.5 19.5q-41 0 -65 -18t-25 -52h-158q0 205 252 205q119 0 185.5 -47.5t66.5 -132.5q0 -98 -94 -135v-9 q112 -40 112 -157q0 -91 -71.5 -143t-196.5 -52q-132 0 -200 55t-68 162zM524 143v170l287 338h197v-372h79v-136h-79v-143h-170v143h-314zM653 840l359 434l137 -125l-391 -404zM666 279h182v227h-4z" />
<glyph unicode="&#xbf;" d="M176 -33q0 74 16.5 121.5t56.5 93t128 119.5q67 57 87.5 89t20.5 79v35h252v-64q0 -92 -32.5 -145.5t-141.5 -144.5q-74 -62 -96.5 -95t-22.5 -80q0 -58 36.5 -90t101.5 -32q69 0 105 38.5t36 110.5v33h258v-47q0 -172 -106 -268.5t-295 -96.5q-184 0 -294 93.5 t-110 250.5zM410 834q0 82 54 136t136 54t136.5 -54t54.5 -136t-54.5 -136.5t-136.5 -54.5t-136 54.5t-54 136.5z" />
<glyph unicode="&#xc0;" d="M51 0l369 1352h307l369 -1352h-277l-69 297h-365l-68 -297h-266zM209 1855h287l272 -368h-211zM438 526h260l-127 545h-8z" />
<glyph unicode="&#xc1;" d="M51 0l369 1352h307l369 -1352h-277l-69 297h-365l-68 -297h-266zM379 1487l272 368h287l-348 -368h-211zM438 526h260l-127 545h-8z" />
<glyph unicode="&#xc2;" d="M51 0l369 1352h307l369 -1352h-277l-69 297h-365l-68 -297h-266zM186 1487l295 368h185l295 -368h-211l-177 201l-176 -201h-211zM438 526h260l-127 545h-8z" />
<glyph unicode="&#xc3;" d="M51 0l369 1352h307l369 -1352h-277l-69 297h-365l-68 -297h-266zM221 1487q12 334 223 334q40 0 72 -14.5t88 -53.5q41 -28 60 -37.5t38 -9.5q36 0 49.5 31.5t16.5 101.5h158q-12 -334 -224 -334q-40 0 -71 14.5t-88 53.5q-40 28 -60 37.5t-39 9.5q-36 0 -49 -31 t-16 -102h-158zM438 526h260l-127 545h-8z" />
<glyph unicode="&#xc4;" d="M51 0l369 1352h307l369 -1352h-277l-69 297h-365l-68 -297h-266zM221 1649q0 63 42.5 105t105.5 42t105 -42t42 -105t-42 -105.5t-105 -42.5t-105.5 42.5t-42.5 105.5zM438 526h260l-127 545h-8zM631 1649q0 63 42 105t105 42t105.5 -42t42.5 -105t-42.5 -105.5 t-105.5 -42.5t-105 42.5t-42 105.5z" />
<glyph unicode="&#xc5;" d="M51 0l369 1352h307l369 -1352h-277l-69 297h-365l-68 -297h-266zM330 1710q0 100 70 168t173 68t173.5 -68t70.5 -168t-70.5 -167.5t-173.5 -67.5t-173 67.5t-70 167.5zM438 526h260l-127 545h-8zM483 1710q0 -40 25 -66t65 -26t65.5 26t25.5 66t-25.5 66t-65.5 26 t-65 -26t-25 -66z" />
<glyph unicode="&#xc6;" d="M-16 0l432 1352h698v-224h-311v-321h229v-223h-229v-361h311v-223h-549v303h-250l-88 -303h-243zM377 514h188v614h-8z" />
<glyph unicode="&#xc7;" d="M117 676q0 364 114 532t361 168q215 0 329.5 -124t139.5 -384h-275q-15 135 -60.5 196.5t-131.5 61.5q-109 0 -155 -103.5t-46 -346.5t46 -347t155 -104q86 0 131.5 61.5t60.5 196.5h275q-23 -238 -120.5 -361t-278.5 -142l-41 -113q97 -5 149.5 -45.5t52.5 -112.5 q0 -88 -65 -136t-187 -48q-146 0 -225 51l43 115q73 -39 164 -39q92 0 92 61q0 31 -26.5 43.5t-88.5 12.5h-69l78 208q-219 17 -320.5 185.5t-101.5 513.5z" />
<glyph unicode="&#xc8;" d="M190 0v1352h852v-240h-585v-301h463v-231h-463v-340h585v-240h-852zM252 1855h287l272 -368h-211z" />
<glyph unicode="&#xc9;" d="M190 0v1352h852v-240h-585v-301h463v-231h-463v-340h585v-240h-852zM422 1487l272 368h287l-348 -368h-211z" />
<glyph unicode="&#xca;" d="M190 0v1352h852v-240h-585v-301h463v-231h-463v-340h585v-240h-852zM229 1487l295 368h185l295 -368h-211l-177 201l-176 -201h-211z" />
<glyph unicode="&#xcb;" d="M190 0v1352h852v-240h-585v-301h463v-231h-463v-340h585v-240h-852zM264 1649q0 63 42.5 105t105.5 42t105 -42t42 -105t-42 -105.5t-105 -42.5t-105.5 42.5t-42.5 105.5zM674 1649q0 63 42 105t105 42t105.5 -42t42.5 -105t-42.5 -105.5t-105.5 -42.5t-105 42.5 t-42 105.5z" />
<glyph unicode="&#xcc;" d="M154 0v240h286v872h-286v240h839v-240h-286v-872h286v-240h-839zM209 1855h287l272 -368h-211z" />
<glyph unicode="&#xcd;" d="M154 0v240h286v872h-286v240h839v-240h-286v-872h286v-240h-839zM379 1487l272 368h287l-348 -368h-211z" />
<glyph unicode="&#xce;" d="M154 0v240h286v872h-286v240h839v-240h-286v-872h286v-240h-839zM186 1487l295 368h185l295 -368h-211l-177 201l-176 -201h-211z" />
<glyph unicode="&#xcf;" d="M154 0v240h286v872h-286v240h839v-240h-286v-872h286v-240h-839zM221 1649q0 63 42.5 105t105.5 42t105 -42t42 -105t-42 -105.5t-105 -42.5t-105.5 42.5t-42.5 105.5zM631 1649q0 63 42 105t105 42t105.5 -42t42.5 -105t-42.5 -105.5t-105.5 -42.5t-105 42.5t-42 105.5z " />
<glyph unicode="&#xd0;" d="M41 557v238h106v557h363q287 0 421 -163t134 -513t-134 -513t-421 -163h-363v557h-106zM414 240h67q91 0 148 20.5t93.5 72t51 133t14.5 210.5t-14.5 210.5t-51 133t-93.5 72t-148 20.5h-67v-317h180v-238h-180v-317z" />
<glyph unicode="&#xd1;" d="M131 0v1352h268l369 -850h8v850h240v-1352h-240l-397 918h-8v-918h-240zM221 1487q12 334 223 334q40 0 72 -14.5t88 -53.5q41 -28 60 -37.5t38 -9.5q36 0 49.5 31.5t16.5 101.5h158q-12 -334 -224 -334q-40 0 -71 14.5t-88 53.5q-40 28 -60 37.5t-39 9.5q-36 0 -49 -31 t-16 -102h-158z" />
<glyph unicode="&#xd2;" d="M94 676q0 365 114.5 532.5t364.5 167.5t365 -167.5t115 -532.5t-115 -533t-365 -168t-364.5 167.5t-114.5 533.5zM209 1855h287l272 -368h-211zM371 676q0 -247 46 -349t156 -102q111 0 157 102t46 349t-46 348.5t-157 101.5q-110 0 -156 -101.5t-46 -348.5z" />
<glyph unicode="&#xd3;" d="M94 676q0 365 114.5 532.5t364.5 167.5t365 -167.5t115 -532.5t-115 -533t-365 -168t-364.5 167.5t-114.5 533.5zM371 676q0 -247 46 -349t156 -102q111 0 157 102t46 349t-46 348.5t-157 101.5q-110 0 -156 -101.5t-46 -348.5zM379 1487l272 368h287l-348 -368h-211z " />
<glyph unicode="&#xd4;" d="M94 676q0 365 114.5 532.5t364.5 167.5t365 -167.5t115 -532.5t-115 -533t-365 -168t-364.5 167.5t-114.5 533.5zM186 1487l295 368h185l295 -368h-211l-177 201l-176 -201h-211zM371 676q0 -247 46 -349t156 -102q111 0 157 102t46 349t-46 348.5t-157 101.5 q-110 0 -156 -101.5t-46 -348.5z" />
<glyph unicode="&#xd5;" d="M94 676q0 365 114.5 532.5t364.5 167.5t365 -167.5t115 -532.5t-115 -533t-365 -168t-364.5 167.5t-114.5 533.5zM221 1487q12 334 223 334q40 0 72 -14.5t88 -53.5q41 -28 60 -37.5t38 -9.5q36 0 49.5 31.5t16.5 101.5h158q-12 -334 -224 -334q-40 0 -71 14.5t-88 53.5 q-40 28 -60 37.5t-39 9.5q-36 0 -49 -31t-16 -102h-158zM371 676q0 -247 46 -349t156 -102q111 0 157 102t46 349t-46 348.5t-157 101.5q-110 0 -156 -101.5t-46 -348.5z" />
<glyph unicode="&#xd6;" d="M94 676q0 365 114.5 532.5t364.5 167.5t365 -167.5t115 -532.5t-115 -533t-365 -168t-364.5 167.5t-114.5 533.5zM221 1649q0 63 42.5 105t105.5 42t105 -42t42 -105t-42 -105.5t-105 -42.5t-105.5 42.5t-42.5 105.5zM371 676q0 -247 46 -349t156 -102q111 0 157 102 t46 349t-46 348.5t-157 101.5q-110 0 -156 -101.5t-46 -348.5zM631 1649q0 63 42 105t105 42t105.5 -42t42.5 -105t-42.5 -105.5t-105.5 -42.5t-105 42.5t-42 105.5z" />
<glyph unicode="&#xd7;" d="M125 309l289 289l-289 289l160 160l288 -289l289 289l160 -160l-289 -289l289 -289l-160 -159l-289 288l-288 -288z" />
<glyph unicode="&#xd8;" d="M53 55l111 168q-70 165 -70 453q0 365 114.5 532.5t364.5 167.5q181 0 291 -88l72 109l158 -101l-111 -168q70 -165 70 -452q0 -365 -115 -533t-365 -168q-180 0 -290 88l-72 -108zM371 676q0 -49 4 -127h4l334 508q-46 69 -140 69q-110 0 -156 -101.5t-46 -348.5z M434 295q47 -70 139 -70q111 0 157 102t46 349q0 49 -4 127h-4z" />
<glyph unicode="&#xd9;" d="M133 430v922h266v-916q0 -110 43.5 -160.5t137.5 -50.5q92 0 135 50.5t43 160.5v916h256v-922q0 -231 -109 -343t-332 -112t-331.5 112t-108.5 343zM209 1855h287l272 -368h-211z" />
<glyph unicode="&#xda;" d="M133 430v922h266v-916q0 -110 43.5 -160.5t137.5 -50.5q92 0 135 50.5t43 160.5v916h256v-922q0 -231 -109 -343t-332 -112t-331.5 112t-108.5 343zM379 1487l272 368h287l-348 -368h-211z" />
<glyph unicode="&#xdb;" d="M133 430v922h266v-916q0 -110 43.5 -160.5t137.5 -50.5q92 0 135 50.5t43 160.5v916h256v-922q0 -231 -109 -343t-332 -112t-331.5 112t-108.5 343zM186 1487l295 368h185l295 -368h-211l-177 201l-176 -201h-211z" />
<glyph unicode="&#xdc;" d="M133 430v922h266v-916q0 -110 43.5 -160.5t137.5 -50.5q92 0 135 50.5t43 160.5v916h256v-922q0 -231 -109 -343t-332 -112t-331.5 112t-108.5 343zM221 1649q0 63 42.5 105t105.5 42t105 -42t42 -105t-42 -105.5t-105 -42.5t-105.5 42.5t-42.5 105.5zM631 1649 q0 63 42 105t105 42t105.5 -42t42.5 -105t-42.5 -105.5t-105.5 -42.5t-105 42.5t-42 105.5z" />
<glyph unicode="&#xdd;" d="M41 1352h299l235 -465h9l235 465h287l-399 -742v-610h-267v610zM379 1487l272 368h287l-348 -368h-211z" />
<glyph unicode="&#xde;" d="M178 0v1352h266v-197h170q223 0 338 -108.5t115 -317.5t-115 -317.5t-338 -108.5h-170v-303h-266zM444 543h142q109 0 157 44t48 142t-48 142t-157 44h-142v-372z" />
<glyph unicode="&#xdf;" d="M145 0v1108q0 175 108.5 273t303.5 98q189 0 298.5 -95.5t109.5 -259.5q0 -52 -17.5 -99t-34.5 -71t-49 -63q-34 -41 -51.5 -73.5t-17.5 -69.5q0 -29 17 -55t36.5 -41.5t56.5 -39.5q34 -23 53.5 -37t49 -43t45.5 -57t28.5 -71t12.5 -93q0 -161 -96.5 -248.5t-274.5 -87.5 q-147 0 -231 41l53 226q64 -37 162 -37q57 0 87.5 25t30.5 71q0 41 -27.5 71t-84.5 68q-34 22 -52.5 35.5t-48.5 42t-45.5 56.5t-28 71t-12.5 94t17.5 99.5t34.5 73.5t49 67q23 29 35.5 47.5t23 45t10.5 52.5q0 60 -35.5 92.5t-101.5 32.5q-141 0 -141 -155v-1094h-273z" />
<glyph unicode="&#xe0;" d="M109 285q0 154 107 234.5t310 80.5h203v31q0 180 -168 180q-66 0 -109 -28.5t-55 -86.5h-256q15 160 123.5 244t302.5 84q206 0 313 -94.5t107 -278.5v-651h-239l-11 162h-8q-39 -89 -118 -138t-187 -49q-145 0 -230 84.5t-85 225.5zM201 1524h286l273 -369h-211z M373 299q0 -52 34.5 -81.5t102.5 -29.5q93 0 156 60.5t63 159.5v12h-203q-72 0 -112.5 -31.5t-40.5 -89.5z" />
<glyph unicode="&#xe1;" d="M109 285q0 154 107 234.5t310 80.5h203v31q0 180 -168 180q-66 0 -109 -28.5t-55 -86.5h-256q15 160 123.5 244t302.5 84q206 0 313 -94.5t107 -278.5v-651h-239l-11 162h-8q-39 -89 -118 -138t-187 -49q-145 0 -230 84.5t-85 225.5zM371 1155l272 369h287l-348 -369 h-211zM373 299q0 -52 34.5 -81.5t102.5 -29.5q93 0 156 60.5t63 159.5v12h-203q-72 0 -112.5 -31.5t-40.5 -89.5z" />
<glyph unicode="&#xe2;" d="M109 285q0 154 107 234.5t310 80.5h203v31q0 180 -168 180q-66 0 -109 -28.5t-55 -86.5h-256q15 160 123.5 244t302.5 84q206 0 313 -94.5t107 -278.5v-651h-239l-11 162h-8q-39 -89 -118 -138t-187 -49q-145 0 -230 84.5t-85 225.5zM178 1155l295 369h184l295 -369h-211 l-176 201l-176 -201h-211zM373 299q0 -52 34.5 -81.5t102.5 -29.5q93 0 156 60.5t63 159.5v12h-203q-72 0 -112.5 -31.5t-40.5 -89.5z" />
<glyph unicode="&#xe3;" d="M109 285q0 154 107 234.5t310 80.5h203v31q0 180 -168 180q-66 0 -109 -28.5t-55 -86.5h-256q15 160 123.5 244t302.5 84q206 0 313 -94.5t107 -278.5v-651h-239l-11 162h-8q-39 -89 -118 -138t-187 -49q-145 0 -230 84.5t-85 225.5zM213 1155q12 334 223 334 q40 0 72 -14.5t88 -53.5q41 -28 60 -37.5t38 -9.5q36 0 49.5 31.5t16.5 101.5h158q-12 -333 -224 -333q-40 0 -71.5 14t-87.5 53q-40 28 -60 37.5t-39 9.5q-36 0 -49 -31t-16 -102h-158zM373 299q0 -52 34.5 -81.5t102.5 -29.5q93 0 156 60.5t63 159.5v12h-203 q-72 0 -112.5 -31.5t-40.5 -89.5z" />
<glyph unicode="&#xe4;" d="M109 285q0 154 107 234.5t310 80.5h203v31q0 180 -168 180q-66 0 -109 -28.5t-55 -86.5h-256q15 160 123.5 244t302.5 84q206 0 313 -94.5t107 -278.5v-651h-239l-11 162h-8q-39 -89 -118 -138t-187 -49q-145 0 -230 84.5t-85 225.5zM213 1317q0 63 42 105t105 42 t105.5 -42t42.5 -105t-42.5 -105.5t-105.5 -42.5t-105 42.5t-42 105.5zM373 299q0 -52 34.5 -81.5t102.5 -29.5q93 0 156 60.5t63 159.5v12h-203q-72 0 -112.5 -31.5t-40.5 -89.5zM623 1317q0 63 42 105t105 42t105.5 -42t42.5 -105t-42.5 -105.5t-105.5 -42.5t-105 42.5 t-42 105.5z" />
<glyph unicode="&#xe5;" d="M109 285q0 154 107 234.5t310 80.5h203v31q0 180 -168 180q-66 0 -109 -28.5t-55 -86.5h-256q15 160 123.5 244t302.5 84q206 0 313 -94.5t107 -278.5v-651h-239l-11 162h-8q-39 -89 -118 -138t-187 -49q-145 0 -230 84.5t-85 225.5zM322 1378q0 100 70 168t173 68 t173.5 -68t70.5 -168t-70.5 -167.5t-173.5 -67.5t-173 67.5t-70 167.5zM373 299q0 -52 34.5 -81.5t102.5 -29.5q93 0 156 60.5t63 159.5v12h-203q-72 0 -112.5 -31.5t-40.5 -89.5zM475 1378q0 -40 25 -66t65 -26t65 26t25 66t-25 66t-65 26t-65 -26t-25 -66z" />
<glyph unicode="&#xe6;" d="M6 279q0 151 94.5 234t257.5 83h97v35q0 103 -24.5 144.5t-84.5 41.5q-57 0 -79.5 -32t-24.5 -95h-215q6 168 88 251t219 83q179 0 237 -154h9q67 154 239 154q155 0 231 -116t76 -351q0 -25 -4 -123h-450q2 -134 32 -193t97 -59q95 0 104 109h209q-3 -148 -78 -232 t-213 -84q-182 0 -270 154h-8q-75 -154 -252 -154q-132 0 -209.5 83t-77.5 221zM227 301q0 -55 27 -87t76 -32q125 0 125 224v28h-95q-62 0 -97.5 -35t-35.5 -98zM672 596h233q-3 123 -29 172t-88 49t-87.5 -49t-28.5 -172z" />
<glyph unicode="&#xe7;" d="M139 500q0 255 116 389.5t337 134.5q184 0 296 -94t144 -275h-272q-20 73 -61.5 106.5t-106.5 33.5q-95 0 -139.5 -71t-44.5 -224t44.5 -224t139.5 -71q130 0 168 139h272q-29 -163 -124.5 -256t-250.5 -108l-41 -113q97 -5 150 -45.5t53 -112.5q0 -88 -65 -136t-187 -48 q-146 0 -225 51l43 115q73 -39 164 -39q92 0 92 61q0 31 -26.5 43.5t-88.5 12.5h-69l78 208q-193 17 -294.5 151t-101.5 372z" />
<glyph unicode="&#xe8;" d="M121 506q0 250 116.5 384t335.5 134q221 0 339 -134t118 -374q0 -50 -4 -86h-641q10 -126 60.5 -184t146.5 -58q54 0 90.5 21.5t58.5 77.5h279q-43 -152 -153 -232t-279 -80q-224 0 -345.5 137t-121.5 394zM209 1524h287l272 -369h-211zM389 610h373q-12 106 -57.5 153.5 t-129.5 47.5t-129 -47.5t-57 -153.5z" />
<glyph unicode="&#xe9;" d="M121 506q0 250 116.5 384t335.5 134q221 0 339 -134t118 -374q0 -50 -4 -86h-641q10 -126 60.5 -184t146.5 -58q54 0 90.5 21.5t58.5 77.5h279q-43 -152 -153 -232t-279 -80q-224 0 -345.5 137t-121.5 394zM379 1155l272 369h287l-348 -369h-211zM389 610h373 q-12 106 -57.5 153.5t-129.5 47.5t-129 -47.5t-57 -153.5z" />
<glyph unicode="&#xea;" d="M121 506q0 250 116.5 384t335.5 134q221 0 339 -134t118 -374q0 -50 -4 -86h-641q10 -126 60.5 -184t146.5 -58q54 0 90.5 21.5t58.5 77.5h279q-43 -152 -153 -232t-279 -80q-224 0 -345.5 137t-121.5 394zM186 1155l295 369h185l295 -369h-211l-177 201l-176 -201h-211z M389 610h373q-12 106 -57.5 153.5t-129.5 47.5t-129 -47.5t-57 -153.5z" />
<glyph unicode="&#xeb;" d="M121 506q0 250 116.5 384t335.5 134q221 0 339 -134t118 -374q0 -50 -4 -86h-641q10 -126 60.5 -184t146.5 -58q54 0 90.5 21.5t58.5 77.5h279q-43 -152 -153 -232t-279 -80q-224 0 -345.5 137t-121.5 394zM221 1317q0 63 42.5 105t105.5 42t105 -42t42 -105t-42 -105.5 t-105 -42.5t-105.5 42.5t-42.5 105.5zM389 610h373q-12 106 -57.5 153.5t-129.5 47.5t-129 -47.5t-57 -153.5zM631 1317q0 63 42 105t105 42t105.5 -42t42.5 -105t-42.5 -105.5t-105.5 -42.5t-105 42.5t-42 105.5z" />
<glyph unicode="&#xec;" d="M178 0v221h303v557h-303v221h561v-778h303v-221h-864zM227 1524h287l272 -369h-211z" />
<glyph unicode="&#xed;" d="M178 0v221h303v557h-303v221h561v-778h303v-221h-864zM397 1155l273 369h286l-348 -369h-211z" />
<glyph unicode="&#xee;" d="M178 0v221h303v557h-303v221h561v-778h303v-221h-864zM205 1155l295 369h184l295 -369h-211l-176 201l-176 -201h-211z" />
<glyph unicode="&#xef;" d="M178 0v221h303v557h-303v221h561v-778h303v-221h-864zM240 1317q0 63 42 105t105 42t105.5 -42t42.5 -105t-42.5 -105.5t-105.5 -42.5t-105 42.5t-42 105.5zM649 1317q0 63 42.5 105t105.5 42t105 -42t42 -105t-42 -105.5t-105 -42.5t-105.5 42.5t-42.5 105.5z" />
<glyph unicode="&#xf0;" d="M111 430q0 199 98 316.5t260 117.5q189 0 262 -159l8 4q-35 178 -190 333l-275 -159l-84 145l222 127q-80 56 -183 105l115 219q179 -92 299 -189l160 92l86 -143l-117 -68q244 -262 244 -647q0 -272 -114.5 -410.5t-340.5 -138.5q-214 0 -332 120t-118 335zM379 430 q0 -106 48.5 -165.5t135.5 -59.5q88 0 136.5 59.5t48.5 165.5t-48.5 165.5t-136.5 59.5q-87 0 -135.5 -59.5t-48.5 -165.5z" />
<glyph unicode="&#xf1;" d="M162 0v999h239l11 -161h8q71 186 278 186q146 0 222.5 -89t76.5 -255v-680h-258v657q0 66 -34.5 102t-100.5 36q-81 0 -132.5 -52t-51.5 -145v-598h-258zM221 1155q12 334 223 334q40 0 72 -14.5t88 -53.5q41 -28 60 -37.5t38 -9.5q36 0 49.5 31.5t16.5 101.5h158 q-12 -333 -224 -333q-40 0 -71.5 14t-87.5 53q-40 28 -60 37.5t-39 9.5q-36 0 -49 -31t-16 -102h-158z" />
<glyph unicode="&#xf2;" d="M121 500q0 255 115.5 389.5t336.5 134.5t337 -134.5t116 -389.5t-116 -390t-337 -135t-336.5 135t-115.5 390zM209 1524h287l272 -369h-211zM389 500q0 -153 44.5 -224t139.5 -71q96 0 140.5 71t44.5 224t-44.5 224t-140.5 71q-95 0 -139.5 -71t-44.5 -224z" />
<glyph unicode="&#xf3;" d="M121 500q0 255 115.5 389.5t336.5 134.5t337 -134.5t116 -389.5t-116 -390t-337 -135t-336.5 135t-115.5 390zM379 1155l272 369h287l-348 -369h-211zM389 500q0 -153 44.5 -224t139.5 -71q96 0 140.5 71t44.5 224t-44.5 224t-140.5 71q-95 0 -139.5 -71t-44.5 -224z" />
<glyph unicode="&#xf4;" d="M121 500q0 255 115.5 389.5t336.5 134.5t337 -134.5t116 -389.5t-116 -390t-337 -135t-336.5 135t-115.5 390zM186 1155l295 369h185l295 -369h-211l-177 201l-176 -201h-211zM389 500q0 -153 44.5 -224t139.5 -71q96 0 140.5 71t44.5 224t-44.5 224t-140.5 71 q-95 0 -139.5 -71t-44.5 -224z" />
<glyph unicode="&#xf5;" d="M121 500q0 255 115.5 389.5t336.5 134.5t337 -134.5t116 -389.5t-116 -390t-337 -135t-336.5 135t-115.5 390zM221 1155q12 334 223 334q40 0 72 -14.5t88 -53.5q41 -28 60 -37.5t38 -9.5q36 0 49.5 31.5t16.5 101.5h158q-12 -333 -224 -333q-40 0 -71.5 14t-87.5 53 q-40 28 -60 37.5t-39 9.5q-36 0 -49 -31t-16 -102h-158zM389 500q0 -153 44.5 -224t139.5 -71q96 0 140.5 71t44.5 224t-44.5 224t-140.5 71q-95 0 -139.5 -71t-44.5 -224z" />
<glyph unicode="&#xf6;" d="M121 500q0 255 115.5 389.5t336.5 134.5t337 -134.5t116 -389.5t-116 -390t-337 -135t-336.5 135t-115.5 390zM221 1317q0 63 42.5 105t105.5 42t105 -42t42 -105t-42 -105.5t-105 -42.5t-105.5 42.5t-42.5 105.5zM389 500q0 -153 44.5 -224t139.5 -71q96 0 140.5 71 t44.5 224t-44.5 224t-140.5 71q-95 0 -139.5 -71t-44.5 -224zM631 1317q0 63 42 105t105 42t105.5 -42t42.5 -105t-42.5 -105.5t-105.5 -42.5t-105 42.5t-42 105.5z" />
<glyph unicode="&#xf7;" d="M102 485v226h942v-226h-942zM420 203q0 65 44 109t109 44t109.5 -44.5t44.5 -108.5q0 -65 -44.5 -109.5t-109.5 -44.5q-64 0 -108.5 44.5t-44.5 109.5zM420 993q0 65 44.5 109.5t108.5 44.5q65 0 109.5 -44.5t44.5 -109.5q0 -64 -44.5 -108.5t-109.5 -44.5t-109 44 t-44 109z" />
<glyph unicode="&#xf8;" d="M80 59l108 123q-67 122 -67 318q0 255 115.5 389.5t336.5 134.5q173 0 283 -84l92 104l119 -104l-109 -123q68 -124 68 -317q0 -255 -116 -390t-337 -135q-172 0 -282 84l-92 -104zM389 500q0 -30 4 -80h4l293 332q-43 43 -117 43q-95 0 -139.5 -71t-44.5 -224zM457 248 q43 -43 116 -43q96 0 140.5 71t44.5 224q0 30 -4 80h-4z" />
<glyph unicode="&#xf9;" d="M150 319v680h258v-657q0 -66 34.5 -101.5t100.5 -35.5q81 0 132.5 52t51.5 144v598h258v-999h-240l-10 162h-8q-71 -187 -278 -187q-146 0 -222.5 89t-76.5 255zM203 1524h286l273 -369h-211z" />
<glyph unicode="&#xfa;" d="M150 319v680h258v-657q0 -66 34.5 -101.5t100.5 -35.5q81 0 132.5 52t51.5 144v598h258v-999h-240l-10 162h-8q-71 -187 -278 -187q-146 0 -222.5 89t-76.5 255zM373 1155l272 369h287l-348 -369h-211z" />
<glyph unicode="&#xfb;" d="M150 319v680h258v-657q0 -66 34.5 -101.5t100.5 -35.5q81 0 132.5 52t51.5 144v598h258v-999h-240l-10 162h-8q-71 -187 -278 -187q-146 0 -222.5 89t-76.5 255zM180 1155l295 369h184l295 -369h-211l-176 201l-176 -201h-211z" />
<glyph unicode="&#xfc;" d="M150 319v680h258v-657q0 -66 34.5 -101.5t100.5 -35.5q81 0 132.5 52t51.5 144v598h258v-999h-240l-10 162h-8q-71 -187 -278 -187q-146 0 -222.5 89t-76.5 255zM215 1317q0 63 42 105t105 42t105.5 -42t42.5 -105t-42.5 -105.5t-105.5 -42.5t-105 42.5t-42 105.5z M625 1317q0 63 42 105t105 42t105.5 -42t42.5 -105t-42.5 -105.5t-105.5 -42.5t-105 42.5t-42 105.5z" />
<glyph unicode="&#xfd;" d="M-2 -119h227v-45q0 -40 21 -61t59 -21q35 0 56 20.5t40 71.5l58 164l-367 989h277l215 -653h8l201 653h264l-410 -1171q-59 -167 -135.5 -235t-206.5 -68q-150 0 -228.5 77t-78.5 220v59zM379 1155l272 369h287l-348 -369h-211z" />
<glyph unicode="&#xfe;" d="M154 -451v1905h258v-604h8q65 174 256 174q92 0 164 -40t117.5 -111.5t68.5 -166t23 -206.5q0 -151 -40 -267.5t-125.5 -187t-207.5 -70.5q-191 0 -256 175h-8v-601h-258zM412 479q0 -141 50.5 -207.5t137.5 -66.5q180 0 180 295t-180 295q-87 0 -137.5 -67t-50.5 -208 v-41z" />
<glyph unicode="&#xff;" d="M-2 -119h227v-45q0 -40 21 -61t59 -21q35 0 56 20.5t40 71.5l58 164l-367 989h277l215 -653h8l201 653h264l-410 -1171q-59 -167 -135.5 -235t-206.5 -68q-150 0 -228.5 77t-78.5 220v59zM221 1317q0 63 42.5 105t105.5 42t105 -42t42 -105t-42 -105.5t-105 -42.5 t-105.5 42.5t-42.5 105.5zM631 1317q0 63 42 105t105 42t105.5 -42t42.5 -105t-42.5 -105.5t-105.5 -42.5t-105 42.5t-42 105.5z" />
<glyph unicode="&#x152;" d="M41 676q0 350 127 513t401 163h553v-224h-348v-321h266v-223h-266v-361h348v-223h-553q-274 0 -401 163t-127 513zM289 676q0 -243 56 -345t192 -108v905q-137 -6 -192.5 -107.5t-55.5 -344.5z" />
<glyph unicode="&#x153;" d="M18 500q0 273 75.5 398.5t238.5 125.5q89 0 147 -37t90 -117h9q71 154 245 154q310 0 310 -467q0 -37 -7 -123h-452q1 -133 32 -192.5t99 -59.5q97 0 106 109h209q-6 -149 -81.5 -232.5t-215.5 -83.5q-90 0 -150 38t-95 116h-9q-62 -154 -235 -154q-164 0 -240 125.5 t-76 399.5zM240 500q0 -180 23 -249t85 -69q63 0 86 69t23 249t-23 248.5t-86 68.5q-62 0 -85 -68.5t-23 -248.5zM674 596h237q-5 123 -31 172t-87 49q-62 0 -88.5 -49t-30.5 -172z" />
<glyph unicode="&#x178;" d="M41 1352h299l235 -465h9l235 465h287l-399 -742v-610h-267v610zM221 1649q0 63 42.5 105t105.5 42t105 -42t42 -105t-42 -105.5t-105 -42.5t-105.5 42.5t-42.5 105.5zM631 1649q0 63 42 105t105 42t105.5 -42t42.5 -105t-42.5 -105.5t-105.5 -42.5t-105 42.5t-42 105.5z " />
<glyph unicode="&#x2c6;" d="M186 1155l295 369h185l295 -369h-211l-177 201l-176 -201h-211z" />
<glyph unicode="&#x2dc;" d="M221 1155q12 334 223 334q40 0 72 -14.5t88 -53.5q41 -28 60 -37.5t38 -9.5q36 0 49.5 31.5t16.5 101.5h158q-12 -333 -224 -333q-40 0 -71.5 14t-87.5 53q-40 28 -60 37.5t-39 9.5q-36 0 -49 -31t-16 -102h-158z" />
<glyph unicode="&#x2000;" horiz-adv-x="973" />
<glyph unicode="&#x2001;" horiz-adv-x="1946" />
<glyph unicode="&#x2002;" horiz-adv-x="973" />
<glyph unicode="&#x2003;" horiz-adv-x="1946" />
<glyph unicode="&#x2004;" horiz-adv-x="648" />
<glyph unicode="&#x2005;" horiz-adv-x="486" />
<glyph unicode="&#x2006;" horiz-adv-x="324" />
<glyph unicode="&#x2007;" horiz-adv-x="324" />
<glyph unicode="&#x2008;" horiz-adv-x="243" />
<glyph unicode="&#x2009;" horiz-adv-x="389" />
<glyph unicode="&#x200a;" horiz-adv-x="108" />
<glyph unicode="&#x2010;" d="M164 473v250h819v-250h-819z" />
<glyph unicode="&#x2011;" d="M164 473v250h819v-250h-819z" />
<glyph unicode="&#x2012;" d="M164 473v250h819v-250h-819z" />
<glyph unicode="&#x2013;" d="M123 496v204h901v-204h-901z" />
<glyph unicode="&#x2014;" d="M0 496v204h1147v-204h-1147z" />
<glyph unicode="&#x2018;" d="M369 848q0 178 110 327t269 201l67 -153q-106 -42 -168.5 -116t-71.5 -161h3q85 0 139.5 -51.5t54.5 -132.5q0 -82 -54.5 -134.5t-137.5 -52.5q-97 0 -154 73.5t-57 199.5z" />
<glyph unicode="&#x2019;" d="M332 729q106 42 168 116t71 161h-2q-85 0 -139.5 51.5t-54.5 132.5t54 133.5t138 52.5q97 0 154 -73t57 -199q0 -178 -110 -327.5t-269 -201.5z" />
<glyph unicode="&#x201a;" d="M332 -281q106 42 168 116t71 161h-2q-85 0 -139.5 51.5t-54.5 132.5q0 82 54.5 134.5t137.5 52.5q97 0 154 -73.5t57 -199.5q0 -178 -110 -327t-269 -201z" />
<glyph unicode="&#x201c;" d="M113 848q0 178 110 327t269 201l67 -153q-106 -42 -168.5 -116t-71.5 -161h3q85 0 139.5 -51.5t54.5 -132.5q0 -82 -54.5 -134.5t-137.5 -52.5q-97 0 -154 73.5t-57 199.5zM629 848q0 178 110 327t269 201l67 -153q-106 -42 -168 -116t-71 -161h2q85 0 139.5 -51.5 t54.5 -132.5q0 -82 -54.5 -134.5t-137.5 -52.5q-97 0 -154 73.5t-57 199.5z" />
<glyph unicode="&#x201d;" d="M72 729q106 42 168 116t71 161h-2q-85 0 -139.5 51.5t-54.5 132.5t54 133.5t138 52.5q97 0 154 -73t57 -199q0 -178 -110 -327.5t-269 -201.5zM588 729q106 42 168 116t71 161h-2q-85 0 -139.5 51.5t-54.5 132.5t54 133.5t138 52.5q97 0 154 -73t57 -199 q0 -178 -110 -327.5t-269 -201.5z" />
<glyph unicode="&#x201e;" d="M72 -281q106 42 168 116t71 161h-2q-85 0 -139.5 51.5t-54.5 132.5q0 82 54.5 134.5t137.5 52.5q97 0 154 -73.5t57 -199.5q0 -178 -110 -327t-269 -201zM588 -281q106 42 168 116t71 161h-2q-85 0 -139.5 51.5t-54.5 132.5q0 82 54.5 134.5t137.5 52.5q97 0 154 -73.5 t57 -199.5q0 -178 -110 -327t-269 -201z" />
<glyph unicode="&#x2022;" d="M262 676q0 134 89 222.5t222 88.5q134 0 223 -89t89 -222t-89 -222t-223 -89q-133 0 -222 88.5t-89 222.5z" />
<glyph unicode="&#x2026;" d="M37 129q0 66 43 110t108 44q66 0 110 -44t44 -110t-44 -110t-110 -44q-65 0 -108 44t-43 110zM420 129q0 66 43.5 110t109.5 44t110 -44t44 -110t-44 -110t-110 -44t-109.5 44t-43.5 110zM805 129q0 66 43.5 110t109.5 44q65 0 108.5 -44t43.5 -110t-43.5 -110 t-108.5 -44q-66 0 -109.5 44t-43.5 110z" />
<glyph unicode="&#x202f;" horiz-adv-x="389" />
<glyph unicode="&#x2039;" d="M295 420v174l491 385v-272l-241 -199l241 -201v-272z" />
<glyph unicode="&#x203a;" d="M360 35v272l242 201l-242 199v272l492 -385v-174z" />
<glyph unicode="&#x205f;" horiz-adv-x="486" />
<glyph unicode="&#x20ac;" d="M80 434l45 158h70v135h-115l45 158h84q31 231 136 340.5t294 109.5q175 0 279 -95t141 -290h-256q-17 82 -56 119t-108 37q-78 0 -118.5 -49.5t-55.5 -171.5h295v-158h-305v-135h305v-158h-295q13 -126 53.5 -177.5t120.5 -51.5q69 0 108 36.5t56 118.5h256 q-37 -195 -141 -290t-279 -95q-191 0 -296 111.5t-136 347.5h-127z" />
<glyph unicode="&#x2122;" d="M0 1239v113h453v-113h-160v-487h-129v487h-164zM512 752v600h170l86 -277h8l86 277h172v-600h-125v436h-8l-94 -293h-72l-94 293h-8v-436h-121z" />
<glyph unicode="&#x25fc;" horiz-adv-x="1003" d="M0 0v1004h1004v-1004h-1004z" />
<glyph unicode="&#xfb01;" d="M0 725v221h164v182q0 167 98 259t277 92q169 0 266.5 -87.5t103.5 -244.5h-245q-12 102 -119 102q-60 0 -91.5 -34.5t-31.5 -100.5v-168h561v-725h164v-221h-586v221h164v504h-303v-725h-258v725h-164z" />
<glyph unicode="&#xfb02;" d="M0 725v221h164v158q0 167 99 258.5t280 91.5h440v-1098q0 -64 30.5 -99.5t86.5 -35.5h47v-221h-47q-178 0 -276.5 92t-98.5 258v883h-182q-59 0 -90 -34.5t-31 -100.5v-152h164v-221h-164v-725h-258v725h-164z" />
</font>
</defs>
</svg>
