<?xml version="1.0" encoding="utf-8"?>
<!-- Generator: Adobe Illustrator 16.0.0, SVG Export Plug-In . SVG Version: 6.00 Build 0)  -->
<!DOCTYPE svg PUBLIC "-//W3C//DTD SVG 1.1//EN" "http://www.w3.org/Graphics/SVG/1.1/DTD/svg11.dtd">
<svg version="1.1" id="Capa_1" xmlns="http://www.w3.org/2000/svg" xmlns:xlink="http://www.w3.org/1999/xlink" x="0px" y="0px"
	 width="279px" height="251px" viewBox="0 0 279 251" enable-background="new 0 0 279 251" xml:space="preserve">
<g>
	<path fill="#2C292A" d="M695.779,148.17h28.588V61.183h-28.588V37.289h83.724v23.894h-28.591v86.987h28.591v23.894h-83.724V148.17z
		"/>
	<path fill="#2C292A" d="M797.512,72.409h19.197l0.818,14.295h0.814c3.069-11.229,9.191-16.745,19.199-16.745
		c9.598,0,15.314,5.516,17.561,16.745h0.814c3.271-11.229,9.804-16.745,20.418-16.745c14.299,0,21.037,9.803,21.037,31.245v70.858
		H874.91V102.43c0-6.536-2.25-9.598-7.354-9.598c-6.328,0-10.211,4.49-10.211,12.659v66.572h-19.805V102.43
		c0-6.536-2.252-9.598-7.353-9.598c-6.329,0-10.212,4.49-10.212,12.659v66.572h-22.465V72.409z"/>
	<path fill="#2C292A" d="M919.591,99.978h81.681v24.913h-81.681V99.978z"/>
	<path fill="#2C292A" d="M695.779,266.855h23.891l1.023,16.137h0.816c4.291-12.049,12.865-18.586,26.342-18.586
		c25.117,0,37.165,22.669,37.165,52.277c0,29.403-12.048,52.274-37.165,52.274c-12.864,0-21.234-5.919-25.525-17.356h-0.816v59.831
		h-25.73V266.855z M758.266,316.683c0-20.625-6.535-29.406-17.967-29.406c-10.823,0-18.789,7.762-18.789,27.363v4.082
		c0,19.606,7.966,27.364,18.789,27.364C751.73,346.086,758.266,337.309,758.266,316.683z"/>
	<path fill="#2C292A" d="M802.707,338.125c0-20.423,14.696-31.45,41.65-31.45h20.219v-3.062c0-12.05-5.721-17.969-16.742-17.969
		c-8.376,0-14.709,3.471-16.342,11.437h-25.521c2.043-21.239,16.541-32.675,42.477-32.675c27.361,0,41.859,12.659,41.859,37.167
		v64.937h-23.893l-1.021-16.131h-0.816c-5.102,11.64-15.927,18.58-30.425,18.58C814.748,368.957,802.707,356.706,802.707,338.125z
		 M864.576,325.873v-1.223h-20.219c-9.594,0-15.314,4.286-15.314,12.046c0,6.736,4.492,11.027,13.684,11.027
		C854.773,347.723,864.576,339.35,864.576,325.873z"/>
	<path fill="#2C292A" d="M916.691,294.421h81.68v24.913h-81.68V294.421z"/>
	<path fill="#2C292A" d="M694.35,515.988c0-33.896,15.729-52.277,45.135-52.277c24.502,0,39.609,12.865,43.9,36.76h-27.16
		c-2.652-9.803-8.168-13.887-16.74-13.887c-12.668,0-18.383,8.986-18.383,29.404c0,20.422,5.715,29.402,18.383,29.402
		c8.572,0,14.088-4.082,16.74-13.887h27.16c-4.291,23.896-19.398,36.76-43.9,36.76C710.078,568.264,694.35,549.887,694.35,515.988z"
		/>
	<path fill="#2C292A" d="M804.378,543.758h30.22v-55.541h-30.22V466.16h55.948v77.598h30.227v22.059h-86.175V543.758z
		 M829.498,434.512c0-9.189,6.94-16.131,16.131-16.131c9.188,0,16.132,6.941,16.132,16.131c0,9.191-6.944,16.131-16.132,16.131
		C836.438,450.643,829.498,443.703,829.498,434.512z"/>
	<path fill="#2C292A" d="M907.383,515.375c0-33.078,15.92-51.664,45.125-51.664c29.609,0,45.537,18.994,45.537,50.645
		c0,3.471-0.199,6.74-0.41,8.578h-63.914c1.431,16.947,7.965,24.098,20.625,24.098c6.537,0,11.846-1.844,14.906-9.805h27.777
		c-5.721,20.01-20.424,31.037-43.09,31.037C924.329,568.264,907.383,549.684,907.383,515.375z M971.299,504.961
		c-1.639-14.293-7.557-20.01-18.585-20.01s-16.954,5.717-18.588,20.01H971.299z"/>
	<path fill="#2C292A" d="M1021.838,466.16h23.891l1.023,16.137h0.814c4.701-12.254,14.09-18.586,27.771-18.586
		c19.402,0,29.813,12.254,29.813,34.309v67.797h-25.73v-65.551c0-8.783-4.689-13.682-13.473-13.682
		c-10.414,0-18.381,6.941-18.381,19.602v59.631h-25.729V466.16z"/>
	<path fill="#2C292A" d="M1131.15,493.729h81.68v24.912h-81.68V493.729z"/>
	<path fill="#2C292A" d="M694.35,710.434c0-33.895,15.729-52.275,45.135-52.275c24.502,0,39.609,12.865,43.9,36.756h-27.16
		c-2.652-9.803-8.168-13.887-16.74-13.887c-12.668,0-18.383,8.99-18.383,29.406c0,20.424,5.715,29.404,18.383,29.404
		c8.572,0,14.088-4.082,16.74-13.885h27.16c-4.291,23.891-19.398,36.758-43.9,36.758C710.078,762.711,694.35,744.334,694.35,710.434
		z"/>
	<path fill="#2C292A" d="M804.378,738.205h30.22v-55.543h-30.22v-22.055h55.948v77.598h30.227v22.055h-86.175V738.205z
		 M829.498,628.957c0-9.191,6.94-16.131,16.131-16.131c9.188,0,16.132,6.939,16.132,16.131c0,9.189-6.944,16.131-16.132,16.131
		C836.438,645.088,829.498,638.146,829.498,628.957z"/>
	<path fill="#2C292A" d="M908.954,731.877c0-20.422,14.7-31.449,41.657-31.449h20.211v-3.063c0-12.047-5.713-17.969-16.736-17.969
		c-8.377,0-14.709,3.471-16.342,11.436h-25.526c2.043-21.238,16.546-32.674,42.476-32.674c27.361,0,41.859,12.66,41.859,37.166
		v64.936h-23.887l-1.025-16.131h-0.818c-5.102,11.641-15.922,18.582-30.424,18.582C921.001,762.711,908.954,750.455,908.954,731.877
		z M970.822,719.623V718.4h-20.211c-9.602,0-15.317,4.285-15.317,12.049c0,6.734,4.492,11.027,13.683,11.027
		C961.025,741.477,970.822,733.102,970.822,719.623z"/>
</g>
<g>
	<g>
		<path fill="#294DD6" d="M47.5,56c0.103,46.079,8.452,91.03,21.161,135.196c2.507-1.459,5.014-2.919,7.521-4.378
			c-7.912-7.147-13.661-16.279-22-23c-4.418-3.561-10.55,2.156-6.364,6.364c8.645,8.691,16.877,17.796,26,26
			c2.191,1.97,5.474,1.638,7.068-0.911c4.139-6.618,5.863-14.386,10-21c3.087-4.936-4.702-9.45-7.771-4.543
			c-4.139,6.618-5.863,14.386-10,21c2.356-0.303,4.712-0.607,7.068-0.911c-9.124-8.203-17.355-17.309-26-26
			c-2.122,2.122-4.243,4.243-6.364,6.364c8.34,6.721,14.089,15.853,22,23c3.239,2.926,8.819,0.131,7.521-4.378
			C64.843,145.374,56.601,101.314,56.5,56C56.487,50.197,47.487,50.196,47.5,56L47.5,56z"/>
	</g>
</g>
<g>
	<g>
		<path fill="#294DD6" d="M125.5,46c0.708,24.043-3.884,47.839-3.742,71.868c0.141,23.811,6.939,47.007,10.902,70.328
			c2.742-1.156,5.483-2.312,8.225-3.468c-4.604-8.713-11.675-15.757-17-24c-3.198-4.95-10.153-0.672-7.771,4.543
			c4.383,9.596,10.329,18.359,17.704,25.911c2.194,2.246,5.388,1.364,7.068-0.911c5.721-7.746,10.56-16.143,17.296-23.089
			c4.04-4.167-2.318-10.537-6.364-6.364c-7.272,7.501-12.528,16.549-18.704,24.911c2.356-0.303,4.712-0.607,7.068-0.911
			c-6.868-7.031-12.218-15.161-16.296-24.089c-2.59,1.515-5.181,3.028-7.771,4.543c5.326,8.244,12.397,15.288,17,24
			c2.545,4.817,9.029,1.266,8.225-3.468c-3.949-23.235-10.452-46.1-10.592-69.821C130.608,92.584,135.19,69.425,134.5,46
			C134.33,40.209,125.329,40.193,125.5,46L125.5,46z"/>
	</g>
</g>
<g>
	<g>
		<path fill="#294DD6" d="M207.5,49c-6.026,47.119-12.902,94.373-12,142c2.946-0.399,5.893-0.797,8.839-1.196
			c-2.293-6.589-5.34-12.843-8.454-19.075c-2.59,1.515-5.181,3.028-7.771,4.543c5.351,7.948,7.069,17.75,13.704,24.911
			c2.164,2.334,5.392,1.28,7.068-0.911c7.189-9.4,12.973-19.786,20.296-29.089c3.547-4.506-2.776-10.922-6.364-6.364
			c-7.804,9.915-14.046,20.899-21.704,30.911c2.356-0.303,4.712-0.607,7.068-0.911c-5.974-6.447-7.44-15.875-12.296-23.089
			c-3.244-4.818-10.372-0.663-7.771,4.543c2.768,5.54,5.508,11.066,7.546,16.925c1.616,4.642,8.94,4.099,8.839-1.196
			c-0.902-47.627,5.974-94.881,12-142C217.235,43.254,208.226,43.325,207.5,49L207.5,49z"/>
	</g>
</g>
</svg>
